<ttFont>
<head>
    <!-- Most of this table will be recalculated by the compiler -->
    <tableVersion value="1.0"/>
    <fontRevision value="1.01"/>
    <checkSumAdjustment value="0x35f75b71"/>
    <magicNumber value="0x5f0f3cf5"/>
    <flags value="00000000 00011001"/>
    <unitsPerEm value="1000"/>
    <created value="Fri Aug 19 04:51:25 2011"/>
    <modified value="Fri Aug 19 04:55:24 2011"/>
    <xMin value="-18"/>
    <yMin value="-234"/>
    <xMax value="1007"/>
    <yMax value="859"/>
    <macStyle value="00000000 00000000"/>
    <lowestRecPPEM value="9"/>
    <fontDirectionHint value="2"/>
    <indexToLocFormat value="0"/>
    <glyphDataFormat value="0"/>
  </head>
    <TTGlyph name="A" xMin="-12" yMin="-3" xMax="659" yMax="637">
      <contour>
        <pt x="196" y="243" on="1"/>
        <pt x="406" y="243" on="1"/>
        <pt x="305" y="500" on="1"/>
        <pt x="302" y="500" on="1"/>
      </contour>
      <contour>
        <pt x="236" y="637" on="1"/>
        <pt x="267" y="637" on="0"/>
        <pt x="314" y="628" on="0"/>
        <pt x="351" y="606" on="0"/>
        <pt x="381" y="564" on="0"/>
        <pt x="395" y="531" on="1"/>
        <pt x="563" y="117" on="1"/>
        <pt x="568" y="104" on="0"/>
        <pt x="580" y="77" on="0"/>
        <pt x="596" y="55" on="0"/>
        <pt x="618" y="40" on="0"/>
        <pt x="634" y="40" on="1"/>
        <pt x="645" y="40" on="0"/>
        <pt x="658" y="36" on="0"/>
        <pt x="659" y="19" on="1"/>
        <pt x="659" y="11" on="0"/>
        <pt x="650" y="-3" on="0"/>
        <pt x="641" y="-3" on="1"/>
        <pt x="609" y="-1" on="0"/>
        <pt x="561" y="0" on="0"/>
        <pt x="531" y="0" on="1"/>
        <pt x="471" y="0" on="0"/>
        <pt x="407" y="-3" on="1"/>
        <pt x="397" y="-3" on="0"/>
        <pt x="389" y="11" on="0"/>
        <pt x="389" y="19" on="1"/>
        <pt x="390" y="36" on="0"/>
        <pt x="403" y="40" on="0"/>
        <pt x="414" y="40" on="1"/>
        <pt x="438" y="40" on="0"/>
        <pt x="464" y="49" on="0"/>
        <pt x="471" y="67" on="0"/>
        <pt x="466" y="96" on="0"/>
        <pt x="458" y="117" on="1"/>
        <pt x="424" y="200" on="1"/>
        <pt x="177" y="200" on="1"/>
        <pt x="153" y="139" on="0"/>
        <pt x="145" y="117" on="1"/>
        <pt x="137" y="91" on="0"/>
        <pt x="131" y="61" on="0"/>
        <pt x="143" y="45" on="0"/>
        <pt x="176" y="40" on="0"/>
        <pt x="205" y="40" on="1"/>
        <pt x="216" y="40" on="0"/>
        <pt x="229" y="36" on="0"/>
        <pt x="230" y="19" on="1"/>
        <pt x="230" y="11" on="0"/>
        <pt x="221" y="-3" on="0"/>
        <pt x="212" y="-3" on="1"/>
        <pt x="180" y="-1" on="0"/>
        <pt x="133" y="0" on="0"/>
        <pt x="103" y="0" on="1"/>
        <pt x="88" y="0" on="0"/>
        <pt x="66" y="0" on="0"/>
        <pt x="45" y="-1" on="0"/>
        <pt x="22" y="-2" on="0"/>
        <pt x="6" y="-3" on="1"/>
        <pt x="-4" y="-3" on="0"/>
        <pt x="-12" y="11" on="0"/>
        <pt x="-12" y="19" on="1"/>
        <pt x="-11" y="36" on="0"/>
        <pt x="2" y="40" on="0"/>
        <pt x="13" y="40" on="1"/>
        <pt x="33" y="40" on="0"/>
        <pt x="58" y="53" on="0"/>
        <pt x="75" y="75" on="0"/>
        <pt x="87" y="103" on="0"/>
        <pt x="93" y="117" on="1"/>
        <pt x="268" y="531" on="1"/>
        <pt x="275" y="549" on="0"/>
        <pt x="271" y="571" on="0"/>
        <pt x="256" y="585" on="0"/>
        <pt x="233" y="592" on="0"/>
        <pt x="221" y="594" on="1"/>
        <pt x="206" y="597" on="0"/>
        <pt x="196" y="602" on="0"/>
        <pt x="196" y="617" on="1"/>
        <pt x="196" y="634" on="0"/>
        <pt x="219" y="637" on="0"/>
      </contour>
    </TTGlyph>
    <TTGlyph name="AE" xMin="-10" yMin="-3" xMax="868" yMax="631">
      <contour>
        <pt x="418" y="591" on="1"/>
        <pt x="403" y="592" on="0"/>
        <pt x="391" y="579" on="0"/>
        <pt x="383" y="565" on="1"/>
        <pt x="245" y="291" on="1"/>
        <pt x="441" y="291" on="1"/>
        <pt x="441" y="591" on="1"/>
      </contour>
      <contour>
        <pt x="801" y="631" on="1"/>
        <pt x="812" y="631" on="0"/>
        <pt x="827" y="621" on="0"/>
        <pt x="827" y="607" on="1"/>
        <pt x="830" y="467" on="1"/>
        <pt x="830" y="457" on="0"/>
        <pt x="811" y="447" on="0"/>
        <pt x="803" y="447" on="1"/>
        <pt x="792" y="447" on="0"/>
        <pt x="774" y="456" on="0"/>
        <pt x="772" y="465" on="1"/>
        <pt x="767" y="499" on="0"/>
        <pt x="754" y="546" on="0"/>
        <pt x="733" y="576" on="0"/>
        <pt x="700" y="590" on="0"/>
        <pt x="674" y="591" on="1"/>
        <pt x="540" y="591" on="1"/>
        <pt x="540" y="337" on="1"/>
        <pt x="721" y="337" on="1"/>
        <pt x="729" y="336" on="0"/>
        <pt x="736" y="322" on="0"/>
        <pt x="736" y="314" on="1"/>
        <pt x="736" y="306" on="0"/>
        <pt x="729" y="294" on="0"/>
        <pt x="721" y="294" on="1"/>
        <pt x="540" y="294" on="1"/>
        <pt x="540" y="105" on="1"/>
        <pt x="541" y="95" on="0"/>
        <pt x="543" y="72" on="0"/>
        <pt x="556" y="52" on="0"/>
        <pt x="584" y="39" on="0"/>
        <pt x="610" y="40" on="1"/>
        <pt x="702" y="40" on="1"/>
        <pt x="728" y="41" on="0"/>
        <pt x="761" y="52" on="0"/>
        <pt x="783" y="79" on="0"/>
        <pt x="799" y="123" on="0"/>
        <pt x="809" y="156" on="1"/>
        <pt x="813" y="166" on="0"/>
        <pt x="832" y="172" on="0"/>
        <pt x="843" y="170" on="1"/>
        <pt x="851" y="168" on="0"/>
        <pt x="868" y="157" on="0"/>
        <pt x="867" y="147" on="1"/>
        <pt x="847" y="21" on="1"/>
        <pt x="844" y="7" on="0"/>
        <pt x="831" y="0" on="0"/>
        <pt x="818" y="0" on="1"/>
        <pt x="488" y="0" on="1"/>
        <pt x="458" y="0" on="0"/>
        <pt x="401" y="-1" on="0"/>
        <pt x="368" y="-3" on="1"/>
        <pt x="359" y="-3" on="0"/>
        <pt x="351" y="11" on="0"/>
        <pt x="351" y="19" on="1"/>
        <pt x="352" y="36" on="0"/>
        <pt x="365" y="40" on="0"/>
        <pt x="376" y="40" on="1"/>
        <pt x="400" y="40" on="0"/>
        <pt x="426" y="53" on="0"/>
        <pt x="438" y="75" on="0"/>
        <pt x="441" y="103" on="0"/>
        <pt x="441" y="117" on="1"/>
        <pt x="441" y="248" on="1"/>
        <pt x="224" y="248" on="1"/>
        <pt x="157" y="117" on="1"/>
        <pt x="144" y="92" on="0"/>
        <pt x="135" y="62" on="0"/>
        <pt x="146" y="45" on="0"/>
        <pt x="178" y="40" on="0"/>
        <pt x="207" y="40" on="1"/>
        <pt x="218" y="40" on="0"/>
        <pt x="231" y="36" on="0"/>
        <pt x="232" y="19" on="1"/>
        <pt x="232" y="11" on="0"/>
        <pt x="223" y="-3" on="0"/>
        <pt x="214" y="-3" on="1"/>
        <pt x="182" y="-1" on="0"/>
        <pt x="135" y="0" on="0"/>
        <pt x="105" y="0" on="1"/>
        <pt x="90" y="0" on="0"/>
        <pt x="68" y="0" on="0"/>
        <pt x="47" y="-1" on="0"/>
        <pt x="24" y="-2" on="0"/>
        <pt x="8" y="-3" on="1"/>
        <pt x="-2" y="-3" on="0"/>
        <pt x="-10" y="11" on="0"/>
        <pt x="-10" y="19" on="1"/>
        <pt x="-9" y="36" on="0"/>
        <pt x="4" y="41" on="0"/>
        <pt x="15" y="40" on="1"/>
        <pt x="30" y="39" on="0"/>
        <pt x="56" y="52" on="0"/>
        <pt x="79" y="74" on="0"/>
        <pt x="98" y="102" on="0"/>
        <pt x="105" y="117" on="1"/>
        <pt x="318" y="531" on="1"/>
        <pt x="325" y="549" on="0"/>
        <pt x="321" y="569" on="0"/>
        <pt x="306" y="581" on="0"/>
        <pt x="283" y="586" on="0"/>
        <pt x="271" y="588" on="1"/>
        <pt x="256" y="591" on="0"/>
        <pt x="245" y="596" on="0"/>
        <pt x="246" y="611" on="1"/>
        <pt x="247" y="628" on="0"/>
        <pt x="269" y="631" on="0"/>
        <pt x="286" y="631" on="1"/>
      </contour>
    </TTGlyph>
    <TTGlyph name="Aacute" xMin="-12" yMin="-3" xMax="659" yMax="830">
      <component glyphName="A" x="0" y="0" flags="0x204"/>
      <component glyphName="acute.case" x="177" y="-10" flags="0x4"/>
    </TTGlyph>
    <TTGlyph name="Acircumflex" xMin="-12" yMin="-3" xMax="659" yMax="822">
      <component glyphName="A" x="0" y="0" flags="0x204"/>
      <component glyphName="circumflex.case" x="89" y="-10" flags="0x4"/>
    </TTGlyph>
    <TTGlyph name="Adieresis" xMin="-12" yMin="-3" xMax="659" yMax="821">
      <component glyphName="A" x="0" y="0" flags="0x204"/>
      <component glyphName="dieresis.case" x="91" y="-10" flags="0x4"/>
    </TTGlyph>
    <TTGlyph name="Agrave" xMin="-12" yMin="-3" xMax="659" yMax="830">
      <component glyphName="A" x="0" y="0" flags="0x204"/>
      <component glyphName="grave.case" x="70" y="-10" flags="0x4"/>
    </TTGlyph>
    <TTGlyph name="Aring" xMin="-12" yMin="-3" xMax="659" yMax="859">
      <component glyphName="A" x="0" y="0" flags="0x204"/>
      <component glyphName="ring" x="131" y="141" flags="0x4"/>
    </TTGlyph>
    <TTGlyph name="Atilde" xMin="-12" yMin="-3" xMax="659" yMax="818">
      <component glyphName="A" x="0" y="0" flags="0x204"/>
      <component glyphName="tilde.case" x="76" y="-10" flags="0x4"/>
    </TTGlyph>
    <TTGlyph name="B" xMin="42" yMin="-3" xMax="575" yMax="634">
      <contour>
        <pt x="303" y="39" on="1"/>
        <pt x="336" y="39" on="0"/>
        <pt x="396" y="55" on="0"/>
        <pt x="440" y="90" on="0"/>
        <pt x="466" y="148" on="0"/>
        <pt x="466" y="192" on="1"/>
        <pt x="464" y="216" on="0"/>
        <pt x="442" y="260" on="0"/>
        <pt x="397" y="295" on="0"/>
        <pt x="325" y="316" on="0"/>
        <pt x="272" y="316" on="1"/>
        <pt x="231" y="316" on="1"/>
        <pt x="231" y="117" on="1"/>
        <pt x="231" y="92" on="0"/>
        <pt x="238" y="61" on="0"/>
        <pt x="254" y="45" on="0"/>
        <pt x="282" y="39" on="0"/>
      </contour>
      <contour>
        <pt x="231" y="594" on="1"/>
        <pt x="231" y="356" on="1"/>
        <pt x="273" y="356" on="1"/>
        <pt x="293" y="356" on="0"/>
        <pt x="344" y="360" on="0"/>
        <pt x="388" y="382" on="0"/>
        <pt x="418" y="430" on="0"/>
        <pt x="418" y="475" on="1"/>
        <pt x="418" y="528" on="0"/>
        <pt x="367" y="594" on="0"/>
        <pt x="301" y="594" on="1"/>
      </contour>
      <contour>
        <pt x="179" y="0" on="1"/>
        <pt x="149" y="0" on="0"/>
        <pt x="92" y="-1" on="0"/>
        <pt x="60" y="-3" on="1"/>
        <pt x="50" y="-3" on="0"/>
        <pt x="42" y="11" on="0"/>
        <pt x="42" y="19" on="1"/>
        <pt x="43" y="36" on="0"/>
        <pt x="56" y="40" on="0"/>
        <pt x="67" y="40" on="1"/>
        <pt x="91" y="40" on="0"/>
        <pt x="117" y="53" on="0"/>
        <pt x="129" y="75" on="0"/>
        <pt x="132" y="103" on="0"/>
        <pt x="132" y="117" on="1"/>
        <pt x="132" y="514" on="1"/>
        <pt x="132" y="528" on="0"/>
        <pt x="129" y="556" on="0"/>
        <pt x="117" y="578" on="0"/>
        <pt x="91" y="591" on="0"/>
        <pt x="67" y="591" on="1"/>
        <pt x="56" y="591" on="0"/>
        <pt x="43" y="595" on="0"/>
        <pt x="42" y="612" on="1"/>
        <pt x="42" y="620" on="0"/>
        <pt x="50" y="634" on="0"/>
        <pt x="60" y="634" on="1"/>
        <pt x="92" y="632" on="0"/>
        <pt x="148" y="631" on="0"/>
        <pt x="178" y="631" on="1"/>
        <pt x="319" y="631" on="1"/>
        <pt x="377" y="631" on="0"/>
        <pt x="443" y="614" on="0"/>
        <pt x="469" y="598" on="1"/>
        <pt x="495" y="581" on="0"/>
        <pt x="525" y="522" on="0"/>
        <pt x="525" y="487" on="1"/>
        <pt x="525" y="453" on="0"/>
        <pt x="500" y="402" on="0"/>
        <pt x="460" y="366" on="0"/>
        <pt x="412" y="344" on="0"/>
        <pt x="390" y="339" on="1"/>
        <pt x="390" y="336" on="1"/>
        <pt x="430" y="336" on="0"/>
        <pt x="497" y="313" on="0"/>
        <pt x="545" y="273" on="0"/>
        <pt x="573" y="221" on="0"/>
        <pt x="574" y="192" on="1"/>
        <pt x="575" y="135" on="0"/>
        <pt x="523" y="61" on="0"/>
        <pt x="442" y="17" on="0"/>
        <pt x="344" y="-1" on="0"/>
        <pt x="299" y="-1" on="1"/>
      </contour>
    </TTGlyph>
    <TTGlyph name="C" xMin="49" yMin="-20" xMax="607" yMax="651">
      <contour>
        <pt x="596" y="510" on="1"/>
        <pt x="596" y="489" on="0"/>
        <pt x="583" y="450" on="0"/>
        <pt x="557" y="420" on="0"/>
        <pt x="518" y="402" on="0"/>
        <pt x="494" y="402" on="1"/>
        <pt x="479" y="402" on="0"/>
        <pt x="458" y="411" on="0"/>
        <pt x="445" y="423" on="0"/>
        <pt x="440" y="435" on="0"/>
        <pt x="440" y="438" on="1"/>
        <pt x="440" y="440" on="0"/>
        <pt x="456" y="449" on="0"/>
        <pt x="474" y="466" on="0"/>
        <pt x="490" y="493" on="0"/>
        <pt x="490" y="513" on="1"/>
        <pt x="490" y="558" on="0"/>
        <pt x="430" y="611" on="0"/>
        <pt x="375" y="611" on="1"/>
        <pt x="330" y="611" on="0"/>
        <pt x="253" y="572" on="0"/>
        <pt x="197" y="497" on="0"/>
        <pt x="166" y="388" on="0"/>
        <pt x="166" y="317" on="1"/>
        <pt x="166" y="257" on="0"/>
        <pt x="199" y="152" on="0"/>
        <pt x="259" y="74" on="0"/>
        <pt x="343" y="29" on="0"/>
        <pt x="394" y="29" on="1"/>
        <pt x="448" y="29" on="0"/>
        <pt x="524" y="73" on="0"/>
        <pt x="556" y="124" on="1"/>
        <pt x="565" y="141" on="0"/>
        <pt x="588" y="127" on="1"/>
        <pt x="597" y="121" on="0"/>
        <pt x="607" y="104" on="0"/>
        <pt x="600" y="95" on="1"/>
        <pt x="571" y="59" on="0"/>
        <pt x="520" y="14" on="0"/>
        <pt x="465" y="-11" on="0"/>
        <pt x="400" y="-20" on="0"/>
        <pt x="358" y="-20" on="1"/>
        <pt x="295" y="-20" on="0"/>
        <pt x="183" y="25" on="0"/>
        <pt x="98" y="111" on="0"/>
        <pt x="49" y="234" on="0"/>
        <pt x="49" y="311" on="1"/>
        <pt x="49" y="387" on="0"/>
        <pt x="95" y="513" on="0"/>
        <pt x="180" y="602" on="0"/>
        <pt x="301" y="651" on="0"/>
        <pt x="376" y="651" on="1"/>
        <pt x="412" y="651" on="0"/>
        <pt x="490" y="637" on="0"/>
        <pt x="555" y="604" on="0"/>
        <pt x="596" y="550" on="0"/>
      </contour>
    </TTGlyph>
    <TTGlyph name="Ccedilla" xMin="49" yMin="-208" xMax="604" yMax="651">
      <contour>
        <pt x="596" y="510" on="1"/>
        <pt x="596" y="489" on="0"/>
        <pt x="583" y="450" on="0"/>
        <pt x="557" y="420" on="0"/>
        <pt x="519" y="402" on="0"/>
        <pt x="494" y="402" on="1"/>
        <pt x="479" y="402" on="0"/>
        <pt x="458" y="411" on="0"/>
        <pt x="445" y="423" on="0"/>
        <pt x="440" y="435" on="0"/>
        <pt x="440" y="438" on="1"/>
        <pt x="440" y="440" on="0"/>
        <pt x="456" y="449" on="0"/>
        <pt x="474" y="466" on="0"/>
        <pt x="490" y="493" on="0"/>
        <pt x="490" y="513" on="1"/>
        <pt x="490" y="558" on="0"/>
        <pt x="430" y="611" on="0"/>
        <pt x="375" y="611" on="1"/>
        <pt x="330" y="611" on="0"/>
        <pt x="253" y="572" on="0"/>
        <pt x="197" y="497" on="0"/>
        <pt x="166" y="387" on="0"/>
        <pt x="166" y="317" on="1"/>
        <pt x="166" y="257" on="0"/>
        <pt x="199" y="152" on="0"/>
        <pt x="259" y="74" on="0"/>
        <pt x="343" y="29" on="0"/>
        <pt x="394" y="29" on="1"/>
        <pt x="448" y="29" on="0"/>
        <pt x="524" y="73" on="0"/>
        <pt x="556" y="124" on="1"/>
        <pt x="560" y="133" on="0"/>
        <pt x="570" y="133" on="1"/>
        <pt x="579" y="133" on="0"/>
        <pt x="604" y="116" on="0"/>
        <pt x="604" y="105" on="1"/>
        <pt x="604" y="101" on="0"/>
        <pt x="600" y="95" on="1"/>
        <pt x="572" y="60" on="0"/>
        <pt x="524" y="17" on="0"/>
        <pt x="474" y="-8" on="0"/>
        <pt x="415" y="-18" on="0"/>
        <pt x="375" y="-20" on="1"/>
        <pt x="375" y="-45" on="1"/>
        <pt x="392" y="-45" on="0"/>
        <pt x="427" y="-52" on="0"/>
        <pt x="455" y="-65" on="0"/>
        <pt x="472" y="-92" on="0"/>
        <pt x="472" y="-111" on="1"/>
        <pt x="472" y="-137" on="0"/>
        <pt x="445" y="-174" on="0"/>
        <pt x="397" y="-197" on="0"/>
        <pt x="329" y="-208" on="0"/>
        <pt x="288" y="-208" on="1"/>
        <pt x="278" y="-208" on="0"/>
        <pt x="268" y="-193" on="0"/>
        <pt x="268" y="-184" on="1"/>
        <pt x="268" y="-170" on="0"/>
        <pt x="280" y="-162" on="0"/>
        <pt x="288" y="-162" on="1"/>
        <pt x="309" y="-162" on="0"/>
        <pt x="348" y="-161" on="0"/>
        <pt x="380" y="-154" on="0"/>
        <pt x="399" y="-140" on="0"/>
        <pt x="399" y="-126" on="1"/>
        <pt x="399" y="-115" on="0"/>
        <pt x="376" y="-107" on="0"/>
        <pt x="349" y="-103" on="0"/>
        <pt x="326" y="-93" on="0"/>
        <pt x="326" y="-77" on="1"/>
        <pt x="326" y="-18" on="1"/>
        <pt x="267" y="-12" on="0"/>
        <pt x="166" y="38" on="0"/>
        <pt x="92" y="122" on="0"/>
        <pt x="49" y="239" on="0"/>
        <pt x="49" y="311" on="1"/>
        <pt x="49" y="387" on="0"/>
        <pt x="95" y="513" on="0"/>
        <pt x="180" y="602" on="0"/>
        <pt x="301" y="651" on="0"/>
        <pt x="376" y="651" on="1"/>
        <pt x="412" y="651" on="0"/>
        <pt x="490" y="637" on="0"/>
        <pt x="555" y="604" on="0"/>
        <pt x="596" y="550" on="0"/>
      </contour>
    </TTGlyph>
    <TTGlyph name="D" xMin="43" yMin="-3" xMax="679" yMax="634">
      <contour>
        <pt x="335" y="631" on="1"/>
        <pt x="407" y="631" on="0"/>
        <pt x="532" y="588" on="0"/>
        <pt x="625" y="506" on="0"/>
        <pt x="679" y="387" on="0"/>
        <pt x="679" y="312" on="1"/>
        <pt x="679" y="232" on="0"/>
        <pt x="616" y="114" on="0"/>
        <pt x="514" y="37" on="0"/>
        <pt x="384" y="0" on="0"/>
        <pt x="317" y="0" on="1"/>
        <pt x="179" y="0" on="1"/>
        <pt x="149" y="0" on="0"/>
        <pt x="93" y="-1" on="0"/>
        <pt x="60" y="-3" on="1"/>
        <pt x="51" y="-3" on="0"/>
        <pt x="43" y="11" on="0"/>
        <pt x="43" y="19" on="1"/>
        <pt x="44" y="36" on="0"/>
        <pt x="57" y="40" on="0"/>
        <pt x="68" y="40" on="1"/>
        <pt x="92" y="40" on="0"/>
        <pt x="118" y="53" on="0"/>
        <pt x="130" y="75" on="0"/>
        <pt x="133" y="103" on="0"/>
        <pt x="133" y="117" on="1"/>
        <pt x="133" y="514" on="1"/>
        <pt x="133" y="528" on="0"/>
        <pt x="130" y="556" on="0"/>
        <pt x="118" y="578" on="0"/>
        <pt x="92" y="591" on="0"/>
        <pt x="68" y="591" on="1"/>
        <pt x="57" y="591" on="0"/>
        <pt x="44" y="595" on="0"/>
        <pt x="43" y="612" on="1"/>
        <pt x="43" y="620" on="0"/>
        <pt x="51" y="634" on="0"/>
        <pt x="60" y="634" on="1"/>
        <pt x="93" y="632" on="0"/>
        <pt x="149" y="631" on="0"/>
        <pt x="179" y="631" on="1"/>
      </contour>
      <contour>
        <pt x="558" y="312" on="1"/>
        <pt x="558" y="373" on="0"/>
        <pt x="525" y="477" on="0"/>
        <pt x="462" y="553" on="0"/>
        <pt x="369" y="595" on="0"/>
        <pt x="310" y="595" on="1"/>
        <pt x="302" y="595" on="0"/>
        <pt x="232" y="594" on="1"/>
        <pt x="232" y="105" on="1"/>
        <pt x="232" y="64" on="0"/>
        <pt x="281" y="37" on="0"/>
        <pt x="332" y="37" on="1"/>
        <pt x="393" y="37" on="0"/>
        <pt x="479" y="77" on="0"/>
        <pt x="533" y="149" on="0"/>
        <pt x="558" y="250" on="0"/>
      </contour>
    </TTGlyph>
    <TTGlyph name="E" xMin="43" yMin="-3" xMax="560" yMax="634">
      <contour>
        <pt x="493" y="631" on="1"/>
        <pt x="504" y="631" on="0"/>
        <pt x="519" y="621" on="0"/>
        <pt x="519" y="607" on="1"/>
        <pt x="522" y="467" on="1"/>
        <pt x="522" y="457" on="0"/>
        <pt x="503" y="447" on="0"/>
        <pt x="495" y="447" on="1"/>
        <pt x="484" y="447" on="0"/>
        <pt x="466" y="456" on="0"/>
        <pt x="464" y="465" on="1"/>
        <pt x="459" y="499" on="0"/>
        <pt x="446" y="546" on="0"/>
        <pt x="425" y="576" on="0"/>
        <pt x="392" y="590" on="0"/>
        <pt x="366" y="591" on="1"/>
        <pt x="232" y="591" on="1"/>
        <pt x="232" y="337" on="1"/>
        <pt x="413" y="337" on="1"/>
        <pt x="421" y="336" on="0"/>
        <pt x="428" y="322" on="0"/>
        <pt x="428" y="314" on="1"/>
        <pt x="428" y="306" on="0"/>
        <pt x="421" y="294" on="0"/>
        <pt x="413" y="294" on="1"/>
        <pt x="232" y="294" on="1"/>
        <pt x="232" y="105" on="1"/>
        <pt x="233" y="95" on="0"/>
        <pt x="235" y="72" on="0"/>
        <pt x="248" y="52" on="0"/>
        <pt x="276" y="39" on="0"/>
        <pt x="302" y="40" on="1"/>
        <pt x="394" y="40" on="1"/>
        <pt x="420" y="41" on="0"/>
        <pt x="453" y="52" on="0"/>
        <pt x="475" y="79" on="0"/>
        <pt x="491" y="123" on="0"/>
        <pt x="501" y="156" on="1"/>
        <pt x="505" y="166" on="0"/>
        <pt x="524" y="172" on="0"/>
        <pt x="535" y="170" on="1"/>
        <pt x="543" y="168" on="0"/>
        <pt x="560" y="157" on="0"/>
        <pt x="559" y="147" on="1"/>
        <pt x="539" y="21" on="1"/>
        <pt x="536" y="7" on="0"/>
        <pt x="523" y="0" on="0"/>
        <pt x="510" y="0" on="1"/>
        <pt x="180" y="0" on="1"/>
        <pt x="150" y="0" on="0"/>
        <pt x="93" y="-1" on="0"/>
        <pt x="60" y="-3" on="1"/>
        <pt x="51" y="-3" on="0"/>
        <pt x="43" y="11" on="0"/>
        <pt x="43" y="19" on="1"/>
        <pt x="44" y="36" on="0"/>
        <pt x="57" y="40" on="0"/>
        <pt x="68" y="40" on="1"/>
        <pt x="92" y="40" on="0"/>
        <pt x="118" y="53" on="0"/>
        <pt x="130" y="75" on="0"/>
        <pt x="133" y="103" on="0"/>
        <pt x="133" y="117" on="1"/>
        <pt x="133" y="514" on="1"/>
        <pt x="133" y="528" on="0"/>
        <pt x="130" y="556" on="0"/>
        <pt x="118" y="578" on="0"/>
        <pt x="92" y="591" on="0"/>
        <pt x="68" y="591" on="1"/>
        <pt x="57" y="591" on="0"/>
        <pt x="44" y="595" on="0"/>
        <pt x="43" y="612" on="1"/>
        <pt x="43" y="620" on="0"/>
        <pt x="51" y="634" on="0"/>
        <pt x="60" y="634" on="1"/>
        <pt x="93" y="632" on="0"/>
        <pt x="149" y="631" on="0"/>
        <pt x="179" y="631" on="1"/>
      </contour>
    </TTGlyph>
    <TTGlyph name="Eacute" xMin="43" yMin="-3" xMax="560" yMax="830">
      <component glyphName="E" x="0" y="0" flags="0x204"/>
      <component glyphName="acute.case" x="209" y="-10" flags="0x4"/>
    </TTGlyph>
    <TTGlyph name="Ecircumflex" xMin="43" yMin="-3" xMax="560" yMax="822">
      <component glyphName="E" x="0" y="0" flags="0x204"/>
      <component glyphName="circumflex.case" x="121" y="-10" flags="0x4"/>
    </TTGlyph>
    <TTGlyph name="Edieresis" xMin="43" yMin="-3" xMax="560" yMax="821">
      <component glyphName="E" x="0" y="0" flags="0x204"/>
      <component glyphName="dieresis.case" x="123" y="-10" flags="0x4"/>
    </TTGlyph>
    <TTGlyph name="Egrave" xMin="43" yMin="-3" xMax="560" yMax="830">
      <component glyphName="E" x="0" y="0" flags="0x204"/>
      <component glyphName="grave.case" x="122" y="-10" flags="0x4"/>
    </TTGlyph>
    <TTGlyph name="Eth" xMin="43" yMin="-3" xMax="679" yMax="634">
      <contour>
        <pt x="78" y="311" on="1"/>
        <pt x="67" y="311" on="0"/>
        <pt x="59" y="325" on="0"/>
        <pt x="59" y="332" on="1"/>
        <pt x="59" y="340" on="0"/>
        <pt x="67" y="354" on="0"/>
        <pt x="78" y="354" on="1"/>
        <pt x="133" y="354" on="1"/>
        <pt x="133" y="514" on="1"/>
        <pt x="133" y="528" on="0"/>
        <pt x="130" y="556" on="0"/>
        <pt x="118" y="578" on="0"/>
        <pt x="92" y="591" on="0"/>
        <pt x="68" y="591" on="1"/>
        <pt x="57" y="591" on="0"/>
        <pt x="44" y="595" on="0"/>
        <pt x="43" y="612" on="1"/>
        <pt x="43" y="620" on="0"/>
        <pt x="51" y="634" on="0"/>
        <pt x="60" y="634" on="1"/>
        <pt x="93" y="632" on="0"/>
        <pt x="149" y="631" on="0"/>
        <pt x="179" y="631" on="1"/>
        <pt x="335" y="631" on="1"/>
        <pt x="407" y="631" on="0"/>
        <pt x="532" y="588" on="0"/>
        <pt x="625" y="506" on="0"/>
        <pt x="679" y="387" on="0"/>
        <pt x="679" y="312" on="1"/>
        <pt x="679" y="232" on="0"/>
        <pt x="616" y="114" on="0"/>
        <pt x="514" y="37" on="0"/>
        <pt x="384" y="0" on="0"/>
        <pt x="317" y="0" on="1"/>
        <pt x="179" y="0" on="1"/>
        <pt x="149" y="0" on="0"/>
        <pt x="93" y="-1" on="0"/>
        <pt x="60" y="-3" on="1"/>
        <pt x="51" y="-3" on="0"/>
        <pt x="43" y="11" on="0"/>
        <pt x="43" y="19" on="1"/>
        <pt x="44" y="36" on="0"/>
        <pt x="57" y="40" on="0"/>
        <pt x="68" y="40" on="1"/>
        <pt x="92" y="40" on="0"/>
        <pt x="118" y="53" on="0"/>
        <pt x="130" y="75" on="0"/>
        <pt x="133" y="103" on="0"/>
        <pt x="133" y="117" on="1"/>
        <pt x="133" y="311" on="1"/>
      </contour>
      <contour>
        <pt x="558" y="312" on="1"/>
        <pt x="558" y="373" on="0"/>
        <pt x="525" y="477" on="0"/>
        <pt x="462" y="553" on="0"/>
        <pt x="369" y="595" on="0"/>
        <pt x="310" y="595" on="1"/>
        <pt x="302" y="595" on="0"/>
        <pt x="279" y="595" on="0"/>
        <pt x="256" y="594" on="0"/>
        <pt x="237" y="594" on="0"/>
        <pt x="232" y="594" on="1"/>
        <pt x="232" y="354" on="1"/>
        <pt x="347" y="354" on="1"/>
        <pt x="358" y="354" on="0"/>
        <pt x="366" y="340" on="0"/>
        <pt x="366" y="332" on="1"/>
        <pt x="366" y="325" on="0"/>
        <pt x="358" y="311" on="0"/>
        <pt x="347" y="311" on="1"/>
        <pt x="232" y="311" on="1"/>
        <pt x="232" y="105" on="1"/>
        <pt x="232" y="64" on="0"/>
        <pt x="281" y="37" on="0"/>
        <pt x="332" y="37" on="1"/>
        <pt x="393" y="37" on="0"/>
        <pt x="479" y="77" on="0"/>
        <pt x="533" y="149" on="0"/>
        <pt x="558" y="250" on="0"/>
      </contour>
    </TTGlyph>
    <TTGlyph name="Euro" xMin="46" yMin="-12" xMax="568" yMax="566">
      <contour>
        <pt x="366" y="566" on="1"/>
        <pt x="381" y="566" on="0"/>
        <pt x="441" y="558" on="0"/>
        <pt x="503" y="532" on="0"/>
        <pt x="549" y="482" on="0"/>
        <pt x="549" y="439" on="1"/>
        <pt x="549" y="410" on="0"/>
        <pt x="514" y="362" on="0"/>
        <pt x="481" y="362" on="1"/>
        <pt x="459" y="362" on="0"/>
        <pt x="435" y="384" on="0"/>
        <pt x="435" y="389" on="1"/>
        <pt x="435" y="390" on="0"/>
        <pt x="445" y="398" on="0"/>
        <pt x="458" y="412" on="0"/>
        <pt x="468" y="431" on="0"/>
        <pt x="468" y="444" on="1"/>
        <pt x="468" y="467" on="0"/>
        <pt x="449" y="501" on="0"/>
        <pt x="420" y="522" on="0"/>
        <pt x="384" y="532" on="0"/>
        <pt x="368" y="532" on="1"/>
        <pt x="332" y="532" on="0"/>
        <pt x="278" y="504" on="0"/>
        <pt x="241" y="456" on="0"/>
        <pt x="217" y="394" on="0"/>
        <pt x="211" y="361" on="1"/>
        <pt x="401" y="361" on="1"/>
        <pt x="409" y="361" on="0"/>
        <pt x="409" y="349" on="1"/>
        <pt x="409" y="341" on="0"/>
        <pt x="397" y="322" on="0"/>
        <pt x="385" y="322" on="1"/>
        <pt x="206" y="322" on="1"/>
        <pt x="203" y="301" on="0"/>
        <pt x="203" y="281" on="1"/>
        <pt x="203" y="260" on="0"/>
        <pt x="206" y="241" on="1"/>
        <pt x="355" y="241" on="1"/>
        <pt x="363" y="241" on="0"/>
        <pt x="363" y="229" on="1"/>
        <pt x="363" y="221" on="0"/>
        <pt x="351" y="202" on="0"/>
        <pt x="339" y="202" on="1"/>
        <pt x="212" y="202" on="1"/>
        <pt x="220" y="164" on="0"/>
        <pt x="251" y="101" on="0"/>
        <pt x="294" y="56" on="0"/>
        <pt x="350" y="30" on="0"/>
        <pt x="382" y="30" on="1"/>
        <pt x="412" y="30" on="0"/>
        <pt x="458" y="49" on="0"/>
        <pt x="495" y="82" on="0"/>
        <pt x="522" y="126" on="0"/>
        <pt x="532" y="150" on="1"/>
        <pt x="536" y="157" on="0"/>
        <pt x="543" y="157" on="1"/>
        <pt x="550" y="157" on="0"/>
        <pt x="567" y="148" on="0"/>
        <pt x="568" y="136" on="1"/>
        <pt x="568" y="130" on="0"/>
        <pt x="565" y="123" on="1"/>
        <pt x="534" y="51" on="0"/>
        <pt x="427" y="-12" on="0"/>
        <pt x="354" y="-12" on="1"/>
        <pt x="312" y="-12" on="0"/>
        <pt x="233" y="17" on="0"/>
        <pt x="168" y="72" on="0"/>
        <pt x="122" y="151" on="0"/>
        <pt x="112" y="202" on="1"/>
        <pt x="54" y="202" on="1"/>
        <pt x="46" y="202" on="0"/>
        <pt x="46" y="214" on="1"/>
        <pt x="46" y="222" on="0"/>
        <pt x="58" y="241" on="0"/>
        <pt x="70" y="241" on="1"/>
        <pt x="106" y="241" on="1"/>
        <pt x="105" y="258" on="0"/>
        <pt x="105" y="266" on="0"/>
        <pt x="105" y="274" on="1"/>
        <pt x="105" y="298" on="0"/>
        <pt x="108" y="322" on="1"/>
        <pt x="54" y="322" on="1"/>
        <pt x="46" y="322" on="0"/>
        <pt x="46" y="334" on="1"/>
        <pt x="46" y="342" on="0"/>
        <pt x="58" y="361" on="0"/>
        <pt x="70" y="361" on="1"/>
        <pt x="115" y="361" on="1"/>
        <pt x="127" y="408" on="0"/>
        <pt x="174" y="484" on="0"/>
        <pt x="240" y="537" on="0"/>
        <pt x="321" y="566" on="0"/>
      </contour>
    </TTGlyph>
    <TTGlyph name="F" xMin="43" yMin="-3" xMax="497" yMax="634">
      <contour>
        <pt x="133" y="514" on="1"/>
        <pt x="133" y="528" on="0"/>
        <pt x="130" y="556" on="0"/>
        <pt x="118" y="578" on="0"/>
        <pt x="92" y="591" on="0"/>
        <pt x="68" y="591" on="1"/>
        <pt x="57" y="591" on="0"/>
        <pt x="44" y="595" on="0"/>
        <pt x="43" y="612" on="1"/>
        <pt x="43" y="620" on="0"/>
        <pt x="51" y="634" on="0"/>
        <pt x="60" y="634" on="1"/>
        <pt x="92" y="632" on="0"/>
        <pt x="149" y="631" on="0"/>
        <pt x="179" y="631" on="1"/>
        <pt x="468" y="631" on="1"/>
        <pt x="479" y="631" on="0"/>
        <pt x="494" y="621" on="0"/>
        <pt x="494" y="607" on="1"/>
        <pt x="497" y="467" on="1"/>
        <pt x="497" y="457" on="0"/>
        <pt x="478" y="447" on="0"/>
        <pt x="470" y="447" on="1"/>
        <pt x="459" y="447" on="0"/>
        <pt x="440" y="456" on="0"/>
        <pt x="438" y="465" on="1"/>
        <pt x="433" y="499" on="0"/>
        <pt x="421" y="546" on="0"/>
        <pt x="400" y="576" on="0"/>
        <pt x="367" y="590" on="0"/>
        <pt x="341" y="591" on="1"/>
        <pt x="232" y="591" on="1"/>
        <pt x="232" y="331" on="1"/>
        <pt x="411" y="331" on="1"/>
        <pt x="419" y="330" on="0"/>
        <pt x="427" y="316" on="0"/>
        <pt x="427" y="308" on="1"/>
        <pt x="427" y="300" on="0"/>
        <pt x="419" y="288" on="0"/>
        <pt x="411" y="288" on="1"/>
        <pt x="232" y="288" on="1"/>
        <pt x="232" y="117" on="1"/>
        <pt x="232" y="103" on="0"/>
        <pt x="235" y="75" on="0"/>
        <pt x="247" y="53" on="0"/>
        <pt x="273" y="40" on="0"/>
        <pt x="297" y="40" on="1"/>
        <pt x="307" y="40" on="0"/>
        <pt x="321" y="36" on="0"/>
        <pt x="322" y="19" on="1"/>
        <pt x="322" y="11" on="0"/>
        <pt x="314" y="-3" on="0"/>
        <pt x="304" y="-3" on="1"/>
        <pt x="239" y="0" on="0"/>
        <pt x="180" y="0" on="1"/>
        <pt x="150" y="0" on="0"/>
        <pt x="92" y="-1" on="0"/>
        <pt x="60" y="-3" on="1"/>
        <pt x="51" y="-3" on="0"/>
        <pt x="43" y="11" on="0"/>
        <pt x="43" y="19" on="1"/>
        <pt x="44" y="36" on="0"/>
        <pt x="57" y="40" on="0"/>
        <pt x="68" y="40" on="1"/>
        <pt x="92" y="40" on="0"/>
        <pt x="118" y="53" on="0"/>
        <pt x="130" y="75" on="0"/>
        <pt x="133" y="103" on="0"/>
        <pt x="133" y="117" on="1"/>
      </contour>
    </TTGlyph>
    <TTGlyph name="G" xMin="49" yMin="-20" xMax="674" yMax="651">
      <contour>
        <pt x="590" y="29" on="1"/>
        <pt x="561" y="15" on="0"/>
        <pt x="509" y="-4" on="0"/>
        <pt x="456" y="-15" on="0"/>
        <pt x="396" y="-20" on="0"/>
        <pt x="359" y="-20" on="1"/>
        <pt x="296" y="-20" on="0"/>
        <pt x="183" y="20" on="0"/>
        <pt x="98" y="102" on="0"/>
        <pt x="49" y="226" on="0"/>
        <pt x="49" y="311" on="1"/>
        <pt x="49" y="387" on="0"/>
        <pt x="100" y="513" on="0"/>
        <pt x="193" y="602" on="0"/>
        <pt x="321" y="651" on="0"/>
        <pt x="398" y="651" on="1"/>
        <pt x="433" y="651" on="0"/>
        <pt x="508" y="635" on="0"/>
        <pt x="570" y="601" on="0"/>
        <pt x="610" y="548" on="0"/>
        <pt x="610" y="510" on="1"/>
        <pt x="610" y="489" on="0"/>
        <pt x="597" y="450" on="0"/>
        <pt x="573" y="420" on="0"/>
        <pt x="537" y="402" on="0"/>
        <pt x="515" y="402" on="1"/>
        <pt x="496" y="402" on="0"/>
        <pt x="455" y="421" on="0"/>
        <pt x="454" y="438" on="1"/>
        <pt x="454" y="440" on="0"/>
        <pt x="470" y="450" on="0"/>
        <pt x="488" y="468" on="0"/>
        <pt x="504" y="496" on="0"/>
        <pt x="504" y="517" on="1"/>
        <pt x="504" y="560" on="0"/>
        <pt x="438" y="611" on="0"/>
        <pt x="386" y="611" on="1"/>
        <pt x="340" y="611" on="0"/>
        <pt x="260" y="572" on="0"/>
        <pt x="200" y="497" on="0"/>
        <pt x="166" y="388" on="0"/>
        <pt x="166" y="317" on="1"/>
        <pt x="166" y="249" on="0"/>
        <pt x="199" y="143" on="0"/>
        <pt x="259" y="68" on="0"/>
        <pt x="343" y="29" on="0"/>
        <pt x="394" y="29" on="1"/>
        <pt x="427" y="29" on="0"/>
        <pt x="475" y="37" on="0"/>
        <pt x="502" y="45" on="1"/>
        <pt x="502" y="147" on="1"/>
        <pt x="502" y="168" on="0"/>
        <pt x="501" y="197" on="0"/>
        <pt x="490" y="215" on="0"/>
        <pt x="466" y="224" on="0"/>
        <pt x="444" y="224" on="1"/>
        <pt x="433" y="224" on="0"/>
        <pt x="417" y="228" on="0"/>
        <pt x="416" y="245" on="1"/>
        <pt x="416" y="253" on="0"/>
        <pt x="426" y="267" on="0"/>
        <pt x="437" y="267" on="1"/>
        <pt x="453" y="266" on="0"/>
        <pt x="478" y="265" on="0"/>
        <pt x="503" y="264" on="0"/>
        <pt x="530" y="264" on="0"/>
        <pt x="547" y="264" on="1"/>
        <pt x="564" y="264" on="0"/>
        <pt x="590" y="264" on="0"/>
        <pt x="614" y="265" on="0"/>
        <pt x="639" y="266" on="0"/>
        <pt x="655" y="267" on="1"/>
        <pt x="665" y="267" on="0"/>
        <pt x="674" y="253" on="0"/>
        <pt x="674" y="245" on="1"/>
        <pt x="673" y="228" on="0"/>
        <pt x="657" y="224" on="0"/>
        <pt x="646" y="224" on="1"/>
        <pt x="625" y="224" on="0"/>
        <pt x="602" y="214" on="0"/>
        <pt x="592" y="195" on="0"/>
        <pt x="590" y="166" on="0"/>
        <pt x="590" y="147" on="1"/>
      </contour>
    </TTGlyph>
    <TTGlyph name="H" xMin="43" yMin="-3" xMax="735" yMax="634">
      <contour>
        <pt x="232" y="294" on="1"/>
        <pt x="232" y="117" on="1"/>
        <pt x="232" y="103" on="0"/>
        <pt x="235" y="75" on="0"/>
        <pt x="247" y="53" on="0"/>
        <pt x="273" y="40" on="0"/>
        <pt x="297" y="40" on="1"/>
        <pt x="308" y="40" on="0"/>
        <pt x="321" y="36" on="0"/>
        <pt x="322" y="19" on="1"/>
        <pt x="322" y="11" on="0"/>
        <pt x="314" y="-3" on="0"/>
        <pt x="304" y="-3" on="1"/>
        <pt x="239" y="0" on="0"/>
        <pt x="180" y="0" on="1"/>
        <pt x="150" y="0" on="0"/>
        <pt x="93" y="-1" on="0"/>
        <pt x="61" y="-3" on="1"/>
        <pt x="51" y="-3" on="0"/>
        <pt x="43" y="11" on="0"/>
        <pt x="43" y="19" on="1"/>
        <pt x="44" y="36" on="0"/>
        <pt x="57" y="40" on="0"/>
        <pt x="68" y="40" on="1"/>
        <pt x="92" y="40" on="0"/>
        <pt x="118" y="53" on="0"/>
        <pt x="130" y="75" on="0"/>
        <pt x="133" y="103" on="0"/>
        <pt x="133" y="117" on="1"/>
        <pt x="133" y="514" on="1"/>
        <pt x="133" y="528" on="0"/>
        <pt x="130" y="556" on="0"/>
        <pt x="118" y="578" on="0"/>
        <pt x="92" y="591" on="0"/>
        <pt x="68" y="591" on="1"/>
        <pt x="57" y="591" on="0"/>
        <pt x="44" y="595" on="0"/>
        <pt x="43" y="612" on="1"/>
        <pt x="43" y="620" on="0"/>
        <pt x="51" y="634" on="0"/>
        <pt x="61" y="634" on="1"/>
        <pt x="93" y="632" on="0"/>
        <pt x="149" y="631" on="0"/>
        <pt x="179" y="631" on="1"/>
        <pt x="239" y="631" on="0"/>
        <pt x="304" y="634" on="1"/>
        <pt x="314" y="634" on="0"/>
        <pt x="322" y="620" on="0"/>
        <pt x="322" y="612" on="1"/>
        <pt x="321" y="595" on="0"/>
        <pt x="308" y="591" on="0"/>
        <pt x="297" y="591" on="1"/>
        <pt x="273" y="591" on="0"/>
        <pt x="247" y="578" on="0"/>
        <pt x="235" y="556" on="0"/>
        <pt x="232" y="528" on="0"/>
        <pt x="232" y="514" on="1"/>
        <pt x="232" y="337" on="1"/>
        <pt x="546" y="337" on="1"/>
        <pt x="546" y="514" on="1"/>
        <pt x="546" y="528" on="0"/>
        <pt x="543" y="556" on="0"/>
        <pt x="531" y="578" on="0"/>
        <pt x="505" y="591" on="0"/>
        <pt x="481" y="591" on="1"/>
        <pt x="470" y="591" on="0"/>
        <pt x="456" y="595" on="0"/>
        <pt x="455" y="612" on="1"/>
        <pt x="455" y="620" on="0"/>
        <pt x="464" y="634" on="0"/>
        <pt x="473" y="634" on="1"/>
        <pt x="537" y="631" on="0"/>
        <pt x="598" y="631" on="1"/>
        <pt x="628" y="631" on="0"/>
        <pt x="685" y="632" on="0"/>
        <pt x="717" y="634" on="1"/>
        <pt x="726" y="634" on="0"/>
        <pt x="735" y="620" on="0"/>
        <pt x="735" y="612" on="1"/>
        <pt x="734" y="595" on="0"/>
        <pt x="720" y="591" on="0"/>
        <pt x="710" y="591" on="1"/>
        <pt x="686" y="591" on="0"/>
        <pt x="660" y="578" on="0"/>
        <pt x="647" y="556" on="0"/>
        <pt x="644" y="528" on="0"/>
        <pt x="644" y="514" on="1"/>
        <pt x="644" y="117" on="1"/>
        <pt x="644" y="103" on="0"/>
        <pt x="647" y="75" on="0"/>
        <pt x="660" y="53" on="0"/>
        <pt x="686" y="40" on="0"/>
        <pt x="710" y="40" on="1"/>
        <pt x="720" y="40" on="0"/>
        <pt x="734" y="36" on="0"/>
        <pt x="735" y="19" on="1"/>
        <pt x="735" y="11" on="0"/>
        <pt x="726" y="-3" on="0"/>
        <pt x="717" y="-3" on="1"/>
        <pt x="685" y="-1" on="0"/>
        <pt x="627" y="0" on="0"/>
        <pt x="597" y="0" on="1"/>
        <pt x="537" y="0" on="0"/>
        <pt x="473" y="-3" on="1"/>
        <pt x="464" y="-3" on="0"/>
        <pt x="455" y="11" on="0"/>
        <pt x="455" y="19" on="1"/>
        <pt x="456" y="36" on="0"/>
        <pt x="470" y="40" on="0"/>
        <pt x="481" y="40" on="1"/>
        <pt x="505" y="40" on="0"/>
        <pt x="531" y="53" on="0"/>
        <pt x="543" y="75" on="0"/>
        <pt x="546" y="103" on="0"/>
        <pt x="546" y="117" on="1"/>
        <pt x="546" y="294" on="1"/>
      </contour>
    </TTGlyph>
    <TTGlyph name="I" xMin="42" yMin="-3" xMax="322" yMax="634">
      <contour>
        <pt x="231" y="117" on="1"/>
        <pt x="231" y="103" on="0"/>
        <pt x="234" y="75" on="0"/>
        <pt x="246" y="53" on="0"/>
        <pt x="272" y="40" on="0"/>
        <pt x="296" y="40" on="1"/>
        <pt x="307" y="40" on="0"/>
        <pt x="320" y="36" on="0"/>
        <pt x="322" y="19" on="1"/>
        <pt x="322" y="11" on="0"/>
        <pt x="313" y="-3" on="0"/>
        <pt x="304" y="-3" on="1"/>
        <pt x="239" y="0" on="0"/>
        <pt x="180" y="0" on="1"/>
        <pt x="150" y="0" on="0"/>
        <pt x="92" y="-1" on="0"/>
        <pt x="60" y="-3" on="1"/>
        <pt x="50" y="-3" on="0"/>
        <pt x="42" y="11" on="0"/>
        <pt x="42" y="19" on="1"/>
        <pt x="43" y="36" on="0"/>
        <pt x="57" y="40" on="0"/>
        <pt x="67" y="40" on="1"/>
        <pt x="91" y="40" on="0"/>
        <pt x="117" y="53" on="0"/>
        <pt x="129" y="75" on="0"/>
        <pt x="132" y="103" on="0"/>
        <pt x="133" y="117" on="1"/>
        <pt x="133" y="514" on="1"/>
        <pt x="132" y="528" on="0"/>
        <pt x="129" y="556" on="0"/>
        <pt x="117" y="578" on="0"/>
        <pt x="91" y="591" on="0"/>
        <pt x="67" y="591" on="1"/>
        <pt x="57" y="591" on="0"/>
        <pt x="43" y="595" on="0"/>
        <pt x="42" y="612" on="1"/>
        <pt x="42" y="620" on="0"/>
        <pt x="50" y="634" on="0"/>
        <pt x="60" y="634" on="1"/>
        <pt x="92" y="632" on="0"/>
        <pt x="149" y="631" on="0"/>
        <pt x="179" y="631" on="1"/>
        <pt x="239" y="631" on="0"/>
        <pt x="304" y="634" on="1"/>
        <pt x="313" y="634" on="0"/>
        <pt x="322" y="620" on="0"/>
        <pt x="322" y="612" on="1"/>
        <pt x="320" y="595" on="0"/>
        <pt x="307" y="591" on="0"/>
        <pt x="296" y="591" on="1"/>
        <pt x="272" y="591" on="0"/>
        <pt x="246" y="578" on="0"/>
        <pt x="234" y="556" on="0"/>
        <pt x="231" y="528" on="0"/>
        <pt x="231" y="514" on="1"/>
      </contour>
    </TTGlyph>
    <TTGlyph name="Iacute" xMin="42" yMin="-3" xMax="327" yMax="830">
      <component glyphName="I" x="0" y="0" flags="0x204"/>
      <component glyphName="acute.case" x="83" y="-10" flags="0x4"/>
    </TTGlyph>
    <TTGlyph name="Icircumflex" xMin="19" yMin="-3" xMax="338" yMax="822">
      <component glyphName="I" x="0" y="0" flags="0x204"/>
      <component glyphName="circumflex.case" x="-14" y="-10" flags="0x4"/>
    </TTGlyph>
    <TTGlyph name="Idieresis" xMin="24" yMin="-3" xMax="339" yMax="821">
      <component glyphName="I" x="0" y="0" flags="0x204"/>
      <component glyphName="dieresis.case" x="-12" y="-10" flags="0x4"/>
    </TTGlyph>
    <TTGlyph name="Igrave" xMin="27" yMin="-3" xMax="322" yMax="830">
      <component glyphName="I" x="0" y="0" flags="0x204"/>
      <component glyphName="grave.case" x="-24" y="-10" flags="0x4"/>
    </TTGlyph>
    <TTGlyph name="J" xMin="-3" yMin="-195" xMax="313" yMax="634">
      <contour>
        <pt x="25" y="-192" on="1"/>
        <pt x="8" y="-195" on="0"/>
        <pt x="2" y="-175" on="1"/>
        <pt x="-3" y="-156" on="0"/>
        <pt x="12" y="-150" on="1"/>
        <pt x="51" y="-134" on="0"/>
        <pt x="95" y="-81" on="0"/>
        <pt x="118" y="-4" on="0"/>
        <pt x="124" y="97" on="0"/>
        <pt x="124" y="162" on="1"/>
        <pt x="124" y="514" on="1"/>
        <pt x="124" y="528" on="0"/>
        <pt x="121" y="556" on="0"/>
        <pt x="109" y="578" on="0"/>
        <pt x="83" y="591" on="0"/>
        <pt x="59" y="591" on="1"/>
        <pt x="48" y="591" on="0"/>
        <pt x="34" y="595" on="0"/>
        <pt x="33" y="612" on="1"/>
        <pt x="33" y="620" on="0"/>
        <pt x="42" y="634" on="0"/>
        <pt x="51" y="634" on="1"/>
        <pt x="83" y="632" on="0"/>
        <pt x="140" y="631" on="0"/>
        <pt x="170" y="631" on="1"/>
        <pt x="230" y="631" on="0"/>
        <pt x="295" y="634" on="1"/>
        <pt x="304" y="634" on="0"/>
        <pt x="313" y="620" on="0"/>
        <pt x="313" y="612" on="1"/>
        <pt x="312" y="595" on="0"/>
        <pt x="298" y="591" on="0"/>
        <pt x="287" y="591" on="1"/>
        <pt x="263" y="591" on="0"/>
        <pt x="237" y="578" on="0"/>
        <pt x="225" y="556" on="0"/>
        <pt x="222" y="528" on="0"/>
        <pt x="222" y="514" on="1"/>
        <pt x="222" y="128" on="1"/>
        <pt x="222" y="68" on="0"/>
        <pt x="203" y="-36" on="0"/>
        <pt x="157" y="-120" on="0"/>
        <pt x="81" y="-179" on="0"/>
      </contour>
    </TTGlyph>
    <TTGlyph name="K" xMin="43" yMin="-3" xMax="700" yMax="634">
      <contour>
        <pt x="458" y="542" on="1"/>
        <pt x="478" y="564" on="0"/>
        <pt x="475" y="588" on="0"/>
        <pt x="449" y="590" on="1"/>
        <pt x="436" y="591" on="0"/>
        <pt x="435" y="611" on="1"/>
        <pt x="435" y="620" on="0"/>
        <pt x="445" y="634" on="0"/>
        <pt x="453" y="634" on="1"/>
        <pt x="479" y="632" on="0"/>
        <pt x="537" y="631" on="0"/>
        <pt x="563" y="631" on="1"/>
        <pt x="583" y="631" on="0"/>
        <pt x="634" y="633" on="0"/>
        <pt x="654" y="634" on="1"/>
        <pt x="664" y="634" on="0"/>
        <pt x="673" y="620" on="0"/>
        <pt x="673" y="611" on="1"/>
        <pt x="671" y="596" on="0"/>
        <pt x="661" y="590" on="0"/>
        <pt x="653" y="590" on="1"/>
        <pt x="615" y="592" on="0"/>
        <pt x="544" y="564" on="0"/>
        <pt x="503" y="523" on="1"/>
        <pt x="486" y="505" on="0"/>
        <pt x="431" y="448" on="0"/>
        <pt x="405" y="421" on="1"/>
        <pt x="374" y="389" on="0"/>
        <pt x="341" y="354" on="1"/>
        <pt x="400" y="282" on="0"/>
        <pt x="521" y="163" on="0"/>
        <pt x="564" y="117" on="1"/>
        <pt x="581" y="100" on="0"/>
        <pt x="607" y="73" on="0"/>
        <pt x="632" y="54" on="0"/>
        <pt x="658" y="42" on="0"/>
        <pt x="675" y="40" on="1"/>
        <pt x="683" y="39" on="0"/>
        <pt x="699" y="36" on="0"/>
        <pt x="700" y="19" on="1"/>
        <pt x="700" y="11" on="0"/>
        <pt x="692" y="-3" on="0"/>
        <pt x="682" y="-3" on="1"/>
        <pt x="666" y="-2" on="0"/>
        <pt x="647" y="-1" on="0"/>
        <pt x="630" y="0" on="0"/>
        <pt x="612" y="0" on="0"/>
        <pt x="597" y="0" on="1"/>
        <pt x="533" y="0" on="1"/>
        <pt x="478" y="61" on="0"/>
        <pt x="363" y="190" on="0"/>
        <pt x="297" y="267" on="1"/>
        <pt x="279" y="288" on="0"/>
        <pt x="248" y="305" on="0"/>
        <pt x="232" y="307" on="1"/>
        <pt x="232" y="117" on="1"/>
        <pt x="232" y="103" on="0"/>
        <pt x="235" y="75" on="0"/>
        <pt x="247" y="53" on="0"/>
        <pt x="273" y="40" on="0"/>
        <pt x="297" y="40" on="1"/>
        <pt x="308" y="40" on="0"/>
        <pt x="321" y="36" on="0"/>
        <pt x="322" y="19" on="1"/>
        <pt x="322" y="11" on="0"/>
        <pt x="314" y="-3" on="0"/>
        <pt x="304" y="-3" on="1"/>
        <pt x="239" y="0" on="0"/>
        <pt x="180" y="0" on="1"/>
        <pt x="150" y="0" on="0"/>
        <pt x="93" y="-1" on="0"/>
        <pt x="61" y="-3" on="1"/>
        <pt x="51" y="-3" on="0"/>
        <pt x="43" y="11" on="0"/>
        <pt x="43" y="19" on="1"/>
        <pt x="44" y="36" on="0"/>
        <pt x="57" y="40" on="0"/>
        <pt x="68" y="40" on="1"/>
        <pt x="92" y="40" on="0"/>
        <pt x="118" y="53" on="0"/>
        <pt x="130" y="75" on="0"/>
        <pt x="133" y="103" on="0"/>
        <pt x="133" y="117" on="1"/>
        <pt x="133" y="514" on="1"/>
        <pt x="133" y="528" on="0"/>
        <pt x="130" y="556" on="0"/>
        <pt x="118" y="578" on="0"/>
        <pt x="92" y="591" on="0"/>
        <pt x="68" y="591" on="1"/>
        <pt x="57" y="591" on="0"/>
        <pt x="44" y="595" on="0"/>
        <pt x="43" y="612" on="1"/>
        <pt x="43" y="621" on="0"/>
        <pt x="51" y="634" on="0"/>
        <pt x="61" y="634" on="1"/>
        <pt x="93" y="632" on="0"/>
        <pt x="149" y="631" on="0"/>
        <pt x="179" y="631" on="1"/>
        <pt x="239" y="631" on="0"/>
        <pt x="304" y="634" on="1"/>
        <pt x="314" y="634" on="0"/>
        <pt x="322" y="622" on="0"/>
        <pt x="322" y="612" on="1"/>
        <pt x="321" y="597" on="0"/>
        <pt x="310" y="591" on="0"/>
        <pt x="297" y="591" on="1"/>
        <pt x="273" y="591" on="0"/>
        <pt x="247" y="578" on="0"/>
        <pt x="235" y="556" on="0"/>
        <pt x="232" y="528" on="0"/>
        <pt x="232" y="514" on="1"/>
        <pt x="232" y="333" on="1"/>
        <pt x="249" y="337" on="0"/>
        <pt x="294" y="369" on="0"/>
        <pt x="317" y="389" on="1"/>
        <pt x="355" y="424" on="0"/>
        <pt x="427" y="505" on="0"/>
      </contour>
    </TTGlyph>
    <TTGlyph name="L" xMin="43" yMin="-3" xMax="558" yMax="634">
      <contour>
        <pt x="232" y="102" on="1"/>
        <pt x="233" y="92" on="0"/>
        <pt x="235" y="70" on="0"/>
        <pt x="248" y="51" on="0"/>
        <pt x="276" y="39" on="0"/>
        <pt x="302" y="40" on="1"/>
        <pt x="392" y="40" on="1"/>
        <pt x="418" y="41" on="0"/>
        <pt x="451" y="52" on="0"/>
        <pt x="473" y="79" on="0"/>
        <pt x="489" y="123" on="0"/>
        <pt x="499" y="156" on="1"/>
        <pt x="503" y="166" on="0"/>
        <pt x="522" y="172" on="0"/>
        <pt x="533" y="170" on="1"/>
        <pt x="541" y="168" on="0"/>
        <pt x="558" y="157" on="0"/>
        <pt x="557" y="147" on="1"/>
        <pt x="537" y="21" on="1"/>
        <pt x="534" y="7" on="0"/>
        <pt x="521" y="0" on="0"/>
        <pt x="508" y="0" on="1"/>
        <pt x="180" y="0" on="1"/>
        <pt x="150" y="0" on="0"/>
        <pt x="93" y="-1" on="0"/>
        <pt x="60" y="-3" on="1"/>
        <pt x="51" y="-3" on="0"/>
        <pt x="43" y="11" on="0"/>
        <pt x="43" y="19" on="1"/>
        <pt x="44" y="34" on="0"/>
        <pt x="57" y="40" on="0"/>
        <pt x="68" y="40" on="1"/>
        <pt x="92" y="40" on="0"/>
        <pt x="118" y="53" on="0"/>
        <pt x="130" y="75" on="0"/>
        <pt x="133" y="103" on="0"/>
        <pt x="133" y="117" on="1"/>
        <pt x="133" y="514" on="1"/>
        <pt x="133" y="528" on="0"/>
        <pt x="130" y="556" on="0"/>
        <pt x="118" y="578" on="0"/>
        <pt x="92" y="591" on="0"/>
        <pt x="68" y="591" on="1"/>
        <pt x="57" y="591" on="0"/>
        <pt x="44" y="596" on="0"/>
        <pt x="43" y="612" on="1"/>
        <pt x="43" y="622" on="0"/>
        <pt x="51" y="634" on="0"/>
        <pt x="60" y="634" on="1"/>
        <pt x="93" y="632" on="0"/>
        <pt x="149" y="631" on="0"/>
        <pt x="179" y="631" on="1"/>
        <pt x="239" y="631" on="0"/>
        <pt x="304" y="634" on="1"/>
        <pt x="314" y="634" on="0"/>
        <pt x="322" y="620" on="0"/>
        <pt x="322" y="612" on="1"/>
        <pt x="321" y="595" on="0"/>
        <pt x="307" y="591" on="0"/>
        <pt x="297" y="591" on="1"/>
        <pt x="273" y="591" on="0"/>
        <pt x="247" y="578" on="0"/>
        <pt x="235" y="556" on="0"/>
        <pt x="232" y="528" on="0"/>
        <pt x="232" y="514" on="1"/>
      </contour>
    </TTGlyph>
    <TTGlyph name="M" xMin="42" yMin="-5" xMax="846" yMax="637">
      <contour>
        <pt x="448" y="5" on="1"/>
        <pt x="446" y="0" on="0"/>
        <pt x="434" y="-5" on="0"/>
        <pt x="428" y="-5" on="1"/>
        <pt x="422" y="-5" on="0"/>
        <pt x="410" y="0" on="0"/>
        <pt x="407" y="5" on="1"/>
        <pt x="182" y="514" on="1"/>
        <pt x="179" y="514" on="1"/>
        <pt x="181" y="117" on="1"/>
        <pt x="181" y="103" on="0"/>
        <pt x="183" y="75" on="0"/>
        <pt x="195" y="53" on="0"/>
        <pt x="220" y="40" on="0"/>
        <pt x="244" y="40" on="1"/>
        <pt x="255" y="40" on="0"/>
        <pt x="268" y="36" on="0"/>
        <pt x="270" y="19" on="1"/>
        <pt x="270" y="11" on="0"/>
        <pt x="261" y="-3" on="0"/>
        <pt x="252" y="-3" on="1"/>
        <pt x="236" y="-2" on="0"/>
        <pt x="215" y="-1" on="0"/>
        <pt x="196" y="0" on="0"/>
        <pt x="176" y="0" on="0"/>
        <pt x="161" y="0" on="1"/>
        <pt x="146" y="0" on="0"/>
        <pt x="123" y="0" on="0"/>
        <pt x="102" y="-1" on="0"/>
        <pt x="78" y="-2" on="0"/>
        <pt x="62" y="-3" on="1"/>
        <pt x="52" y="-3" on="0"/>
        <pt x="44" y="11" on="0"/>
        <pt x="44" y="19" on="1"/>
        <pt x="45" y="36" on="0"/>
        <pt x="58" y="40" on="0"/>
        <pt x="69" y="40" on="1"/>
        <pt x="93" y="40" on="0"/>
        <pt x="118" y="53" on="0"/>
        <pt x="130" y="75" on="0"/>
        <pt x="132" y="103" on="0"/>
        <pt x="132" y="117" on="1"/>
        <pt x="134" y="514" on="1"/>
        <pt x="134" y="538" on="0"/>
        <pt x="126" y="566" on="0"/>
        <pt x="109" y="582" on="0"/>
        <pt x="84" y="591" on="0"/>
        <pt x="67" y="594" on="1"/>
        <pt x="53" y="597" on="0"/>
        <pt x="42" y="601" on="0"/>
        <pt x="42" y="617" on="1"/>
        <pt x="42" y="634" on="0"/>
        <pt x="65" y="637" on="0"/>
        <pt x="82" y="637" on="1"/>
        <pt x="119" y="637" on="0"/>
        <pt x="179" y="628" on="0"/>
        <pt x="228" y="606" on="0"/>
        <pt x="266" y="564" on="0"/>
        <pt x="280" y="531" on="1"/>
        <pt x="452" y="145" on="1"/>
        <pt x="455" y="145" on="1"/>
        <pt x="652" y="631" on="1"/>
        <pt x="709" y="631" on="1"/>
        <pt x="739" y="631" on="0"/>
        <pt x="796" y="632" on="0"/>
        <pt x="828" y="634" on="1"/>
        <pt x="838" y="634" on="0"/>
        <pt x="846" y="620" on="0"/>
        <pt x="846" y="612" on="1"/>
        <pt x="845" y="595" on="0"/>
        <pt x="831" y="591" on="0"/>
        <pt x="821" y="591" on="1"/>
        <pt x="797" y="591" on="0"/>
        <pt x="771" y="578" on="0"/>
        <pt x="759" y="556" on="0"/>
        <pt x="756" y="528" on="0"/>
        <pt x="756" y="514" on="1"/>
        <pt x="756" y="117" on="1"/>
        <pt x="756" y="103" on="0"/>
        <pt x="759" y="75" on="0"/>
        <pt x="771" y="53" on="0"/>
        <pt x="797" y="40" on="0"/>
        <pt x="821" y="40" on="1"/>
        <pt x="831" y="40" on="0"/>
        <pt x="845" y="36" on="0"/>
        <pt x="846" y="19" on="1"/>
        <pt x="846" y="11" on="0"/>
        <pt x="838" y="-3" on="0"/>
        <pt x="828" y="-3" on="1"/>
        <pt x="796" y="-1" on="0"/>
        <pt x="738" y="0" on="0"/>
        <pt x="708" y="0" on="1"/>
        <pt x="649" y="0" on="0"/>
        <pt x="585" y="-3" on="1"/>
        <pt x="575" y="-3" on="0"/>
        <pt x="567" y="11" on="0"/>
        <pt x="567" y="19" on="1"/>
        <pt x="568" y="36" on="0"/>
        <pt x="581" y="40" on="0"/>
        <pt x="592" y="40" on="1"/>
        <pt x="616" y="40" on="0"/>
        <pt x="642" y="53" on="0"/>
        <pt x="654" y="75" on="0"/>
        <pt x="657" y="103" on="0"/>
        <pt x="657" y="117" on="1"/>
        <pt x="657" y="514" on="1"/>
        <pt x="654" y="514" on="1"/>
      </contour>
    </TTGlyph>
    <TTGlyph name="N" xMin="42" yMin="-3" xMax="703" yMax="637">
      <contour>
        <pt x="182" y="514" on="1"/>
        <pt x="179" y="514" on="1"/>
        <pt x="181" y="117" on="1"/>
        <pt x="181" y="103" on="0"/>
        <pt x="183" y="75" on="0"/>
        <pt x="195" y="53" on="0"/>
        <pt x="220" y="40" on="0"/>
        <pt x="244" y="40" on="1"/>
        <pt x="255" y="40" on="0"/>
        <pt x="269" y="36" on="0"/>
        <pt x="270" y="19" on="1"/>
        <pt x="270" y="11" on="0"/>
        <pt x="261" y="-3" on="0"/>
        <pt x="252" y="-3" on="1"/>
        <pt x="236" y="-2" on="0"/>
        <pt x="213" y="-1" on="0"/>
        <pt x="192" y="0" on="0"/>
        <pt x="170" y="0" on="0"/>
        <pt x="155" y="0" on="1"/>
        <pt x="140" y="0" on="0"/>
        <pt x="119" y="0" on="0"/>
        <pt x="100" y="-1" on="0"/>
        <pt x="78" y="-2" on="0"/>
        <pt x="62" y="-3" on="1"/>
        <pt x="52" y="-3" on="0"/>
        <pt x="44" y="11" on="0"/>
        <pt x="44" y="19" on="1"/>
        <pt x="45" y="36" on="0"/>
        <pt x="58" y="40" on="0"/>
        <pt x="69" y="40" on="1"/>
        <pt x="93" y="40" on="0"/>
        <pt x="118" y="53" on="0"/>
        <pt x="130" y="75" on="0"/>
        <pt x="132" y="103" on="0"/>
        <pt x="132" y="117" on="1"/>
        <pt x="134" y="514" on="1"/>
        <pt x="134" y="537" on="0"/>
        <pt x="126" y="566" on="0"/>
        <pt x="110" y="582" on="0"/>
        <pt x="85" y="591" on="0"/>
        <pt x="67" y="594" on="1"/>
        <pt x="52" y="597" on="0"/>
        <pt x="42" y="602" on="0"/>
        <pt x="42" y="617" on="1"/>
        <pt x="42" y="634" on="0"/>
        <pt x="65" y="637" on="0"/>
        <pt x="82" y="637" on="1"/>
        <pt x="124" y="637" on="0"/>
        <pt x="182" y="627" on="0"/>
        <pt x="228" y="603" on="0"/>
        <pt x="268" y="562" on="0"/>
        <pt x="291" y="531" on="1"/>
        <pt x="565" y="171" on="1"/>
        <pt x="568" y="171" on="1"/>
        <pt x="566" y="514" on="1"/>
        <pt x="566" y="528" on="0"/>
        <pt x="564" y="556" on="0"/>
        <pt x="552" y="578" on="0"/>
        <pt x="527" y="591" on="0"/>
        <pt x="503" y="591" on="1"/>
        <pt x="492" y="591" on="0"/>
        <pt x="479" y="595" on="0"/>
        <pt x="477" y="612" on="1"/>
        <pt x="477" y="620" on="0"/>
        <pt x="486" y="634" on="0"/>
        <pt x="495" y="634" on="1"/>
        <pt x="511" y="633" on="0"/>
        <pt x="534" y="632" on="0"/>
        <pt x="554" y="631" on="0"/>
        <pt x="576" y="631" on="0"/>
        <pt x="591" y="631" on="1"/>
        <pt x="606" y="631" on="0"/>
        <pt x="627" y="631" on="0"/>
        <pt x="647" y="632" on="0"/>
        <pt x="669" y="633" on="0"/>
        <pt x="685" y="634" on="1"/>
        <pt x="695" y="634" on="0"/>
        <pt x="703" y="620" on="0"/>
        <pt x="703" y="612" on="1"/>
        <pt x="702" y="595" on="0"/>
        <pt x="689" y="591" on="0"/>
        <pt x="678" y="591" on="1"/>
        <pt x="654" y="591" on="0"/>
        <pt x="629" y="578" on="0"/>
        <pt x="617" y="556" on="0"/>
        <pt x="615" y="528" on="0"/>
        <pt x="615" y="514" on="1"/>
        <pt x="613" y="10" on="1"/>
        <pt x="612" y="2" on="0"/>
        <pt x="595" y="-3" on="0"/>
        <pt x="588" y="-3" on="1"/>
        <pt x="569" y="-3" on="0"/>
        <pt x="559" y="10" on="1"/>
      </contour>
    </TTGlyph>
    <TTGlyph name="Ntilde" xMin="42" yMin="-3" xMax="703" yMax="818">
      <component glyphName="N" x="0" y="0" flags="0x204"/>
      <component glyphName="tilde.case" x="163" y="-10" flags="0x4"/>
    </TTGlyph>
    <TTGlyph name="O" xMin="47" yMin="-20" xMax="688" yMax="651">
      <contour>
        <pt x="366" y="651" on="1"/>
        <pt x="441" y="651" on="0"/>
        <pt x="560" y="597" on="0"/>
        <pt x="643" y="506" on="0"/>
        <pt x="688" y="388" on="0"/>
        <pt x="688" y="325" on="1"/>
        <pt x="688" y="242" on="0"/>
        <pt x="629" y="114" on="0"/>
        <pt x="536" y="26" on="0"/>
        <pt x="421" y="-20" on="0"/>
        <pt x="366" y="-20" on="1"/>
        <pt x="292" y="-20" on="0"/>
        <pt x="174" y="34" on="0"/>
        <pt x="92" y="125" on="0"/>
        <pt x="47" y="243" on="0"/>
        <pt x="47" y="307" on="1"/>
        <pt x="47" y="390" on="0"/>
        <pt x="105" y="518" on="0"/>
        <pt x="197" y="606" on="0"/>
        <pt x="311" y="651" on="0"/>
      </contour>
      <contour>
        <pt x="365" y="24" on="1"/>
        <pt x="418" y="24" on="0"/>
        <pt x="495" y="73" on="0"/>
        <pt x="545" y="156" on="0"/>
        <pt x="569" y="265" on="0"/>
        <pt x="569" y="325" on="1"/>
        <pt x="569" y="381" on="0"/>
        <pt x="544" y="484" on="0"/>
        <pt x="493" y="562" on="0"/>
        <pt x="416" y="608" on="0"/>
        <pt x="365" y="608" on="1"/>
        <pt x="312" y="608" on="0"/>
        <pt x="236" y="560" on="0"/>
        <pt x="187" y="478" on="0"/>
        <pt x="164" y="370" on="0"/>
        <pt x="164" y="310" on="1"/>
        <pt x="164" y="253" on="0"/>
        <pt x="188" y="150" on="0"/>
        <pt x="238" y="71" on="0"/>
        <pt x="314" y="24" on="0"/>
      </contour>
    </TTGlyph>
    <TTGlyph name="OE" xMin="49" yMin="0" xMax="974" yMax="631">
      <contour>
        <pt x="907" y="631" on="1"/>
        <pt x="918" y="631" on="0"/>
        <pt x="933" y="621" on="0"/>
        <pt x="933" y="607" on="1"/>
        <pt x="936" y="467" on="1"/>
        <pt x="936" y="457" on="0"/>
        <pt x="917" y="447" on="0"/>
        <pt x="909" y="447" on="1"/>
        <pt x="898" y="447" on="0"/>
        <pt x="880" y="456" on="0"/>
        <pt x="878" y="465" on="1"/>
        <pt x="873" y="499" on="0"/>
        <pt x="860" y="546" on="0"/>
        <pt x="839" y="576" on="0"/>
        <pt x="806" y="590" on="0"/>
        <pt x="780" y="591" on="1"/>
        <pt x="646" y="591" on="1"/>
        <pt x="646" y="337" on="1"/>
        <pt x="827" y="337" on="1"/>
        <pt x="835" y="336" on="0"/>
        <pt x="842" y="322" on="0"/>
        <pt x="842" y="314" on="1"/>
        <pt x="842" y="306" on="0"/>
        <pt x="835" y="294" on="0"/>
        <pt x="827" y="294" on="1"/>
        <pt x="646" y="294" on="1"/>
        <pt x="646" y="105" on="1"/>
        <pt x="647" y="95" on="0"/>
        <pt x="649" y="72" on="0"/>
        <pt x="662" y="52" on="0"/>
        <pt x="690" y="39" on="0"/>
        <pt x="716" y="40" on="1"/>
        <pt x="808" y="40" on="1"/>
        <pt x="834" y="41" on="0"/>
        <pt x="867" y="52" on="0"/>
        <pt x="889" y="79" on="0"/>
        <pt x="905" y="123" on="0"/>
        <pt x="915" y="156" on="1"/>
        <pt x="919" y="166" on="0"/>
        <pt x="938" y="172" on="0"/>
        <pt x="949" y="170" on="1"/>
        <pt x="957" y="168" on="0"/>
        <pt x="974" y="157" on="0"/>
        <pt x="973" y="147" on="1"/>
        <pt x="953" y="21" on="1"/>
        <pt x="950" y="7" on="0"/>
        <pt x="937" y="0" on="0"/>
        <pt x="924" y="0" on="1"/>
        <pt x="389" y="0" on="1"/>
        <pt x="318" y="0" on="0"/>
        <pt x="194" y="44" on="0"/>
        <pt x="102" y="126" on="0"/>
        <pt x="49" y="245" on="0"/>
        <pt x="49" y="319" on="1"/>
        <pt x="49" y="399" on="0"/>
        <pt x="112" y="517" on="0"/>
        <pt x="212" y="594" on="0"/>
        <pt x="339" y="631" on="0"/>
        <pt x="404" y="631" on="1"/>
      </contour>
      <contour>
        <pt x="403" y="591" on="1"/>
        <pt x="355" y="591" on="0"/>
        <pt x="269" y="562" on="0"/>
        <pt x="205" y="498" on="0"/>
        <pt x="167" y="394" on="0"/>
        <pt x="167" y="318" on="1"/>
        <pt x="167" y="255" on="0"/>
        <pt x="202" y="153" on="0"/>
        <pt x="266" y="80" on="0"/>
        <pt x="356" y="40" on="0"/>
        <pt x="411" y="40" on="1"/>
        <pt x="482" y="40" on="1"/>
        <pt x="506" y="40" on="0"/>
        <pt x="532" y="53" on="0"/>
        <pt x="544" y="75" on="0"/>
        <pt x="547" y="103" on="0"/>
        <pt x="547" y="117" on="1"/>
        <pt x="547" y="514" on="1"/>
        <pt x="547" y="528" on="0"/>
        <pt x="544" y="556" on="0"/>
        <pt x="532" y="578" on="0"/>
        <pt x="506" y="591" on="0"/>
        <pt x="482" y="591" on="1"/>
      </contour>
    </TTGlyph>
    <TTGlyph name="Oacute" xMin="47" yMin="-20" xMax="688" yMax="839">
      <component glyphName="O" x="0" y="0" flags="0x204"/>
      <component glyphName="acute.case" x="270" y="-1" flags="0x4"/>
    </TTGlyph>
    <TTGlyph name="Ocircumflex" xMin="47" yMin="-20" xMax="688" yMax="831">
      <component glyphName="O" x="0" y="0" flags="0x204"/>
      <component glyphName="circumflex.case" x="182" y="-1" flags="0x4"/>
    </TTGlyph>
    <TTGlyph name="Odieresis" xMin="47" yMin="-20" xMax="688" yMax="830">
      <component glyphName="O" x="0" y="0" flags="0x204"/>
      <component glyphName="dieresis.case" x="184" y="-1" flags="0x4"/>
    </TTGlyph>
    <TTGlyph name="Ograve" xMin="47" yMin="-20" xMax="688" yMax="839">
      <component glyphName="O" x="0" y="0" flags="0x204"/>
      <component glyphName="grave.case" x="163" y="-1" flags="0x4"/>
    </TTGlyph>
    <TTGlyph name="Oslash" xMin="47" yMin="-20" xMax="688" yMax="651">
      <contour>
        <pt x="599" y="554" on="1"/>
        <pt x="642" y="508" on="0"/>
        <pt x="688" y="389" on="0"/>
        <pt x="688" y="325" on="1"/>
        <pt x="688" y="242" on="0"/>
        <pt x="629" y="114" on="0"/>
        <pt x="536" y="26" on="0"/>
        <pt x="421" y="-20" on="0"/>
        <pt x="366" y="-20" on="1"/>
        <pt x="302" y="-20" on="0"/>
        <pt x="198" y="21" on="0"/>
        <pt x="157" y="56" on="1"/>
        <pt x="103" y="-5" on="1"/>
        <pt x="97" y="-12" on="0"/>
        <pt x="79" y="-11" on="0"/>
        <pt x="74" y="-6" on="1"/>
        <pt x="68" y="-1" on="0"/>
        <pt x="67" y="14" on="0"/>
        <pt x="72" y="19" on="1"/>
        <pt x="129" y="84" on="1"/>
        <pt x="89" y="129" on="0"/>
        <pt x="47" y="244" on="0"/>
        <pt x="47" y="307" on="1"/>
        <pt x="47" y="390" on="0"/>
        <pt x="105" y="518" on="0"/>
        <pt x="197" y="606" on="0"/>
        <pt x="311" y="651" on="0"/>
        <pt x="366" y="651" on="1"/>
        <pt x="428" y="651" on="0"/>
        <pt x="530" y="613" on="0"/>
        <pt x="570" y="580" on="1"/>
        <pt x="627" y="644" on="1"/>
        <pt x="633" y="651" on="0"/>
        <pt x="651" y="650" on="0"/>
        <pt x="656" y="645" on="1"/>
        <pt x="662" y="640" on="0"/>
        <pt x="663" y="625" on="0"/>
        <pt x="658" y="620" on="1"/>
      </contour>
      <contour>
        <pt x="365" y="24" on="1"/>
        <pt x="418" y="24" on="0"/>
        <pt x="495" y="73" on="0"/>
        <pt x="545" y="156" on="0"/>
        <pt x="569" y="265" on="0"/>
        <pt x="569" y="325" on="1"/>
        <pt x="569" y="369" on="0"/>
        <pt x="554" y="450" on="0"/>
        <pt x="538" y="485" on="1"/>
        <pt x="210" y="115" on="1"/>
        <pt x="235" y="73" on="0"/>
        <pt x="311" y="24" on="0"/>
      </contour>
      <contour>
        <pt x="164" y="310" on="1"/>
        <pt x="164" y="222" on="0"/>
        <pt x="191" y="153" on="1"/>
        <pt x="519" y="522" on="1"/>
        <pt x="493" y="562" on="0"/>
        <pt x="417" y="608" on="0"/>
        <pt x="365" y="608" on="1"/>
        <pt x="312" y="608" on="0"/>
        <pt x="236" y="560" on="0"/>
        <pt x="187" y="478" on="0"/>
        <pt x="164" y="370" on="0"/>
      </contour>
    </TTGlyph>
    <TTGlyph name="Otilde" xMin="47" yMin="-20" xMax="688" yMax="827">
      <component glyphName="O" x="0" y="0" flags="0x204"/>
      <component glyphName="tilde.case" x="159" y="-1" flags="0x4"/>
    </TTGlyph>
    <TTGlyph name="P" xMin="42" yMin="-3" xMax="580" yMax="634">
      <contour>
        <pt x="330" y="631" on="1"/>
        <pt x="346" y="631" on="0"/>
        <pt x="395" y="628" on="0"/>
        <pt x="450" y="616" on="0"/>
        <pt x="506" y="592" on="0"/>
        <pt x="552" y="552" on="0"/>
        <pt x="580" y="493" on="0"/>
        <pt x="580" y="451" on="1"/>
        <pt x="580" y="404" on="0"/>
        <pt x="537" y="328" on="0"/>
        <pt x="466" y="274" on="0"/>
        <pt x="377" y="245" on="0"/>
        <pt x="331" y="245" on="1"/>
        <pt x="308" y="245" on="0"/>
        <pt x="257" y="251" on="0"/>
        <pt x="231" y="261" on="1"/>
        <pt x="231" y="117" on="1"/>
        <pt x="231" y="103" on="0"/>
        <pt x="234" y="75" on="0"/>
        <pt x="246" y="53" on="0"/>
        <pt x="272" y="40" on="0"/>
        <pt x="296" y="40" on="1"/>
        <pt x="307" y="40" on="0"/>
        <pt x="321" y="36" on="0"/>
        <pt x="322" y="19" on="1"/>
        <pt x="322" y="11" on="0"/>
        <pt x="313" y="-3" on="0"/>
        <pt x="304" y="-3" on="1"/>
        <pt x="239" y="0" on="0"/>
        <pt x="179" y="0" on="1"/>
        <pt x="149" y="0" on="0"/>
        <pt x="92" y="-1" on="0"/>
        <pt x="60" y="-3" on="1"/>
        <pt x="51" y="-3" on="0"/>
        <pt x="42" y="11" on="0"/>
        <pt x="42" y="19" on="1"/>
        <pt x="43" y="36" on="0"/>
        <pt x="57" y="40" on="0"/>
        <pt x="68" y="40" on="1"/>
        <pt x="92" y="40" on="0"/>
        <pt x="118" y="53" on="0"/>
        <pt x="130" y="75" on="0"/>
        <pt x="133" y="103" on="0"/>
        <pt x="133" y="117" on="1"/>
        <pt x="133" y="514" on="1"/>
        <pt x="133" y="528" on="0"/>
        <pt x="130" y="556" on="0"/>
        <pt x="118" y="578" on="0"/>
        <pt x="92" y="591" on="0"/>
        <pt x="68" y="591" on="1"/>
        <pt x="57" y="591" on="0"/>
        <pt x="43" y="595" on="0"/>
        <pt x="42" y="612" on="1"/>
        <pt x="42" y="620" on="0"/>
        <pt x="51" y="634" on="0"/>
        <pt x="60" y="634" on="1"/>
        <pt x="92" y="632" on="0"/>
        <pt x="150" y="631" on="0"/>
        <pt x="180" y="631" on="1"/>
      </contour>
      <contour>
        <pt x="231" y="301" on="1"/>
        <pt x="241" y="296" on="0"/>
        <pt x="279" y="290" on="0"/>
        <pt x="302" y="290" on="1"/>
        <pt x="325" y="290" on="0"/>
        <pt x="383" y="304" on="0"/>
        <pt x="434" y="340" on="0"/>
        <pt x="469" y="401" on="0"/>
        <pt x="469" y="448" on="1"/>
        <pt x="469" y="499" on="0"/>
        <pt x="428" y="557" on="0"/>
        <pt x="371" y="587" on="0"/>
        <pt x="312" y="594" on="0"/>
        <pt x="294" y="594" on="1"/>
        <pt x="276" y="594" on="0"/>
        <pt x="251" y="589" on="0"/>
        <pt x="237" y="573" on="0"/>
        <pt x="231" y="542" on="0"/>
        <pt x="231" y="517" on="1"/>
      </contour>
    </TTGlyph>
    <TTGlyph name="Q" xMin="47" yMin="-200" xMax="831" yMax="651">
      <contour>
        <pt x="734" y="-150" on="1"/>
        <pt x="753" y="-148" on="0"/>
        <pt x="769" y="-128" on="0"/>
        <pt x="769" y="-115" on="1"/>
        <pt x="769" y="-92" on="0"/>
        <pt x="734" y="-50" on="0"/>
        <pt x="703" y="-49" on="1"/>
        <pt x="700" y="-35" on="0"/>
        <pt x="728" y="-3" on="0"/>
        <pt x="760" y="-3" on="1"/>
        <pt x="768" y="-3" on="0"/>
        <pt x="792" y="-12" on="0"/>
        <pt x="815" y="-31" on="0"/>
        <pt x="831" y="-62" on="0"/>
        <pt x="831" y="-83" on="1"/>
        <pt x="831" y="-106" on="0"/>
        <pt x="806" y="-148" on="0"/>
        <pt x="767" y="-180" on="0"/>
        <pt x="719" y="-199" on="0"/>
        <pt x="695" y="-200" on="1"/>
        <pt x="644" y="-200" on="0"/>
        <pt x="571" y="-167" on="0"/>
        <pt x="508" y="-119" on="0"/>
        <pt x="443" y="-64" on="0"/>
        <pt x="400" y="-42" on="1"/>
        <pt x="382" y="-33" on="0"/>
        <pt x="347" y="-21" on="0"/>
        <pt x="324" y="-16" on="1"/>
        <pt x="280" y="-6" on="0"/>
        <pt x="199" y="23" on="0"/>
        <pt x="171" y="45" on="1"/>
        <pt x="111" y="91" on="0"/>
        <pt x="47" y="229" on="0"/>
        <pt x="47" y="307" on="1"/>
        <pt x="47" y="390" on="0"/>
        <pt x="105" y="518" on="0"/>
        <pt x="197" y="606" on="0"/>
        <pt x="311" y="651" on="0"/>
        <pt x="366" y="651" on="1"/>
        <pt x="441" y="651" on="0"/>
        <pt x="561" y="597" on="0"/>
        <pt x="644" y="506" on="0"/>
        <pt x="689" y="388" on="0"/>
        <pt x="689" y="325" on="1"/>
        <pt x="689" y="268" on="0"/>
        <pt x="658" y="168" on="0"/>
        <pt x="604" y="87" on="0"/>
        <pt x="528" y="27" on="0"/>
        <pt x="483" y="9" on="1"/>
        <pt x="478" y="7" on="0"/>
        <pt x="459" y="2" on="0"/>
        <pt x="442" y="1" on="1"/>
        <pt x="442" y="-1" on="1"/>
        <pt x="469" y="-4" on="0"/>
        <pt x="491" y="-15" on="1"/>
        <pt x="528" y="-33" on="0"/>
        <pt x="593" y="-80" on="0"/>
        <pt x="652" y="-122" on="0"/>
        <pt x="707" y="-150" on="0"/>
      </contour>
      <contour>
        <pt x="365" y="21" on="1"/>
        <pt x="418" y="21" on="0"/>
        <pt x="496" y="71" on="0"/>
        <pt x="546" y="155" on="0"/>
        <pt x="570" y="265" on="0"/>
        <pt x="570" y="325" on="1"/>
        <pt x="570" y="381" on="0"/>
        <pt x="545" y="484" on="0"/>
        <pt x="494" y="562" on="0"/>
        <pt x="417" y="608" on="0"/>
        <pt x="365" y="608" on="1"/>
        <pt x="312" y="608" on="0"/>
        <pt x="236" y="560" on="0"/>
        <pt x="188" y="478" on="0"/>
        <pt x="165" y="370" on="0"/>
        <pt x="165" y="310" on="1"/>
        <pt x="165" y="253" on="0"/>
        <pt x="189" y="149" on="0"/>
        <pt x="239" y="69" on="0"/>
        <pt x="314" y="21" on="0"/>
      </contour>
    </TTGlyph>
    <TTGlyph name="R" xMin="43" yMin="-3" xMax="670" yMax="634">
      <contour>
        <pt x="302" y="594" on="1"/>
        <pt x="281" y="594" on="0"/>
        <pt x="253" y="587" on="0"/>
        <pt x="238" y="568" on="0"/>
        <pt x="232" y="536" on="0"/>
        <pt x="232" y="511" on="1"/>
        <pt x="232" y="319" on="1"/>
        <pt x="320" y="319" on="1"/>
        <pt x="371" y="319" on="0"/>
        <pt x="430" y="348" on="0"/>
        <pt x="460" y="390" on="0"/>
        <pt x="469" y="439" on="0"/>
        <pt x="469" y="459" on="1"/>
        <pt x="469" y="483" on="0"/>
        <pt x="453" y="532" on="0"/>
        <pt x="415" y="570" on="0"/>
        <pt x="351" y="594" on="0"/>
      </contour>
      <contour>
        <pt x="418" y="301" on="1"/>
        <pt x="456" y="241" on="0"/>
        <pt x="534" y="120" on="0"/>
        <pt x="585" y="67" on="1"/>
        <pt x="599" y="56" on="0"/>
        <pt x="626" y="42" on="0"/>
        <pt x="645" y="40" on="1"/>
        <pt x="653" y="39" on="0"/>
        <pt x="669" y="36" on="0"/>
        <pt x="670" y="19" on="1"/>
        <pt x="670" y="11" on="0"/>
        <pt x="662" y="-3" on="0"/>
        <pt x="652" y="-3" on="1"/>
        <pt x="636" y="-2" on="0"/>
        <pt x="615" y="-1" on="0"/>
        <pt x="597" y="0" on="0"/>
        <pt x="577" y="0" on="0"/>
        <pt x="562" y="0" on="1"/>
        <pt x="520" y="8" on="0"/>
        <pt x="464" y="49" on="0"/>
        <pt x="437" y="87" on="1"/>
        <pt x="409" y="125" on="0"/>
        <pt x="361" y="202" on="0"/>
        <pt x="338" y="240" on="1"/>
        <pt x="331" y="250" on="0"/>
        <pt x="319" y="266" on="0"/>
        <pt x="303" y="275" on="0"/>
        <pt x="279" y="280" on="0"/>
        <pt x="261" y="280" on="1"/>
        <pt x="232" y="280" on="1"/>
        <pt x="232" y="117" on="1"/>
        <pt x="232" y="103" on="0"/>
        <pt x="235" y="75" on="0"/>
        <pt x="247" y="53" on="0"/>
        <pt x="273" y="40" on="0"/>
        <pt x="297" y="40" on="1"/>
        <pt x="307" y="40" on="0"/>
        <pt x="321" y="36" on="0"/>
        <pt x="322" y="19" on="1"/>
        <pt x="322" y="11" on="0"/>
        <pt x="314" y="-3" on="0"/>
        <pt x="304" y="-3" on="1"/>
        <pt x="239" y="0" on="0"/>
        <pt x="179" y="0" on="1"/>
        <pt x="149" y="0" on="0"/>
        <pt x="93" y="-1" on="0"/>
        <pt x="61" y="-3" on="1"/>
        <pt x="51" y="-3" on="0"/>
        <pt x="43" y="11" on="0"/>
        <pt x="43" y="19" on="1"/>
        <pt x="44" y="36" on="0"/>
        <pt x="57" y="40" on="0"/>
        <pt x="68" y="40" on="1"/>
        <pt x="92" y="40" on="0"/>
        <pt x="118" y="53" on="0"/>
        <pt x="130" y="75" on="0"/>
        <pt x="133" y="103" on="0"/>
        <pt x="133" y="117" on="1"/>
        <pt x="133" y="513" on="1"/>
        <pt x="133" y="527" on="0"/>
        <pt x="130" y="555" on="0"/>
        <pt x="118" y="577" on="0"/>
        <pt x="92" y="591" on="0"/>
        <pt x="68" y="591" on="1"/>
        <pt x="57" y="591" on="0"/>
        <pt x="44" y="595" on="0"/>
        <pt x="43" y="612" on="1"/>
        <pt x="43" y="620" on="0"/>
        <pt x="51" y="634" on="0"/>
        <pt x="61" y="634" on="1"/>
        <pt x="93" y="632" on="0"/>
        <pt x="150" y="631" on="0"/>
        <pt x="180" y="631" on="1"/>
        <pt x="352" y="631" on="1"/>
        <pt x="413" y="630" on="0"/>
        <pt x="499" y="601" on="0"/>
        <pt x="554" y="556" on="0"/>
        <pt x="580" y="498" on="0"/>
        <pt x="580" y="468" on="1"/>
        <pt x="580" y="441" on="0"/>
        <pt x="558" y="390" on="0"/>
        <pt x="516" y="346" on="0"/>
        <pt x="456" y="311" on="0"/>
      </contour>
    </TTGlyph>
    <TTGlyph name="S" xMin="49" yMin="-20" xMax="499" yMax="651">
      <contour>
        <pt x="265" y="20" on="1"/>
        <pt x="297" y="20" on="0"/>
        <pt x="348" y="40" on="0"/>
        <pt x="383" y="72" on="0"/>
        <pt x="401" y="113" on="0"/>
        <pt x="401" y="134" on="1"/>
        <pt x="401" y="175" on="0"/>
        <pt x="351" y="229" on="0"/>
        <pt x="277" y="269" on="0"/>
        <pt x="190" y="305" on="0"/>
        <pt x="114" y="352" on="0"/>
        <pt x="63" y="420" on="0"/>
        <pt x="62" y="472" on="1"/>
        <pt x="61" y="519" on="0"/>
        <pt x="93" y="587" on="0"/>
        <pt x="152" y="630" on="0"/>
        <pt x="232" y="651" on="0"/>
        <pt x="278" y="651" on="1"/>
        <pt x="311" y="651" on="0"/>
        <pt x="379" y="637" on="0"/>
        <pt x="433" y="607" on="0"/>
        <pt x="467" y="559" on="0"/>
        <pt x="467" y="525" on="1"/>
        <pt x="467" y="489" on="0"/>
        <pt x="418" y="442" on="0"/>
        <pt x="379" y="442" on="1"/>
        <pt x="353" y="444" on="0"/>
        <pt x="332" y="467" on="0"/>
        <pt x="332" y="473" on="1"/>
        <pt x="332" y="475" on="0"/>
        <pt x="347" y="480" on="0"/>
        <pt x="365" y="492" on="0"/>
        <pt x="380" y="513" on="0"/>
        <pt x="380" y="531" on="1"/>
        <pt x="380" y="569" on="0"/>
        <pt x="322" y="610" on="0"/>
        <pt x="279" y="610" on="1"/>
        <pt x="246" y="610" on="0"/>
        <pt x="199" y="593" on="0"/>
        <pt x="169" y="566" on="0"/>
        <pt x="155" y="530" on="0"/>
        <pt x="155" y="511" on="1"/>
        <pt x="155" y="474" on="0"/>
        <pt x="195" y="428" on="0"/>
        <pt x="235" y="406" on="1"/>
        <pt x="280" y="382" on="0"/>
        <pt x="373" y="342" on="0"/>
        <pt x="450" y="290" on="0"/>
        <pt x="499" y="216" on="0"/>
        <pt x="499" y="157" on="1"/>
        <pt x="499" y="119" on="0"/>
        <pt x="462" y="54" on="0"/>
        <pt x="399" y="7" on="0"/>
        <pt x="313" y="-20" on="0"/>
        <pt x="265" y="-20" on="1"/>
        <pt x="160" y="-20" on="0"/>
        <pt x="49" y="52" on="0"/>
        <pt x="49" y="124" on="1"/>
        <pt x="49" y="160" on="0"/>
        <pt x="98" y="207" on="0"/>
        <pt x="137" y="207" on="1"/>
        <pt x="163" y="205" on="0"/>
        <pt x="184" y="182" on="0"/>
        <pt x="184" y="176" on="1"/>
        <pt x="184" y="174" on="0"/>
        <pt x="173" y="169" on="0"/>
        <pt x="159" y="157" on="0"/>
        <pt x="148" y="136" on="0"/>
        <pt x="148" y="118" on="1"/>
        <pt x="148" y="73" on="0"/>
        <pt x="203" y="20" on="0"/>
      </contour>
    </TTGlyph>
    <TTGlyph name="T" xMin="26" yMin="-3" xMax="575" yMax="631">
      <contour>
        <pt x="545" y="631" on="1"/>
        <pt x="556" y="631" on="0"/>
        <pt x="571" y="621" on="0"/>
        <pt x="571" y="607" on="1"/>
        <pt x="575" y="466" on="1"/>
        <pt x="575" y="456" on="0"/>
        <pt x="558" y="446" on="0"/>
        <pt x="550" y="446" on="1"/>
        <pt x="539" y="446" on="0"/>
        <pt x="518" y="455" on="0"/>
        <pt x="516" y="464" on="1"/>
        <pt x="511" y="498" on="0"/>
        <pt x="498" y="546" on="0"/>
        <pt x="477" y="578" on="0"/>
        <pt x="444" y="593" on="0"/>
        <pt x="418" y="594" on="1"/>
        <pt x="350" y="594" on="1"/>
        <pt x="350" y="117" on="1"/>
        <pt x="350" y="103" on="0"/>
        <pt x="353" y="75" on="0"/>
        <pt x="365" y="53" on="0"/>
        <pt x="391" y="40" on="0"/>
        <pt x="415" y="40" on="1"/>
        <pt x="425" y="40" on="0"/>
        <pt x="439" y="36" on="0"/>
        <pt x="440" y="19" on="1"/>
        <pt x="440" y="11" on="0"/>
        <pt x="432" y="-3" on="0"/>
        <pt x="422" y="-3" on="1"/>
        <pt x="390" y="-1" on="0"/>
        <pt x="333" y="0" on="0"/>
        <pt x="304" y="0" on="1"/>
        <pt x="243" y="0" on="0"/>
        <pt x="179" y="-3" on="1"/>
        <pt x="169" y="-3" on="0"/>
        <pt x="161" y="11" on="0"/>
        <pt x="161" y="19" on="1"/>
        <pt x="162" y="36" on="0"/>
        <pt x="175" y="40" on="0"/>
        <pt x="186" y="40" on="1"/>
        <pt x="210" y="40" on="0"/>
        <pt x="236" y="53" on="0"/>
        <pt x="248" y="75" on="0"/>
        <pt x="251" y="103" on="0"/>
        <pt x="251" y="117" on="1"/>
        <pt x="251" y="594" on="1"/>
        <pt x="182" y="594" on="1"/>
        <pt x="156" y="593" on="0"/>
        <pt x="123" y="578" on="0"/>
        <pt x="102" y="546" on="0"/>
        <pt x="90" y="498" on="0"/>
        <pt x="85" y="464" on="1"/>
        <pt x="83" y="455" on="0"/>
        <pt x="61" y="446" on="0"/>
        <pt x="50" y="446" on="1"/>
        <pt x="42" y="446" on="0"/>
        <pt x="26" y="456" on="0"/>
        <pt x="26" y="466" on="1"/>
        <pt x="29" y="607" on="1"/>
        <pt x="29" y="621" on="0"/>
        <pt x="45" y="631" on="0"/>
        <pt x="56" y="631" on="1"/>
      </contour>
    </TTGlyph>
    <TTGlyph name="Thorn" xMin="42" yMin="-3" xMax="580" yMax="634">
      <contour>
        <pt x="231" y="117" on="1"/>
        <pt x="231" y="103" on="0"/>
        <pt x="234" y="75" on="0"/>
        <pt x="246" y="53" on="0"/>
        <pt x="272" y="40" on="0"/>
        <pt x="296" y="40" on="1"/>
        <pt x="307" y="40" on="0"/>
        <pt x="320" y="36" on="0"/>
        <pt x="322" y="19" on="1"/>
        <pt x="322" y="11" on="0"/>
        <pt x="313" y="-3" on="0"/>
        <pt x="304" y="-3" on="1"/>
        <pt x="239" y="0" on="0"/>
        <pt x="180" y="0" on="1"/>
        <pt x="150" y="0" on="0"/>
        <pt x="92" y="-1" on="0"/>
        <pt x="60" y="-3" on="1"/>
        <pt x="50" y="-3" on="0"/>
        <pt x="42" y="11" on="0"/>
        <pt x="42" y="19" on="1"/>
        <pt x="43" y="36" on="0"/>
        <pt x="57" y="40" on="0"/>
        <pt x="67" y="40" on="1"/>
        <pt x="91" y="40" on="0"/>
        <pt x="117" y="53" on="0"/>
        <pt x="129" y="75" on="0"/>
        <pt x="132" y="103" on="0"/>
        <pt x="133" y="117" on="1"/>
        <pt x="133" y="514" on="1"/>
        <pt x="132" y="528" on="0"/>
        <pt x="129" y="556" on="0"/>
        <pt x="117" y="578" on="0"/>
        <pt x="91" y="591" on="0"/>
        <pt x="67" y="591" on="1"/>
        <pt x="57" y="591" on="0"/>
        <pt x="43" y="595" on="0"/>
        <pt x="42" y="612" on="1"/>
        <pt x="42" y="620" on="0"/>
        <pt x="50" y="634" on="0"/>
        <pt x="60" y="634" on="1"/>
        <pt x="92" y="632" on="0"/>
        <pt x="149" y="631" on="0"/>
        <pt x="179" y="631" on="1"/>
        <pt x="239" y="631" on="0"/>
        <pt x="304" y="634" on="1"/>
        <pt x="313" y="634" on="0"/>
        <pt x="322" y="620" on="0"/>
        <pt x="322" y="612" on="1"/>
        <pt x="320" y="595" on="0"/>
        <pt x="307" y="591" on="0"/>
        <pt x="296" y="591" on="1"/>
        <pt x="274" y="591" on="0"/>
        <pt x="248" y="579" on="0"/>
        <pt x="235" y="560" on="0"/>
        <pt x="231" y="535" on="0"/>
        <pt x="231" y="522" on="1"/>
        <pt x="331" y="522" on="1"/>
        <pt x="361" y="522" on="0"/>
        <pt x="446" y="508" on="0"/>
        <pt x="524" y="469" on="0"/>
        <pt x="580" y="395" on="0"/>
        <pt x="580" y="335" on="1"/>
        <pt x="580" y="287" on="0"/>
        <pt x="537" y="213" on="0"/>
        <pt x="466" y="162" on="0"/>
        <pt x="376" y="135" on="0"/>
        <pt x="329" y="135" on="1"/>
        <pt x="303" y="135" on="0"/>
        <pt x="254" y="143" on="0"/>
        <pt x="231" y="152" on="1"/>
      </contour>
      <contour>
        <pt x="231" y="476" on="1"/>
        <pt x="231" y="191" on="1"/>
        <pt x="253" y="181" on="0"/>
        <pt x="302" y="181" on="1"/>
        <pt x="325" y="181" on="0"/>
        <pt x="383" y="193" on="0"/>
        <pt x="434" y="226" on="0"/>
        <pt x="469" y="285" on="0"/>
        <pt x="469" y="332" on="1"/>
        <pt x="469" y="380" on="0"/>
        <pt x="434" y="436" on="0"/>
        <pt x="383" y="466" on="0"/>
        <pt x="326" y="475" on="0"/>
        <pt x="303" y="476" on="1"/>
      </contour>
    </TTGlyph>
    <TTGlyph name="U" xMin="27" yMin="-20" xMax="702" yMax="634">
      <contour>
        <pt x="600" y="178" on="1"/>
        <pt x="600" y="125" on="0"/>
        <pt x="554" y="50" on="0"/>
        <pt x="483" y="2" on="0"/>
        <pt x="398" y="-20" on="0"/>
        <pt x="359" y="-20" on="1"/>
        <pt x="299" y="-20" on="0"/>
        <pt x="208" y="13" on="0"/>
        <pt x="148" y="67" on="0"/>
        <pt x="117" y="136" on="0"/>
        <pt x="117" y="173" on="1"/>
        <pt x="117" y="514" on="1"/>
        <pt x="117" y="528" on="0"/>
        <pt x="114" y="556" on="0"/>
        <pt x="102" y="578" on="0"/>
        <pt x="76" y="591" on="0"/>
        <pt x="52" y="591" on="1"/>
        <pt x="41" y="591" on="0"/>
        <pt x="28" y="595" on="0"/>
        <pt x="27" y="612" on="1"/>
        <pt x="27" y="620" on="0"/>
        <pt x="35" y="634" on="0"/>
        <pt x="45" y="634" on="1"/>
        <pt x="77" y="632" on="0"/>
        <pt x="133" y="631" on="0"/>
        <pt x="163" y="631" on="1"/>
        <pt x="223" y="631" on="0"/>
        <pt x="288" y="634" on="1"/>
        <pt x="298" y="634" on="0"/>
        <pt x="306" y="620" on="0"/>
        <pt x="306" y="612" on="1"/>
        <pt x="305" y="597" on="0"/>
        <pt x="295" y="591" on="0"/>
        <pt x="286" y="591" on="1"/>
        <pt x="260" y="591" on="0"/>
        <pt x="233" y="578" on="0"/>
        <pt x="219" y="557" on="0"/>
        <pt x="216" y="529" on="0"/>
        <pt x="216" y="514" on="1"/>
        <pt x="216" y="202" on="1"/>
        <pt x="216" y="176" on="0"/>
        <pt x="226" y="119" on="0"/>
        <pt x="259" y="71" on="0"/>
        <pt x="322" y="39" on="0"/>
        <pt x="375" y="39" on="1"/>
        <pt x="426" y="39" on="0"/>
        <pt x="491" y="65" on="0"/>
        <pt x="529" y="108" on="0"/>
        <pt x="544" y="161" on="0"/>
        <pt x="544" y="188" on="1"/>
        <pt x="544" y="451" on="1"/>
        <pt x="544" y="500" on="0"/>
        <pt x="539" y="556" on="0"/>
        <pt x="523" y="584" on="0"/>
        <pt x="492" y="591" on="0"/>
        <pt x="467" y="591" on="1"/>
        <pt x="457" y="591" on="0"/>
        <pt x="443" y="595" on="0"/>
        <pt x="442" y="612" on="1"/>
        <pt x="442" y="620" on="0"/>
        <pt x="450" y="634" on="0"/>
        <pt x="460" y="634" on="1"/>
        <pt x="492" y="632" on="0"/>
        <pt x="542" y="631" on="0"/>
        <pt x="572" y="631" on="1"/>
        <pt x="602" y="631" on="0"/>
        <pt x="652" y="632" on="0"/>
        <pt x="684" y="634" on="1"/>
        <pt x="694" y="634" on="0"/>
        <pt x="702" y="620" on="0"/>
        <pt x="702" y="612" on="1"/>
        <pt x="701" y="597" on="0"/>
        <pt x="691" y="591" on="0"/>
        <pt x="682" y="591" on="1"/>
        <pt x="655" y="591" on="0"/>
        <pt x="622" y="585" on="0"/>
        <pt x="605" y="559" on="0"/>
        <pt x="600" y="505" on="0"/>
        <pt x="600" y="457" on="1"/>
      </contour>
    </TTGlyph>
    <TTGlyph name="Uacute" xMin="27" yMin="-20" xMax="702" yMax="830">
      <component glyphName="U" x="0" y="0" flags="0x204"/>
      <component glyphName="acute.case" x="273" y="-10" flags="0x4"/>
    </TTGlyph>
    <TTGlyph name="Ucircumflex" xMin="27" yMin="-20" xMax="702" yMax="822">
      <component glyphName="U" x="0" y="0" flags="0x204"/>
      <component glyphName="circumflex.case" x="185" y="-10" flags="0x4"/>
    </TTGlyph>
    <TTGlyph name="Udieresis" xMin="27" yMin="-20" xMax="702" yMax="821">
      <component glyphName="U" x="0" y="0" flags="0x204"/>
      <component glyphName="dieresis.case" x="187" y="-10" flags="0x4"/>
    </TTGlyph>
    <TTGlyph name="Ugrave" xMin="27" yMin="-20" xMax="702" yMax="830">
      <component glyphName="U" x="0" y="0" flags="0x204"/>
      <component glyphName="grave.case" x="176" y="-10" flags="0x4"/>
    </TTGlyph>
    <TTGlyph name="V" xMin="9" yMin="-10" xMax="667" yMax="636">
      <contour>
        <pt x="498" y="542" on="1"/>
        <pt x="509" y="574" on="0"/>
        <pt x="489" y="591" on="0"/>
        <pt x="454" y="591" on="1"/>
        <pt x="443" y="591" on="0"/>
        <pt x="430" y="595" on="0"/>
        <pt x="429" y="612" on="1"/>
        <pt x="429" y="620" on="0"/>
        <pt x="437" y="634" on="0"/>
        <pt x="446" y="634" on="1"/>
        <pt x="478" y="632" on="0"/>
        <pt x="525" y="631" on="0"/>
        <pt x="555" y="631" on="1"/>
        <pt x="570" y="631" on="0"/>
        <pt x="591" y="631" on="0"/>
        <pt x="611" y="632" on="0"/>
        <pt x="633" y="633" on="0"/>
        <pt x="649" y="634" on="1"/>
        <pt x="659" y="634" on="0"/>
        <pt x="667" y="620" on="0"/>
        <pt x="667" y="612" on="1"/>
        <pt x="666" y="595" on="0"/>
        <pt x="653" y="591" on="0"/>
        <pt x="642" y="591" on="1"/>
        <pt x="604" y="591" on="0"/>
        <pt x="560" y="563" on="0"/>
        <pt x="544" y="523" on="1"/>
        <pt x="544" y="523" on="0"/>
        <pt x="527" y="478" on="0"/>
        <pt x="500" y="404" on="0"/>
        <pt x="465" y="308" on="0"/>
        <pt x="447" y="258" on="1"/>
        <pt x="351" y="-10" on="1"/>
        <pt x="304" y="-10" on="1"/>
        <pt x="250" y="137" on="0"/>
        <pt x="209" y="251" on="1"/>
        <pt x="191" y="300" on="0"/>
        <pt x="157" y="393" on="0"/>
        <pt x="130" y="466" on="0"/>
        <pt x="114" y="510" on="0"/>
        <pt x="114" y="510" on="1"/>
        <pt x="106" y="530" on="0"/>
        <pt x="91" y="559" on="0"/>
        <pt x="73" y="578" on="0"/>
        <pt x="50" y="590" on="0"/>
        <pt x="34" y="593" on="1"/>
        <pt x="20" y="596" on="0"/>
        <pt x="9" y="600" on="0"/>
        <pt x="9" y="616" on="1"/>
        <pt x="9" y="633" on="0"/>
        <pt x="32" y="636" on="0"/>
        <pt x="49" y="636" on="1"/>
        <pt x="116" y="635" on="0"/>
        <pt x="189" y="588" on="0"/>
        <pt x="212" y="531" on="1"/>
        <pt x="357" y="141" on="1"/>
        <pt x="360" y="141" on="1"/>
      </contour>
    </TTGlyph>
    <TTGlyph name="W" xMin="8" yMin="-10" xMax="951" yMax="636">
      <contour>
        <pt x="33" y="593" on="1"/>
        <pt x="19" y="596" on="0"/>
        <pt x="8" y="600" on="0"/>
        <pt x="8" y="616" on="1"/>
        <pt x="8" y="633" on="0"/>
        <pt x="31" y="636" on="0"/>
        <pt x="48" y="636" on="1"/>
        <pt x="115" y="635" on="0"/>
        <pt x="188" y="588" on="0"/>
        <pt x="211" y="531" on="1"/>
        <pt x="325" y="165" on="1"/>
        <pt x="329" y="165" on="1"/>
        <pt x="451" y="631" on="1"/>
        <pt x="503" y="631" on="1"/>
        <pt x="666" y="165" on="1"/>
        <pt x="669" y="165" on="1"/>
        <pt x="782" y="542" on="1"/>
        <pt x="790" y="574" on="0"/>
        <pt x="773" y="591" on="0"/>
        <pt x="738" y="591" on="1"/>
        <pt x="727" y="591" on="0"/>
        <pt x="714" y="595" on="0"/>
        <pt x="713" y="612" on="1"/>
        <pt x="713" y="620" on="0"/>
        <pt x="721" y="634" on="0"/>
        <pt x="730" y="634" on="1"/>
        <pt x="762" y="632" on="0"/>
        <pt x="809" y="631" on="0"/>
        <pt x="839" y="631" on="1"/>
        <pt x="854" y="631" on="0"/>
        <pt x="875" y="631" on="0"/>
        <pt x="895" y="632" on="0"/>
        <pt x="917" y="633" on="0"/>
        <pt x="933" y="634" on="1"/>
        <pt x="943" y="634" on="0"/>
        <pt x="951" y="620" on="0"/>
        <pt x="951" y="612" on="1"/>
        <pt x="950" y="595" on="0"/>
        <pt x="937" y="591" on="0"/>
        <pt x="926" y="591" on="1"/>
        <pt x="888" y="591" on="0"/>
        <pt x="839" y="562" on="0"/>
        <pt x="828" y="523" on="1"/>
        <pt x="664" y="-10" on="1"/>
        <pt x="617" y="-10" on="1"/>
        <pt x="455" y="467" on="1"/>
        <pt x="326" y="-10" on="1"/>
        <pt x="279" y="-10" on="1"/>
        <pt x="113" y="510" on="1"/>
        <pt x="105" y="530" on="0"/>
        <pt x="90" y="559" on="0"/>
        <pt x="72" y="578" on="0"/>
        <pt x="49" y="590" on="0"/>
      </contour>
    </TTGlyph>
    <TTGlyph name="X" xMin="7" yMin="-3" xMax="659" yMax="636">
      <contour>
        <pt x="543" y="109" on="1"/>
        <pt x="560" y="84" on="0"/>
        <pt x="601" y="40" on="0"/>
        <pt x="634" y="40" on="1"/>
        <pt x="645" y="40" on="0"/>
        <pt x="658" y="36" on="0"/>
        <pt x="659" y="19" on="1"/>
        <pt x="659" y="11" on="0"/>
        <pt x="651" y="-3" on="0"/>
        <pt x="642" y="-3" on="1"/>
        <pt x="610" y="-1" on="0"/>
        <pt x="552" y="0" on="0"/>
        <pt x="522" y="0" on="1"/>
        <pt x="464" y="0" on="0"/>
        <pt x="400" y="-3" on="1"/>
        <pt x="390" y="-3" on="0"/>
        <pt x="382" y="11" on="0"/>
        <pt x="382" y="19" on="1"/>
        <pt x="383" y="36" on="0"/>
        <pt x="397" y="40" on="0"/>
        <pt x="407" y="40" on="1"/>
        <pt x="437" y="40" on="0"/>
        <pt x="453" y="70" on="0"/>
        <pt x="439" y="89" on="1"/>
        <pt x="311" y="272" on="1"/>
        <pt x="183" y="89" on="1"/>
        <pt x="172" y="73" on="0"/>
        <pt x="170" y="54" on="0"/>
        <pt x="183" y="43" on="0"/>
        <pt x="210" y="40" on="0"/>
        <pt x="227" y="40" on="1"/>
        <pt x="238" y="40" on="0"/>
        <pt x="251" y="36" on="0"/>
        <pt x="252" y="19" on="1"/>
        <pt x="252" y="11" on="0"/>
        <pt x="244" y="-3" on="0"/>
        <pt x="235" y="-3" on="1"/>
        <pt x="203" y="-1" on="0"/>
        <pt x="156" y="0" on="0"/>
        <pt x="126" y="0" on="1"/>
        <pt x="111" y="0" on="0"/>
        <pt x="88" y="0" on="0"/>
        <pt x="65" y="-1" on="0"/>
        <pt x="41" y="-2" on="0"/>
        <pt x="25" y="-3" on="1"/>
        <pt x="15" y="-3" on="0"/>
        <pt x="7" y="11" on="0"/>
        <pt x="7" y="19" on="1"/>
        <pt x="8" y="36" on="0"/>
        <pt x="21" y="40" on="0"/>
        <pt x="32" y="40" on="1"/>
        <pt x="51" y="40" on="0"/>
        <pt x="78" y="47" on="0"/>
        <pt x="101" y="62" on="0"/>
        <pt x="123" y="88" on="0"/>
        <pt x="137" y="108" on="1"/>
        <pt x="282" y="314" on="1"/>
        <pt x="154" y="515" on="1"/>
        <pt x="129" y="553" on="0"/>
        <pt x="83" y="586" on="0"/>
        <pt x="51" y="593" on="1"/>
        <pt x="37" y="596" on="0"/>
        <pt x="26" y="600" on="0"/>
        <pt x="26" y="616" on="1"/>
        <pt x="26" y="633" on="0"/>
        <pt x="49" y="636" on="0"/>
        <pt x="66" y="636" on="1"/>
        <pt x="101" y="636" on="0"/>
        <pt x="156" y="625" on="0"/>
        <pt x="201" y="600" on="0"/>
        <pt x="239" y="560" on="0"/>
        <pt x="259" y="532" on="1"/>
        <pt x="341" y="398" on="1"/>
        <pt x="440" y="542" on="1"/>
        <pt x="451" y="558" on="0"/>
        <pt x="453" y="578" on="0"/>
        <pt x="439" y="588" on="0"/>
        <pt x="413" y="591" on="0"/>
        <pt x="396" y="591" on="1"/>
        <pt x="385" y="591" on="0"/>
        <pt x="372" y="595" on="0"/>
        <pt x="371" y="612" on="1"/>
        <pt x="371" y="620" on="0"/>
        <pt x="379" y="634" on="0"/>
        <pt x="388" y="634" on="1"/>
        <pt x="420" y="632" on="0"/>
        <pt x="467" y="631" on="0"/>
        <pt x="497" y="631" on="1"/>
        <pt x="512" y="631" on="0"/>
        <pt x="535" y="631" on="0"/>
        <pt x="558" y="632" on="0"/>
        <pt x="582" y="633" on="0"/>
        <pt x="598" y="634" on="1"/>
        <pt x="608" y="634" on="0"/>
        <pt x="616" y="620" on="0"/>
        <pt x="616" y="612" on="1"/>
        <pt x="615" y="595" on="0"/>
        <pt x="602" y="591" on="0"/>
        <pt x="591" y="591" on="1"/>
        <pt x="572" y="591" on="0"/>
        <pt x="544" y="584" on="0"/>
        <pt x="521" y="569" on="0"/>
        <pt x="499" y="542" on="0"/>
        <pt x="486" y="523" on="1"/>
        <pt x="369" y="357" on="1"/>
        <pt x="543" y="109" on="1"/>
      </contour>
    </TTGlyph>
    <TTGlyph name="Y" xMin="4" yMin="-3" xMax="631" yMax="636">
      <contour>
        <pt x="236" y="532" on="1"/>
        <pt x="265" y="478" on="0"/>
        <pt x="312" y="377" on="0"/>
        <pt x="341" y="323" on="1"/>
        <pt x="344" y="323" on="1"/>
        <pt x="455" y="542" on="1"/>
        <pt x="464" y="559" on="0"/>
        <pt x="465" y="578" on="0"/>
        <pt x="453" y="588" on="0"/>
        <pt x="428" y="591" on="0"/>
        <pt x="411" y="591" on="1"/>
        <pt x="400" y="591" on="0"/>
        <pt x="387" y="595" on="0"/>
        <pt x="386" y="612" on="1"/>
        <pt x="386" y="620" on="0"/>
        <pt x="394" y="634" on="0"/>
        <pt x="403" y="634" on="1"/>
        <pt x="435" y="632" on="0"/>
        <pt x="482" y="631" on="0"/>
        <pt x="512" y="631" on="1"/>
        <pt x="527" y="631" on="0"/>
        <pt x="550" y="631" on="0"/>
        <pt x="573" y="632" on="0"/>
        <pt x="597" y="633" on="0"/>
        <pt x="613" y="634" on="1"/>
        <pt x="623" y="634" on="0"/>
        <pt x="631" y="620" on="0"/>
        <pt x="631" y="612" on="1"/>
        <pt x="630" y="595" on="0"/>
        <pt x="617" y="591" on="0"/>
        <pt x="606" y="591" on="1"/>
        <pt x="568" y="591" on="0"/>
        <pt x="520" y="558" on="0"/>
        <pt x="501" y="523" on="1"/>
        <pt x="388" y="310" on="1"/>
        <pt x="381" y="295" on="0"/>
        <pt x="371" y="275" on="0"/>
        <pt x="364" y="255" on="0"/>
        <pt x="361" y="231" on="0"/>
        <pt x="361" y="214" on="1"/>
        <pt x="361" y="117" on="1"/>
        <pt x="361" y="103" on="0"/>
        <pt x="364" y="75" on="0"/>
        <pt x="376" y="53" on="0"/>
        <pt x="402" y="40" on="0"/>
        <pt x="426" y="40" on="1"/>
        <pt x="437" y="40" on="0"/>
        <pt x="450" y="36" on="0"/>
        <pt x="451" y="19" on="1"/>
        <pt x="451" y="11" on="0"/>
        <pt x="443" y="-3" on="0"/>
        <pt x="434" y="-3" on="1"/>
        <pt x="402" y="-1" on="0"/>
        <pt x="344" y="0" on="0"/>
        <pt x="314" y="0" on="1"/>
        <pt x="254" y="0" on="0"/>
        <pt x="190" y="-3" on="1"/>
        <pt x="180" y="-3" on="0"/>
        <pt x="172" y="11" on="0"/>
        <pt x="172" y="19" on="1"/>
        <pt x="173" y="36" on="0"/>
        <pt x="187" y="40" on="0"/>
        <pt x="197" y="40" on="1"/>
        <pt x="221" y="40" on="0"/>
        <pt x="247" y="53" on="0"/>
        <pt x="259" y="75" on="0"/>
        <pt x="262" y="103" on="0"/>
        <pt x="262" y="117" on="1"/>
        <pt x="262" y="242" on="1"/>
        <pt x="262" y="248" on="0"/>
        <pt x="247" y="286" on="0"/>
        <pt x="223" y="338" on="0"/>
        <pt x="193" y="398" on="0"/>
        <pt x="164" y="455" on="0"/>
        <pt x="139" y="502" on="0"/>
        <pt x="132" y="515" on="1"/>
        <pt x="111" y="553" on="0"/>
        <pt x="61" y="586" on="0"/>
        <pt x="29" y="593" on="1"/>
        <pt x="15" y="596" on="0"/>
        <pt x="4" y="600" on="0"/>
        <pt x="4" y="616" on="1"/>
        <pt x="4" y="633" on="0"/>
        <pt x="27" y="636" on="0"/>
        <pt x="44" y="636" on="1"/>
        <pt x="79" y="636" on="0"/>
        <pt x="135" y="626" on="0"/>
        <pt x="181" y="602" on="0"/>
        <pt x="219" y="562" on="0"/>
      </contour>
    </TTGlyph>
    <TTGlyph name="Yacute" xMin="4" yMin="-3" xMax="631" yMax="830">
      <component glyphName="Y" x="0" y="0" flags="0x204"/>
      <component glyphName="acute.case" x="199" y="-10" flags="0x4"/>
    </TTGlyph>
    <TTGlyph name="Z" xMin="34" yMin="-3" xMax="582" yMax="634">
      <contour>
        <pt x="358" y="515" on="1"/>
        <pt x="371" y="543" on="0"/>
        <pt x="379" y="574" on="0"/>
        <pt x="368" y="588" on="0"/>
        <pt x="341" y="591" on="0"/>
        <pt x="319" y="591" on="1"/>
        <pt x="210" y="591" on="1"/>
        <pt x="184" y="590" on="0"/>
        <pt x="152" y="579" on="0"/>
        <pt x="130" y="552" on="0"/>
        <pt x="113" y="508" on="0"/>
        <pt x="103" y="475" on="1"/>
        <pt x="100" y="465" on="0"/>
        <pt x="81" y="459" on="0"/>
        <pt x="70" y="461" on="1"/>
        <pt x="62" y="463" on="0"/>
        <pt x="48" y="474" on="0"/>
        <pt x="49" y="484" on="1"/>
        <pt x="69" y="610" on="1"/>
        <pt x="72" y="624" on="0"/>
        <pt x="85" y="631" on="0"/>
        <pt x="98" y="631" on="1"/>
        <pt x="441" y="631" on="1"/>
        <pt x="499" y="631" on="0"/>
        <pt x="564" y="634" on="1"/>
        <pt x="574" y="634" on="0"/>
        <pt x="582" y="620" on="0"/>
        <pt x="582" y="612" on="1"/>
        <pt x="581" y="595" on="0"/>
        <pt x="568" y="592" on="0"/>
        <pt x="557" y="591" on="1"/>
        <pt x="539" y="590" on="0"/>
        <pt x="511" y="575" on="0"/>
        <pt x="490" y="554" on="0"/>
        <pt x="475" y="528" on="0"/>
        <pt x="468" y="515" on="1"/>
        <pt x="249" y="100" on="1"/>
        <pt x="245" y="91" on="0"/>
        <pt x="239" y="70" on="0"/>
        <pt x="245" y="52" on="0"/>
        <pt x="268" y="40" on="0"/>
        <pt x="294" y="40" on="1"/>
        <pt x="412" y="40" on="1"/>
        <pt x="438" y="41" on="0"/>
        <pt x="471" y="52" on="0"/>
        <pt x="493" y="79" on="0"/>
        <pt x="510" y="123" on="0"/>
        <pt x="520" y="156" on="1"/>
        <pt x="523" y="166" on="0"/>
        <pt x="542" y="172" on="0"/>
        <pt x="553" y="170" on="1"/>
        <pt x="561" y="168" on="0"/>
        <pt x="575" y="157" on="0"/>
        <pt x="574" y="147" on="1"/>
        <pt x="554" y="21" on="1"/>
        <pt x="551" y="7" on="0"/>
        <pt x="538" y="0" on="0"/>
        <pt x="525" y="0" on="1"/>
        <pt x="172" y="0" on="1"/>
        <pt x="142" y="0" on="0"/>
        <pt x="84" y="-1" on="0"/>
        <pt x="52" y="-3" on="1"/>
        <pt x="43" y="-3" on="0"/>
        <pt x="34" y="11" on="0"/>
        <pt x="34" y="19" on="1"/>
        <pt x="36" y="36" on="0"/>
        <pt x="49" y="40" on="0"/>
        <pt x="60" y="40" on="1"/>
        <pt x="72" y="40" on="0"/>
        <pt x="90" y="44" on="0"/>
        <pt x="107" y="56" on="0"/>
        <pt x="123" y="80" on="0"/>
        <pt x="134" y="100" on="1"/>
      </contour>
    </TTGlyph>
    <TTGlyph name="a" xMin="34" yMin="-12" xMax="481" yMax="465">
      <contour>
        <pt x="223" y="436" on="1"/>
        <pt x="194" y="436" on="0"/>
        <pt x="146" y="400" on="0"/>
        <pt x="146" y="366" on="1"/>
        <pt x="146" y="354" on="0"/>
        <pt x="156" y="335" on="0"/>
        <pt x="168" y="323" on="0"/>
        <pt x="178" y="315" on="0"/>
        <pt x="178" y="314" on="1"/>
        <pt x="178" y="309" on="0"/>
        <pt x="155" y="289" on="0"/>
        <pt x="135" y="289" on="1"/>
        <pt x="103" y="289" on="0"/>
        <pt x="70" y="335" on="0"/>
        <pt x="70" y="363" on="1"/>
        <pt x="70" y="391" on="0"/>
        <pt x="98" y="430" on="0"/>
        <pt x="143" y="454" on="0"/>
        <pt x="200" y="465" on="0"/>
        <pt x="229" y="465" on="1"/>
        <pt x="263" y="465" on="0"/>
        <pt x="329" y="454" on="0"/>
        <pt x="381" y="422" on="0"/>
        <pt x="414" y="365" on="0"/>
        <pt x="414" y="319" on="1"/>
        <pt x="414" y="86" on="1"/>
        <pt x="414" y="78" on="0"/>
        <pt x="419" y="58" on="0"/>
        <pt x="431" y="40" on="0"/>
        <pt x="451" y="27" on="0"/>
        <pt x="466" y="27" on="1"/>
        <pt x="473" y="27" on="0"/>
        <pt x="481" y="22" on="0"/>
        <pt x="481" y="11" on="1"/>
        <pt x="481" y="4" on="0"/>
        <pt x="469" y="-5" on="0"/>
        <pt x="451" y="-10" on="0"/>
        <pt x="432" y="-12" on="0"/>
        <pt x="426" y="-12" on="1"/>
        <pt x="389" y="-12" on="0"/>
        <pt x="331" y="31" on="0"/>
        <pt x="326" y="69" on="1"/>
        <pt x="315" y="49" on="0"/>
        <pt x="275" y="19" on="0"/>
        <pt x="228" y="-2" on="0"/>
        <pt x="179" y="-12" on="0"/>
        <pt x="158" y="-12" on="1"/>
        <pt x="132" y="-12" on="0"/>
        <pt x="87" y="7" on="0"/>
        <pt x="54" y="39" on="0"/>
        <pt x="34" y="82" on="0"/>
        <pt x="34" y="107" on="1"/>
        <pt x="34" y="143" on="0"/>
        <pt x="69" y="193" on="0"/>
        <pt x="123" y="225" on="0"/>
        <pt x="190" y="243" on="0"/>
        <pt x="255" y="252" on="0"/>
        <pt x="310" y="255" on="0"/>
        <pt x="326" y="257" on="1"/>
        <pt x="326" y="336" on="1"/>
        <pt x="326" y="383" on="0"/>
        <pt x="280" y="436" on="0"/>
      </contour>
      <contour>
        <pt x="326" y="227" on="1"/>
        <pt x="278" y="221" on="0"/>
        <pt x="206" y="205" on="0"/>
        <pt x="159" y="181" on="0"/>
        <pt x="135" y="145" on="0"/>
        <pt x="135" y="120" on="1"/>
        <pt x="135" y="88" on="0"/>
        <pt x="171" y="42" on="0"/>
        <pt x="200" y="42" on="1"/>
        <pt x="225" y="42" on="0"/>
        <pt x="271" y="62" on="0"/>
        <pt x="306" y="96" on="0"/>
        <pt x="326" y="144" on="0"/>
        <pt x="326" y="171" on="1"/>
      </contour>
    </TTGlyph>
    <TTGlyph name="aacute" xMin="34" yMin="-12" xMax="481" yMax="702">
      <component glyphName="a" x="0" y="0" flags="0x204"/>
      <component glyphName="acute" x="166" y="0" flags="0x4"/>
    </TTGlyph>
    <TTGlyph name="acircumflex" xMin="34" yMin="-12" xMax="481" yMax="710">
      <component glyphName="a" x="0" y="0" flags="0x204"/>
      <component glyphName="circumflex" x="35" y="0" flags="0x4"/>
    </TTGlyph>
    <TTGlyph name="acute" xMin="37" yMin="506" xMax="195" yMax="702">
      <contour>
        <pt x="85" y="518" on="1"/>
        <pt x="74" y="506" on="0"/>
        <pt x="61" y="506" on="1"/>
        <pt x="51" y="506" on="0"/>
        <pt x="37" y="517" on="0"/>
        <pt x="37" y="528" on="1"/>
        <pt x="37" y="535" on="0"/>
        <pt x="41" y="542" on="1"/>
        <pt x="116" y="679" on="1"/>
        <pt x="127" y="702" on="0"/>
        <pt x="152" y="702" on="1"/>
        <pt x="170" y="702" on="0"/>
        <pt x="195" y="675" on="0"/>
        <pt x="195" y="660" on="1"/>
        <pt x="195" y="646" on="0"/>
        <pt x="187" y="637" on="1"/>
      </contour>
    </TTGlyph>
    <TTGlyph name="acute.case" xMin="49" yMin="681" xMax="244" yMax="840">
      <contour>
        <pt x="83" y="683" on="1"/>
        <pt x="80" y="681" on="0"/>
        <pt x="74" y="681" on="1"/>
        <pt x="63" y="681" on="0"/>
        <pt x="49" y="696" on="0"/>
        <pt x="49" y="705" on="1"/>
        <pt x="49" y="712" on="0"/>
        <pt x="69" y="733" on="0"/>
        <pt x="100" y="763" on="0"/>
        <pt x="137" y="797" on="0"/>
        <pt x="172" y="825" on="0"/>
        <pt x="200" y="840" on="0"/>
        <pt x="207" y="840" on="1"/>
        <pt x="219" y="840" on="0"/>
        <pt x="244" y="816" on="0"/>
        <pt x="244" y="802" on="1"/>
        <pt x="244" y="787" on="0"/>
        <pt x="209" y="757" on="0"/>
        <pt x="158" y="726" on="0"/>
        <pt x="103" y="693" on="0"/>
      </contour>
    </TTGlyph>
    <TTGlyph name="adieresis" xMin="34" yMin="-12" xMax="481" yMax="667">
      <component glyphName="a" x="0" y="0" flags="0x204"/>
      <component glyphName="dieresis" x="36" y="0" flags="0x4"/>
    </TTGlyph>
    <TTGlyph name="ae" xMin="34" yMin="-12" xMax="736" yMax="465">
      <contour>
        <pt x="388" y="408" on="1"/>
        <pt x="416" y="434" on="0"/>
        <pt x="490" y="465" on="0"/>
        <pt x="535" y="465" on="1"/>
        <pt x="581" y="465" on="0"/>
        <pt x="650" y="440" on="0"/>
        <pt x="697" y="395" on="0"/>
        <pt x="724" y="333" on="0"/>
        <pt x="727" y="297" on="1"/>
        <pt x="727" y="262" on="0"/>
        <pt x="688" y="240" on="0"/>
        <pt x="657" y="240" on="1"/>
        <pt x="414" y="240" on="1"/>
        <pt x="414" y="196" on="0"/>
        <pt x="432" y="122" on="0"/>
        <pt x="470" y="68" on="0"/>
        <pt x="530" y="38" on="0"/>
        <pt x="572" y="38" on="1"/>
        <pt x="614" y="38" on="0"/>
        <pt x="674" y="74" on="0"/>
        <pt x="702" y="119" on="1"/>
        <pt x="710" y="129" on="0"/>
        <pt x="724" y="120" on="1"/>
        <pt x="732" y="115" on="0"/>
        <pt x="736" y="99" on="0"/>
        <pt x="732" y="93" on="1"/>
        <pt x="701" y="44" on="0"/>
        <pt x="607" y="-12" on="0"/>
        <pt x="546" y="-12" on="1"/>
        <pt x="471" y="-12" on="0"/>
        <pt x="370" y="49" on="0"/>
        <pt x="343" y="99" on="1"/>
        <pt x="338" y="89" on="0"/>
        <pt x="327" y="70" on="0"/>
        <pt x="321" y="61" on="1"/>
        <pt x="309" y="43" on="0"/>
        <pt x="269" y="16" on="0"/>
        <pt x="224" y="-3" on="0"/>
        <pt x="177" y="-12" on="0"/>
        <pt x="158" y="-12" on="1"/>
        <pt x="132" y="-12" on="0"/>
        <pt x="87" y="7" on="0"/>
        <pt x="54" y="39" on="0"/>
        <pt x="34" y="82" on="0"/>
        <pt x="34" y="107" on="1"/>
        <pt x="34" y="143" on="0"/>
        <pt x="69" y="193" on="0"/>
        <pt x="123" y="225" on="0"/>
        <pt x="190" y="243" on="0"/>
        <pt x="255" y="252" on="0"/>
        <pt x="310" y="255" on="0"/>
        <pt x="326" y="257" on="1"/>
        <pt x="326" y="336" on="1"/>
        <pt x="326" y="383" on="0"/>
        <pt x="280" y="436" on="0"/>
        <pt x="223" y="436" on="1"/>
        <pt x="194" y="436" on="0"/>
        <pt x="146" y="400" on="0"/>
        <pt x="146" y="366" on="1"/>
        <pt x="146" y="354" on="0"/>
        <pt x="156" y="335" on="0"/>
        <pt x="168" y="323" on="0"/>
        <pt x="178" y="315" on="0"/>
        <pt x="178" y="314" on="1"/>
        <pt x="178" y="309" on="0"/>
        <pt x="155" y="289" on="0"/>
        <pt x="135" y="289" on="1"/>
        <pt x="103" y="289" on="0"/>
        <pt x="70" y="335" on="0"/>
        <pt x="70" y="363" on="1"/>
        <pt x="70" y="391" on="0"/>
        <pt x="98" y="430" on="0"/>
        <pt x="143" y="454" on="0"/>
        <pt x="200" y="465" on="0"/>
        <pt x="229" y="465" on="1"/>
        <pt x="275" y="465" on="0"/>
        <pt x="362" y="443" on="0"/>
      </contour>
      <contour>
        <pt x="326" y="227" on="1"/>
        <pt x="278" y="221" on="0"/>
        <pt x="206" y="205" on="0"/>
        <pt x="159" y="181" on="0"/>
        <pt x="135" y="145" on="0"/>
        <pt x="135" y="120" on="1"/>
        <pt x="135" y="88" on="0"/>
        <pt x="171" y="42" on="0"/>
        <pt x="200" y="42" on="1"/>
        <pt x="225" y="42" on="0"/>
        <pt x="271" y="62" on="0"/>
        <pt x="306" y="96" on="0"/>
        <pt x="326" y="144" on="0"/>
        <pt x="326" y="171" on="1"/>
      </contour>
      <contour>
        <pt x="577" y="278" on="1"/>
        <pt x="601" y="278" on="0"/>
        <pt x="629" y="297" on="0"/>
        <pt x="631" y="320" on="1"/>
        <pt x="631" y="341" on="0"/>
        <pt x="619" y="381" on="0"/>
        <pt x="595" y="412" on="0"/>
        <pt x="559" y="430" on="0"/>
        <pt x="535" y="430" on="1"/>
        <pt x="484" y="430" on="0"/>
        <pt x="418" y="350" on="0"/>
        <pt x="414" y="278" on="1"/>
      </contour>
    </TTGlyph>
    <TTGlyph name="agrave" xMin="34" yMin="-12" xMax="481" yMax="702">
      <component glyphName="a" x="0" y="0" flags="0x204"/>
      <component glyphName="grave" x="72" y="0" flags="0x4"/>
    </TTGlyph>
    <TTGlyph name="ampersand" xMin="41" yMin="-21" xMax="864" yMax="727">
      <contour>
        <pt x="649" y="285" on="1"/>
        <pt x="649" y="312" on="0"/>
        <pt x="633" y="364" on="0"/>
        <pt x="603" y="404" on="0"/>
        <pt x="558" y="429" on="0"/>
        <pt x="529" y="429" on="1"/>
        <pt x="517" y="429" on="0"/>
        <pt x="487" y="421" on="0"/>
        <pt x="461" y="405" on="0"/>
        <pt x="444" y="380" on="0"/>
        <pt x="445" y="363" on="1"/>
        <pt x="446" y="349" on="0"/>
        <pt x="462" y="327" on="0"/>
        <pt x="479" y="324" on="1"/>
        <pt x="492" y="322" on="0"/>
        <pt x="513" y="330" on="0"/>
        <pt x="528" y="339" on="0"/>
        <pt x="537" y="348" on="0"/>
        <pt x="539" y="348" on="1"/>
        <pt x="544" y="347" on="0"/>
        <pt x="561" y="319" on="0"/>
        <pt x="558" y="298" on="1"/>
        <pt x="554" y="271" on="0"/>
        <pt x="515" y="242" on="0"/>
        <pt x="488" y="242" on="1"/>
        <pt x="450" y="242" on="0"/>
        <pt x="404" y="303" on="0"/>
        <pt x="404" y="351" on="1"/>
        <pt x="404" y="403" on="0"/>
        <pt x="444" y="468" on="0"/>
        <pt x="507" y="507" on="0"/>
        <pt x="588" y="526" on="0"/>
        <pt x="670" y="536" on="0"/>
        <pt x="746" y="545" on="0"/>
        <pt x="774" y="554" on="1"/>
        <pt x="796" y="562" on="0"/>
        <pt x="826" y="591" on="0"/>
        <pt x="825" y="611" on="1"/>
        <pt x="824" y="623" on="0"/>
        <pt x="808" y="641" on="0"/>
        <pt x="788" y="644" on="1"/>
        <pt x="775" y="645" on="0"/>
        <pt x="754" y="638" on="0"/>
        <pt x="739" y="629" on="0"/>
        <pt x="729" y="620" on="0"/>
        <pt x="728" y="620" on="1"/>
        <pt x="723" y="621" on="0"/>
        <pt x="706" y="649" on="0"/>
        <pt x="709" y="670" on="1"/>
        <pt x="712" y="690" on="0"/>
        <pt x="735" y="715" on="0"/>
        <pt x="766" y="727" on="0"/>
        <pt x="801" y="726" on="0"/>
        <pt x="817" y="719" on="1"/>
        <pt x="844" y="706" on="0"/>
        <pt x="864" y="653" on="0"/>
        <pt x="863" y="627" on="1"/>
        <pt x="862" y="586" on="0"/>
        <pt x="821" y="521" on="0"/>
        <pt x="751" y="476" on="0"/>
        <pt x="659" y="453" on="0"/>
        <pt x="608" y="453" on="1"/>
        <pt x="650" y="418" on="0"/>
        <pt x="694" y="335" on="0"/>
        <pt x="694" y="284" on="1"/>
        <pt x="694" y="212" on="0"/>
        <pt x="641" y="99" on="0"/>
        <pt x="548" y="20" on="0"/>
        <pt x="423" y="-21" on="0"/>
        <pt x="351" y="-20" on="1"/>
        <pt x="292" y="-19" on="0"/>
        <pt x="180" y="12" on="0"/>
        <pt x="93" y="77" on="0"/>
        <pt x="41" y="177" on="0"/>
        <pt x="41" y="246" on="1"/>
        <pt x="41" y="281" on="0"/>
        <pt x="62" y="346" on="0"/>
        <pt x="103" y="399" on="0"/>
        <pt x="165" y="435" on="0"/>
        <pt x="206" y="442" on="1"/>
        <pt x="206" y="445" on="1"/>
        <pt x="173" y="470" on="0"/>
        <pt x="143" y="528" on="0"/>
        <pt x="143" y="562" on="1"/>
        <pt x="143" y="628" on="0"/>
        <pt x="238" y="708" on="0"/>
        <pt x="323" y="708" on="1"/>
        <pt x="350" y="708" on="0"/>
        <pt x="402" y="696" on="0"/>
        <pt x="441" y="670" on="0"/>
        <pt x="465" y="631" on="0"/>
        <pt x="465" y="604" on="1"/>
        <pt x="465" y="574" on="0"/>
        <pt x="430" y="526" on="0"/>
        <pt x="397" y="526" on="1"/>
        <pt x="375" y="526" on="0"/>
        <pt x="351" y="548" on="0"/>
        <pt x="351" y="553" on="1"/>
        <pt x="351" y="554" on="0"/>
        <pt x="361" y="562" on="0"/>
        <pt x="374" y="576" on="0"/>
        <pt x="384" y="595" on="0"/>
        <pt x="384" y="608" on="1"/>
        <pt x="384" y="638" on="0"/>
        <pt x="342" y="672" on="0"/>
        <pt x="312" y="672" on="1"/>
        <pt x="261" y="672" on="0"/>
        <pt x="211" y="611" on="0"/>
        <pt x="211" y="571" on="1"/>
        <pt x="211" y="498" on="0"/>
        <pt x="272" y="465" on="1"/>
        <pt x="305" y="465" on="1"/>
        <pt x="317" y="465" on="0"/>
        <pt x="332" y="461" on="0"/>
        <pt x="333" y="441" on="1"/>
        <pt x="333" y="432" on="0"/>
        <pt x="324" y="417" on="0"/>
        <pt x="314" y="417" on="1"/>
        <pt x="279" y="417" on="1"/>
        <pt x="244" y="414" on="0"/>
        <pt x="195" y="385" on="0"/>
        <pt x="162" y="342" on="0"/>
        <pt x="147" y="289" on="0"/>
        <pt x="147" y="262" on="1"/>
        <pt x="147" y="213" on="0"/>
        <pt x="182" y="134" on="0"/>
        <pt x="244" y="79" on="0"/>
        <pt x="331" y="50" on="0"/>
        <pt x="382" y="50" on="1"/>
        <pt x="437" y="50" on="0"/>
        <pt x="534" y="85" on="0"/>
        <pt x="607" y="147" on="0"/>
        <pt x="649" y="234" on="0"/>
      </contour>
    </TTGlyph>
    <TTGlyph name="aring" xMin="34" yMin="-12" xMax="481" yMax="700">
      <component glyphName="a" x="0" y="0" flags="0x204"/>
      <component glyphName="ring" x="76" y="-18" flags="0x4"/>
    </TTGlyph>
    <TTGlyph name="asciicircum" xMin="31" yMin="379" xMax="474" yMax="728">
      <contour>
        <pt x="227" y="714" on="1"/>
        <pt x="236" y="728" on="0"/>
        <pt x="253" y="728" on="1"/>
        <pt x="271" y="728" on="0"/>
        <pt x="280" y="714" on="1"/>
        <pt x="466" y="414" on="1"/>
        <pt x="474" y="399" on="0"/>
        <pt x="455" y="381" on="0"/>
        <pt x="441" y="380" on="1"/>
        <pt x="432" y="379" on="0"/>
        <pt x="415" y="386" on="0"/>
        <pt x="410" y="394" on="1"/>
        <pt x="253" y="650" on="1"/>
        <pt x="96" y="394" on="1"/>
        <pt x="91" y="384" on="0"/>
        <pt x="74" y="379" on="0"/>
        <pt x="65" y="380" on="1"/>
        <pt x="51" y="381" on="0"/>
        <pt x="31" y="400" on="0"/>
        <pt x="40" y="414" on="1"/>
      </contour>
    </TTGlyph>
    <TTGlyph name="asciitilde" xMin="41" yMin="164" xMax="517" yMax="348">
      <contour>
        <pt x="86" y="182" on="1"/>
        <pt x="81" y="170" on="0"/>
        <pt x="67" y="164" on="0"/>
        <pt x="58" y="167" on="1"/>
        <pt x="50" y="170" on="0"/>
        <pt x="41" y="181" on="0"/>
        <pt x="44" y="191" on="1"/>
        <pt x="53" y="214" on="0"/>
        <pt x="80" y="264" on="0"/>
        <pt x="118" y="306" on="0"/>
        <pt x="166" y="333" on="0"/>
        <pt x="195" y="333" on="1"/>
        <pt x="225" y="333" on="0"/>
        <pt x="281" y="313" on="0"/>
        <pt x="334" y="288" on="0"/>
        <pt x="382" y="268" on="0"/>
        <pt x="403" y="268" on="1"/>
        <pt x="423" y="268" on="0"/>
        <pt x="458" y="297" on="0"/>
        <pt x="473" y="333" on="1"/>
        <pt x="478" y="344" on="0"/>
        <pt x="492" y="348" on="0"/>
        <pt x="500" y="346" on="1"/>
        <pt x="508" y="344" on="0"/>
        <pt x="517" y="334" on="0"/>
        <pt x="514" y="323" on="1"/>
        <pt x="507" y="301" on="0"/>
        <pt x="480" y="251" on="0"/>
        <pt x="442" y="210" on="0"/>
        <pt x="393" y="184" on="0"/>
        <pt x="364" y="185" on="1"/>
        <pt x="326" y="186" on="0"/>
        <pt x="272" y="207" on="0"/>
        <pt x="228" y="231" on="0"/>
        <pt x="189" y="250" on="0"/>
        <pt x="165" y="250" on="1"/>
        <pt x="133" y="250" on="0"/>
        <pt x="101" y="209" on="0"/>
      </contour>
    </TTGlyph>
    <TTGlyph name="asterisk" xMin="43" yMin="351" xMax="483" yMax="732">
      <contour>
        <pt x="220" y="703" on="1"/>
        <pt x="226" y="692" on="0"/>
        <pt x="232" y="665" on="0"/>
        <pt x="237" y="630" on="0"/>
        <pt x="247" y="587" on="0"/>
        <pt x="258" y="561" on="1"/>
        <pt x="267" y="562" on="1"/>
        <pt x="279" y="587" on="0"/>
        <pt x="288" y="629" on="0"/>
        <pt x="292" y="664" on="0"/>
        <pt x="297" y="692" on="0"/>
        <pt x="303" y="703" on="1"/>
        <pt x="316" y="723" on="0"/>
        <pt x="354" y="731" on="0"/>
        <pt x="370" y="722" on="1"/>
        <pt x="387" y="714" on="0"/>
        <pt x="400" y="678" on="0"/>
        <pt x="387" y="658" on="1"/>
        <pt x="381" y="646" on="0"/>
        <pt x="358" y="628" on="0"/>
        <pt x="329" y="607" on="0"/>
        <pt x="296" y="578" on="0"/>
        <pt x="279" y="555" on="1"/>
        <pt x="282" y="547" on="1"/>
        <pt x="312" y="551" on="0"/>
        <pt x="355" y="564" on="0"/>
        <pt x="389" y="578" on="0"/>
        <pt x="416" y="588" on="0"/>
        <pt x="429" y="588" on="1"/>
        <pt x="455" y="588" on="0"/>
        <pt x="483" y="560" on="0"/>
        <pt x="482" y="542" on="1"/>
        <pt x="482" y="524" on="0"/>
        <pt x="454" y="496" on="0"/>
        <pt x="429" y="496" on="1"/>
        <pt x="416" y="496" on="0"/>
        <pt x="389" y="505" on="0"/>
        <pt x="355" y="518" on="0"/>
        <pt x="312" y="531" on="0"/>
        <pt x="283" y="534" on="1"/>
        <pt x="277" y="528" on="1"/>
        <pt x="295" y="506" on="0"/>
        <pt x="330" y="477" on="0"/>
        <pt x="359" y="456" on="0"/>
        <pt x="382" y="438" on="0"/>
        <pt x="388" y="428" on="1"/>
        <pt x="400" y="406" on="0"/>
        <pt x="391" y="371" on="0"/>
        <pt x="375" y="361" on="1"/>
        <pt x="357" y="351" on="0"/>
        <pt x="317" y="361" on="0"/>
        <pt x="305" y="380" on="1"/>
        <pt x="298" y="391" on="0"/>
        <pt x="293" y="418" on="0"/>
        <pt x="287" y="453" on="0"/>
        <pt x="277" y="495" on="0"/>
        <pt x="266" y="521" on="1"/>
        <pt x="257" y="520" on="1"/>
        <pt x="245" y="494" on="0"/>
        <pt x="236" y="453" on="0"/>
        <pt x="231" y="418" on="0"/>
        <pt x="227" y="391" on="0"/>
        <pt x="221" y="380" on="1"/>
        <pt x="210" y="359" on="0"/>
        <pt x="171" y="352" on="0"/>
        <pt x="156" y="361" on="1"/>
        <pt x="139" y="369" on="0"/>
        <pt x="124" y="405" on="0"/>
        <pt x="138" y="425" on="1"/>
        <pt x="144" y="436" on="0"/>
        <pt x="166" y="454" on="0"/>
        <pt x="195" y="475" on="0"/>
        <pt x="228" y="504" on="0"/>
        <pt x="245" y="527" on="1"/>
        <pt x="242" y="535" on="1"/>
        <pt x="213" y="532" on="0"/>
        <pt x="169" y="518" on="0"/>
        <pt x="135" y="505" on="0"/>
        <pt x="108" y="495" on="0"/>
        <pt x="95" y="495" on="1"/>
        <pt x="71" y="494" on="0"/>
        <pt x="43" y="523" on="0"/>
        <pt x="44" y="541" on="1"/>
        <pt x="43" y="559" on="0"/>
        <pt x="71" y="587" on="0"/>
        <pt x="95" y="587" on="1"/>
        <pt x="108" y="587" on="0"/>
        <pt x="136" y="577" on="0"/>
        <pt x="170" y="564" on="0"/>
        <pt x="212" y="551" on="0"/>
        <pt x="242" y="548" on="1"/>
        <pt x="248" y="554" on="1"/>
        <pt x="229" y="576" on="0"/>
        <pt x="194" y="606" on="0"/>
        <pt x="165" y="627" on="0"/>
        <pt x="143" y="644" on="0"/>
        <pt x="136" y="655" on="1"/>
        <pt x="125" y="677" on="0"/>
        <pt x="135" y="712" on="0"/>
        <pt x="151" y="722" on="1"/>
        <pt x="168" y="732" on="0"/>
        <pt x="207" y="722" on="0"/>
      </contour>
    </TTGlyph>
    <TTGlyph name="at" xMin="51" yMin="-141" xMax="835" yMax="627">
      <contour>
        <pt x="706" y="-30" on="1"/>
        <pt x="713" y="-26" on="0"/>
        <pt x="723" y="-32" on="0"/>
        <pt x="728" y="-43" on="0"/>
        <pt x="726" y="-57" on="0"/>
        <pt x="720" y="-61" on="1"/>
        <pt x="669" y="-97" on="0"/>
        <pt x="538" y="-141" on="0"/>
        <pt x="459" y="-141" on="1"/>
        <pt x="385" y="-141" on="0"/>
        <pt x="239" y="-97" on="0"/>
        <pt x="123" y="-8" on="0"/>
        <pt x="51" y="127" on="0"/>
        <pt x="51" y="219" on="1"/>
        <pt x="51" y="297" on="0"/>
        <pt x="115" y="444" on="0"/>
        <pt x="233" y="558" on="0"/>
        <pt x="399" y="627" on="0"/>
        <pt x="501" y="627" on="1"/>
        <pt x="585" y="627" on="0"/>
        <pt x="710" y="578" on="0"/>
        <pt x="793" y="495" on="0"/>
        <pt x="835" y="387" on="0"/>
        <pt x="835" y="328" on="1"/>
        <pt x="835" y="273" on="0"/>
        <pt x="800" y="176" on="0"/>
        <pt x="737" y="103" on="0"/>
        <pt x="650" y="61" on="0"/>
        <pt x="598" y="61" on="1"/>
        <pt x="556" y="61" on="0"/>
        <pt x="496" y="99" on="0"/>
        <pt x="492" y="137" on="1"/>
        <pt x="467" y="103" on="0"/>
        <pt x="406" y="63" on="0"/>
        <pt x="374" y="63" on="1"/>
        <pt x="352" y="63" on="0"/>
        <pt x="311" y="77" on="0"/>
        <pt x="278" y="107" on="0"/>
        <pt x="258" y="156" on="0"/>
        <pt x="258" y="192" on="1"/>
        <pt x="258" y="225" on="0"/>
        <pt x="291" y="311" on="0"/>
        <pt x="353" y="387" on="0"/>
        <pt x="439" y="439" on="0"/>
        <pt x="492" y="439" on="1"/>
        <pt x="520" y="439" on="0"/>
        <pt x="563" y="415" on="0"/>
        <pt x="571" y="388" on="1"/>
        <pt x="587" y="424" on="1"/>
        <pt x="591" y="432" on="0"/>
        <pt x="607" y="438" on="0"/>
        <pt x="616" y="438" on="1"/>
        <pt x="623" y="438" on="0"/>
        <pt x="640" y="433" on="0"/>
        <pt x="653" y="423" on="0"/>
        <pt x="660" y="408" on="0"/>
        <pt x="658" y="399" on="1"/>
        <pt x="574" y="182" on="1"/>
        <pt x="568" y="168" on="0"/>
        <pt x="564" y="138" on="0"/>
        <pt x="571" y="113" on="0"/>
        <pt x="591" y="97" on="0"/>
        <pt x="609" y="97" on="1"/>
        <pt x="647" y="97" on="0"/>
        <pt x="712" y="132" on="0"/>
        <pt x="760" y="194" on="0"/>
        <pt x="787" y="281" on="0"/>
        <pt x="787" y="333" on="1"/>
        <pt x="787" y="385" on="0"/>
        <pt x="750" y="475" on="0"/>
        <pt x="677" y="543" on="0"/>
        <pt x="568" y="582" on="0"/>
        <pt x="495" y="582" on="1"/>
        <pt x="431" y="582" on="0"/>
        <pt x="303" y="535" on="0"/>
        <pt x="201" y="444" on="0"/>
        <pt x="137" y="312" on="0"/>
        <pt x="137" y="227" on="1"/>
        <pt x="137" y="145" on="0"/>
        <pt x="187" y="23" on="0"/>
        <pt x="274" y="-58" on="0"/>
        <pt x="393" y="-98" on="0"/>
        <pt x="462" y="-98" on="1"/>
        <pt x="539" y="-98" on="0"/>
        <pt x="655" y="-59" on="0"/>
      </contour>
      <contour>
        <pt x="554" y="339" on="1"/>
        <pt x="543" y="406" on="0"/>
        <pt x="489" y="406" on="1"/>
        <pt x="464" y="406" on="0"/>
        <pt x="413" y="358" on="0"/>
        <pt x="371" y="287" on="0"/>
        <pt x="345" y="206" on="0"/>
        <pt x="345" y="173" on="1"/>
        <pt x="345" y="131" on="0"/>
        <pt x="384" y="106" on="0"/>
        <pt x="435" y="120" on="0"/>
        <pt x="486" y="162" on="0"/>
        <pt x="497" y="188" on="1"/>
      </contour>
    </TTGlyph>
    <TTGlyph name="atilde" xMin="34" yMin="-12" xMax="481" yMax="679">
      <component glyphName="a" x="0" y="0" flags="0x204"/>
      <component glyphName="tilde" x="20" y="0" flags="0x4"/>
    </TTGlyph>
    <TTGlyph name="b" xMin="3" yMin="-14" xMax="520" yMax="729">
      <contour>
        <pt x="78" y="590" on="1"/>
        <pt x="78" y="603" on="0"/>
        <pt x="78" y="628" on="0"/>
        <pt x="69" y="647" on="0"/>
        <pt x="48" y="658" on="0"/>
        <pt x="27" y="658" on="1"/>
        <pt x="18" y="658" on="0"/>
        <pt x="3" y="663" on="0"/>
        <pt x="3" y="678" on="1"/>
        <pt x="3" y="684" on="0"/>
        <pt x="11" y="694" on="0"/>
        <pt x="19" y="696" on="1"/>
        <pt x="53" y="701" on="0"/>
        <pt x="97" y="712" on="0"/>
        <pt x="125" y="721" on="0"/>
        <pt x="142" y="727" on="0"/>
        <pt x="150" y="728" on="1"/>
        <pt x="158" y="729" on="0"/>
        <pt x="169" y="721" on="0"/>
        <pt x="169" y="709" on="1"/>
        <pt x="169" y="407" on="1"/>
        <pt x="172" y="407" on="1"/>
        <pt x="202" y="437" on="0"/>
        <pt x="275" y="465" on="0"/>
        <pt x="310" y="465" on="1"/>
        <pt x="354" y="465" on="0"/>
        <pt x="431" y="431" on="0"/>
        <pt x="488" y="369" on="0"/>
        <pt x="520" y="282" on="0"/>
        <pt x="520" y="230" on="1"/>
        <pt x="520" y="179" on="0"/>
        <pt x="482" y="90" on="0"/>
        <pt x="419" y="25" on="0"/>
        <pt x="336" y="-12" on="0"/>
        <pt x="291" y="-12" on="1"/>
        <pt x="202" y="-12" on="0"/>
        <pt x="137" y="37" on="1"/>
        <pt x="132" y="37" on="1"/>
        <pt x="128" y="29" on="0"/>
        <pt x="122" y="12" on="0"/>
        <pt x="114" y="-4" on="0"/>
        <pt x="104" y="-14" on="0"/>
        <pt x="97" y="-14" on="1"/>
        <pt x="88" y="-14" on="0"/>
        <pt x="78" y="-2" on="0"/>
        <pt x="78" y="6" on="1"/>
      </contour>
      <contour>
        <pt x="418" y="226" on="1"/>
        <pt x="418" y="261" on="0"/>
        <pt x="402" y="329" on="0"/>
        <pt x="367" y="382" on="0"/>
        <pt x="313" y="415" on="0"/>
        <pt x="275" y="415" on="1"/>
        <pt x="241" y="415" on="0"/>
        <pt x="189" y="391" on="0"/>
        <pt x="169" y="369" on="1"/>
        <pt x="169" y="105" on="1"/>
        <pt x="171" y="94" on="0"/>
        <pt x="187" y="66" on="0"/>
        <pt x="216" y="40" on="0"/>
        <pt x="256" y="22" on="0"/>
        <pt x="282" y="22" on="1"/>
        <pt x="312" y="22" on="0"/>
        <pt x="362" y="50" on="0"/>
        <pt x="398" y="103" on="0"/>
        <pt x="418" y="179" on="0"/>
      </contour>
    </TTGlyph>
    <TTGlyph name="backslash" xMin="32" yMin="-197" xMax="362" yMax="706">
      <contour>
        <pt x="34" y="674" on="1"/>
        <pt x="32" y="684" on="0"/>
        <pt x="46" y="702" on="0"/>
        <pt x="57" y="704" on="1"/>
        <pt x="67" y="706" on="0"/>
        <pt x="86" y="696" on="0"/>
        <pt x="90" y="685" on="1"/>
        <pt x="360" y="-166" on="1"/>
        <pt x="362" y="-177" on="0"/>
        <pt x="349" y="-193" on="0"/>
        <pt x="338" y="-195" on="1"/>
        <pt x="329" y="-197" on="0"/>
        <pt x="310" y="-188" on="0"/>
        <pt x="306" y="-177" on="1"/>
      </contour>
    </TTGlyph>
    <TTGlyph name="bar" xMin="78" yMin="-218" xMax="134" yMax="728">
      <contour>
        <pt x="134" y="-195" on="1"/>
        <pt x="134" y="-206" on="0"/>
        <pt x="116" y="-218" on="0"/>
        <pt x="106" y="-218" on="1"/>
        <pt x="95" y="-218" on="0"/>
        <pt x="78" y="-206" on="0"/>
        <pt x="78" y="-195" on="1"/>
        <pt x="78" y="705" on="1"/>
        <pt x="78" y="716" on="0"/>
        <pt x="95" y="728" on="0"/>
        <pt x="106" y="728" on="1"/>
        <pt x="116" y="728" on="0"/>
        <pt x="134" y="716" on="0"/>
        <pt x="134" y="705" on="1"/>
      </contour>
    </TTGlyph>
    <TTGlyph name="braceleft" xMin="17" yMin="-218" xMax="267" yMax="727">
      <contour>
        <pt x="249" y="-218" on="1"/>
        <pt x="225" y="-217" on="0"/>
        <pt x="174" y="-207" on="0"/>
        <pt x="132" y="-178" on="0"/>
        <pt x="105" y="-126" on="0"/>
        <pt x="105" y="-84" on="1"/>
        <pt x="105" y="-57" on="0"/>
        <pt x="107" y="4" on="0"/>
        <pt x="110" y="65" on="0"/>
        <pt x="113" y="124" on="0"/>
        <pt x="113" y="149" on="1"/>
        <pt x="113" y="162" on="0"/>
        <pt x="109" y="190" on="0"/>
        <pt x="93" y="214" on="0"/>
        <pt x="59" y="232" on="0"/>
        <pt x="28" y="235" on="1"/>
        <pt x="23" y="236" on="0"/>
        <pt x="17" y="249" on="0"/>
        <pt x="17" y="254" on="1"/>
        <pt x="17" y="259" on="0"/>
        <pt x="23" y="272" on="0"/>
        <pt x="28" y="273" on="1"/>
        <pt x="59" y="276" on="0"/>
        <pt x="93" y="294" on="0"/>
        <pt x="109" y="318" on="0"/>
        <pt x="113" y="346" on="0"/>
        <pt x="113" y="359" on="1"/>
        <pt x="113" y="384" on="0"/>
        <pt x="110" y="443" on="0"/>
        <pt x="107" y="504" on="0"/>
        <pt x="105" y="563" on="0"/>
        <pt x="105" y="588" on="1"/>
        <pt x="105" y="631" on="0"/>
        <pt x="131" y="684" on="0"/>
        <pt x="172" y="714" on="0"/>
        <pt x="222" y="726" on="0"/>
        <pt x="246" y="727" on="1"/>
        <pt x="254" y="727" on="0"/>
        <pt x="265" y="725" on="0"/>
        <pt x="266" y="711" on="1"/>
        <pt x="266" y="705" on="0"/>
        <pt x="259" y="695" on="0"/>
        <pt x="251" y="693" on="1"/>
        <pt x="225" y="688" on="0"/>
        <pt x="194" y="670" on="0"/>
        <pt x="178" y="645" on="0"/>
        <pt x="173" y="614" on="0"/>
        <pt x="173" y="598" on="1"/>
        <pt x="173" y="573" on="0"/>
        <pt x="177" y="516" on="0"/>
        <pt x="183" y="457" on="0"/>
        <pt x="187" y="400" on="0"/>
        <pt x="187" y="375" on="1"/>
        <pt x="187" y="333" on="0"/>
        <pt x="148" y="266" on="0"/>
        <pt x="100" y="256" on="1"/>
        <pt x="100" y="252" on="1"/>
        <pt x="147" y="242" on="0"/>
        <pt x="187" y="176" on="0"/>
        <pt x="187" y="133" on="1"/>
        <pt x="187" y="107" on="0"/>
        <pt x="183" y="50" on="0"/>
        <pt x="177" y="-8" on="0"/>
        <pt x="173" y="-63" on="0"/>
        <pt x="173" y="-87" on="1"/>
        <pt x="173" y="-104" on="0"/>
        <pt x="178" y="-135" on="0"/>
        <pt x="193" y="-161" on="0"/>
        <pt x="222" y="-179" on="0"/>
        <pt x="246" y="-184" on="1"/>
        <pt x="254" y="-186" on="0"/>
        <pt x="265" y="-189" on="0"/>
        <pt x="266" y="-200" on="1"/>
        <pt x="267" y="-207" on="0"/>
        <pt x="259" y="-218" on="0"/>
      </contour>
    </TTGlyph>
    <TTGlyph name="braceright" xMin="19" yMin="-218" xMax="269" yMax="727">
      <contour>
        <pt x="37" y="-218" on="1"/>
        <pt x="27" y="-218" on="0"/>
        <pt x="19" y="-207" on="0"/>
        <pt x="20" y="-200" on="1"/>
        <pt x="21" y="-189" on="0"/>
        <pt x="32" y="-186" on="0"/>
        <pt x="40" y="-184" on="1"/>
        <pt x="64" y="-179" on="0"/>
        <pt x="93" y="-161" on="0"/>
        <pt x="108" y="-135" on="0"/>
        <pt x="113" y="-104" on="0"/>
        <pt x="113" y="-87" on="1"/>
        <pt x="113" y="-63" on="0"/>
        <pt x="109" y="-8" on="0"/>
        <pt x="103" y="50" on="0"/>
        <pt x="99" y="107" on="0"/>
        <pt x="99" y="133" on="1"/>
        <pt x="99" y="176" on="0"/>
        <pt x="139" y="242" on="0"/>
        <pt x="186" y="252" on="1"/>
        <pt x="186" y="256" on="1"/>
        <pt x="138" y="266" on="0"/>
        <pt x="99" y="333" on="0"/>
        <pt x="99" y="375" on="1"/>
        <pt x="99" y="400" on="0"/>
        <pt x="103" y="457" on="0"/>
        <pt x="109" y="516" on="0"/>
        <pt x="113" y="573" on="0"/>
        <pt x="113" y="598" on="1"/>
        <pt x="113" y="614" on="0"/>
        <pt x="108" y="645" on="0"/>
        <pt x="92" y="670" on="0"/>
        <pt x="61" y="688" on="0"/>
        <pt x="35" y="693" on="1"/>
        <pt x="27" y="695" on="0"/>
        <pt x="20" y="705" on="0"/>
        <pt x="20" y="711" on="1"/>
        <pt x="21" y="725" on="0"/>
        <pt x="32" y="727" on="0"/>
        <pt x="40" y="727" on="1"/>
        <pt x="64" y="726" on="0"/>
        <pt x="114" y="714" on="0"/>
        <pt x="155" y="684" on="0"/>
        <pt x="181" y="631" on="0"/>
        <pt x="181" y="588" on="1"/>
        <pt x="181" y="563" on="0"/>
        <pt x="178" y="504" on="0"/>
        <pt x="175" y="443" on="0"/>
        <pt x="173" y="384" on="0"/>
        <pt x="173" y="359" on="1"/>
        <pt x="173" y="346" on="0"/>
        <pt x="176" y="318" on="0"/>
        <pt x="193" y="294" on="0"/>
        <pt x="227" y="276" on="0"/>
        <pt x="258" y="273" on="1"/>
        <pt x="263" y="272" on="0"/>
        <pt x="269" y="259" on="0"/>
        <pt x="269" y="254" on="1"/>
        <pt x="269" y="249" on="0"/>
        <pt x="263" y="236" on="0"/>
        <pt x="258" y="235" on="1"/>
        <pt x="227" y="232" on="0"/>
        <pt x="193" y="214" on="0"/>
        <pt x="176" y="190" on="0"/>
        <pt x="173" y="162" on="0"/>
        <pt x="173" y="149" on="1"/>
        <pt x="173" y="124" on="0"/>
        <pt x="175" y="65" on="0"/>
        <pt x="178" y="4" on="0"/>
        <pt x="181" y="-57" on="0"/>
        <pt x="181" y="-84" on="1"/>
        <pt x="181" y="-126" on="0"/>
        <pt x="154" y="-178" on="0"/>
        <pt x="112" y="-207" on="0"/>
        <pt x="61" y="-217" on="0"/>
      </contour>
    </TTGlyph>
    <TTGlyph name="bracketleft" xMin="47" yMin="-218" xMax="276" yMax="728">
      <contour>
        <pt x="132" y="685" on="1"/>
        <pt x="122" y="685" on="0"/>
        <pt x="122" y="673" on="1"/>
        <pt x="122" y="-163" on="1"/>
        <pt x="122" y="-175" on="0"/>
        <pt x="132" y="-175" on="1"/>
        <pt x="253" y="-175" on="1"/>
        <pt x="276" y="-175" on="0"/>
        <pt x="276" y="-196" on="1"/>
        <pt x="276" y="-218" on="0"/>
        <pt x="253" y="-218" on="1"/>
        <pt x="109" y="-218" on="1"/>
        <pt x="91" y="-218" on="0"/>
        <pt x="67" y="-214" on="0"/>
        <pt x="53" y="-199" on="0"/>
        <pt x="47" y="-172" on="0"/>
        <pt x="47" y="-151" on="1"/>
        <pt x="47" y="661" on="1"/>
        <pt x="47" y="682" on="0"/>
        <pt x="53" y="709" on="0"/>
        <pt x="67" y="724" on="0"/>
        <pt x="91" y="728" on="0"/>
        <pt x="109" y="728" on="1"/>
        <pt x="253" y="728" on="1"/>
        <pt x="276" y="728" on="0"/>
        <pt x="276" y="706" on="1"/>
        <pt x="276" y="685" on="0"/>
        <pt x="253" y="685" on="1"/>
      </contour>
    </TTGlyph>
    <TTGlyph name="bracketright" xMin="34" yMin="-218" xMax="263" yMax="728">
      <contour>
        <pt x="57" y="685" on="1"/>
        <pt x="34" y="685" on="0"/>
        <pt x="34" y="706" on="1"/>
        <pt x="34" y="728" on="0"/>
        <pt x="57" y="728" on="1"/>
        <pt x="201" y="728" on="1"/>
        <pt x="219" y="728" on="0"/>
        <pt x="243" y="724" on="0"/>
        <pt x="257" y="709" on="0"/>
        <pt x="263" y="682" on="0"/>
        <pt x="263" y="661" on="1"/>
        <pt x="263" y="-151" on="1"/>
        <pt x="263" y="-172" on="0"/>
        <pt x="257" y="-199" on="0"/>
        <pt x="243" y="-214" on="0"/>
        <pt x="219" y="-218" on="0"/>
        <pt x="201" y="-218" on="1"/>
        <pt x="57" y="-218" on="1"/>
        <pt x="34" y="-218" on="0"/>
        <pt x="34" y="-196" on="1"/>
        <pt x="34" y="-175" on="0"/>
        <pt x="57" y="-175" on="1"/>
        <pt x="178" y="-175" on="1"/>
        <pt x="188" y="-175" on="0"/>
        <pt x="188" y="-163" on="1"/>
        <pt x="188" y="673" on="1"/>
        <pt x="188" y="685" on="0"/>
        <pt x="178" y="685" on="1"/>
      </contour>
    </TTGlyph>
    <TTGlyph name="brokenbar" xMin="78" yMin="-218" xMax="134" yMax="728">
      <contour>
        <pt x="134" y="129" on="1"/>
        <pt x="134" y="-195" on="1"/>
        <pt x="134" y="-206" on="0"/>
        <pt x="116" y="-218" on="0"/>
        <pt x="106" y="-218" on="1"/>
        <pt x="95" y="-218" on="0"/>
        <pt x="78" y="-206" on="0"/>
        <pt x="78" y="-195" on="1"/>
        <pt x="78" y="129" on="1"/>
        <pt x="78" y="140" on="0"/>
        <pt x="95" y="152" on="0"/>
        <pt x="106" y="152" on="1"/>
        <pt x="116" y="152" on="0"/>
        <pt x="134" y="140" on="0"/>
      </contour>
      <contour>
        <pt x="134" y="368" on="1"/>
        <pt x="134" y="357" on="0"/>
        <pt x="117" y="345" on="0"/>
        <pt x="106" y="345" on="1"/>
        <pt x="96" y="345" on="0"/>
        <pt x="78" y="357" on="0"/>
        <pt x="78" y="368" on="1"/>
        <pt x="78" y="705" on="1"/>
        <pt x="78" y="716" on="0"/>
        <pt x="95" y="728" on="0"/>
        <pt x="106" y="728" on="1"/>
        <pt x="116" y="728" on="0"/>
        <pt x="134" y="716" on="0"/>
        <pt x="134" y="705" on="1"/>
      </contour>
    </TTGlyph>
    <TTGlyph name="bullet" xMin="90" yMin="153" xMax="338" yMax="396">
      <contour>
        <pt x="212" y="153" on="1"/>
        <pt x="160" y="153" on="0"/>
        <pt x="90" y="220" on="0"/>
        <pt x="90" y="276" on="1"/>
        <pt x="90" y="301" on="0"/>
        <pt x="109" y="344" on="0"/>
        <pt x="142" y="377" on="0"/>
        <pt x="187" y="396" on="0"/>
        <pt x="213" y="396" on="1"/>
        <pt x="240" y="396" on="0"/>
        <pt x="285" y="377" on="0"/>
        <pt x="319" y="344" on="0"/>
        <pt x="338" y="301" on="0"/>
        <pt x="338" y="276" on="1"/>
        <pt x="338" y="248" on="0"/>
        <pt x="319" y="203" on="0"/>
        <pt x="285" y="171" on="0"/>
        <pt x="239" y="153" on="0"/>
      </contour>
    </TTGlyph>
    <TTGlyph name="c" xMin="41" yMin="-12" xMax="445" yMax="465">
      <contour>
        <pt x="411" y="113" on="1"/>
        <pt x="418" y="123" on="0"/>
        <pt x="432" y="115" on="1"/>
        <pt x="439" y="111" on="0"/>
        <pt x="445" y="97" on="0"/>
        <pt x="440" y="90" on="1"/>
        <pt x="407" y="42" on="0"/>
        <pt x="310" y="-12" on="0"/>
        <pt x="259" y="-12" on="1"/>
        <pt x="208" y="-12" on="0"/>
        <pt x="127" y="22" on="0"/>
        <pt x="71" y="85" on="0"/>
        <pt x="41" y="173" on="0"/>
        <pt x="41" y="227" on="1"/>
        <pt x="43" y="279" on="0"/>
        <pt x="80" y="365" on="0"/>
        <pt x="143" y="428" on="0"/>
        <pt x="228" y="463" on="0"/>
        <pt x="276" y="465" on="1"/>
        <pt x="289" y="465" on="0"/>
        <pt x="336" y="461" on="0"/>
        <pt x="383" y="445" on="0"/>
        <pt x="423" y="412" on="0"/>
        <pt x="431" y="382" on="1"/>
        <pt x="435" y="365" on="0"/>
        <pt x="430" y="330" on="0"/>
        <pt x="413" y="301" on="0"/>
        <pt x="384" y="283" on="0"/>
        <pt x="365" y="283" on="1"/>
        <pt x="343" y="283" on="0"/>
        <pt x="319" y="305" on="0"/>
        <pt x="319" y="310" on="1"/>
        <pt x="319" y="311" on="0"/>
        <pt x="329" y="319" on="0"/>
        <pt x="342" y="333" on="0"/>
        <pt x="352" y="352" on="0"/>
        <pt x="352" y="365" on="1"/>
        <pt x="352" y="397" on="0"/>
        <pt x="306" y="427" on="0"/>
        <pt x="277" y="428" on="1"/>
        <pt x="233" y="428" on="0"/>
        <pt x="180" y="391" on="0"/>
        <pt x="152" y="333" on="0"/>
        <pt x="143" y="263" on="0"/>
        <pt x="143" y="230" on="1"/>
        <pt x="143" y="189" on="0"/>
        <pt x="162" y="118" on="0"/>
        <pt x="198" y="67" on="0"/>
        <pt x="250" y="38" on="0"/>
        <pt x="282" y="38" on="1"/>
        <pt x="326" y="38" on="0"/>
        <pt x="386" y="75" on="0"/>
      </contour>
    </TTGlyph>
    <TTGlyph name="caron" xMin="61" yMin="524" xMax="323" yMax="718">
      <contour>
        <pt x="65" y="685" on="1"/>
        <pt x="61" y="692" on="0"/>
        <pt x="61" y="698" on="1"/>
        <pt x="61" y="707" on="0"/>
        <pt x="74" y="718" on="0"/>
        <pt x="82" y="718" on="1"/>
        <pt x="97" y="718" on="0"/>
        <pt x="145" y="670" on="0"/>
        <pt x="192" y="610" on="1"/>
        <pt x="239" y="670" on="0"/>
        <pt x="287" y="718" on="0"/>
        <pt x="302" y="718" on="1"/>
        <pt x="310" y="718" on="0"/>
        <pt x="323" y="707" on="0"/>
        <pt x="323" y="698" on="1"/>
        <pt x="323" y="692" on="0"/>
        <pt x="319" y="685" on="1"/>
        <pt x="217" y="537" on="1"/>
        <pt x="208" y="524" on="0"/>
        <pt x="193" y="524" on="1"/>
        <pt x="186" y="524" on="0"/>
        <pt x="172" y="529" on="0"/>
        <pt x="167" y="537" on="1"/>
      </contour>
    </TTGlyph>
    <TTGlyph name="caron.case" xMin="32" yMin="705" xMax="352" yMax="842">
      <contour>
        <pt x="216" y="714" on="1"/>
        <pt x="202" y="705" on="0"/>
        <pt x="192" y="705" on="1"/>
        <pt x="180" y="705" on="0"/>
        <pt x="168" y="714" on="1"/>
        <pt x="41" y="807" on="1"/>
        <pt x="32" y="813" on="0"/>
        <pt x="32" y="824" on="1"/>
        <pt x="32" y="832" on="0"/>
        <pt x="42" y="842" on="0"/>
        <pt x="52" y="842" on="1"/>
        <pt x="84" y="834" on="0"/>
        <pt x="157" y="795" on="0"/>
        <pt x="192" y="777" on="1"/>
        <pt x="227" y="795" on="0"/>
        <pt x="300" y="834" on="0"/>
        <pt x="332" y="842" on="1"/>
        <pt x="341" y="842" on="0"/>
        <pt x="352" y="832" on="0"/>
        <pt x="352" y="824" on="1"/>
        <pt x="352" y="813" on="0"/>
        <pt x="343" y="807" on="1"/>
      </contour>
    </TTGlyph>
    <TTGlyph name="ccedilla" xMin="41" yMin="-208" xMax="445" yMax="465">
      <contour>
        <pt x="411" y="113" on="1"/>
        <pt x="418" y="123" on="0"/>
        <pt x="432" y="115" on="1"/>
        <pt x="439" y="111" on="0"/>
        <pt x="445" y="97" on="0"/>
        <pt x="440" y="90" on="1"/>
        <pt x="407" y="42" on="0"/>
        <pt x="358" y="15" on="1"/>
        <pt x="316" y="-8" on="0"/>
        <pt x="272" y="-11" on="1"/>
        <pt x="272" y="-41" on="1"/>
        <pt x="289" y="-41" on="0"/>
        <pt x="324" y="-48" on="0"/>
        <pt x="352" y="-65" on="0"/>
        <pt x="369" y="-91" on="0"/>
        <pt x="369" y="-111" on="1"/>
        <pt x="369" y="-137" on="0"/>
        <pt x="342" y="-174" on="0"/>
        <pt x="294" y="-197" on="0"/>
        <pt x="226" y="-208" on="0"/>
        <pt x="185" y="-208" on="1"/>
        <pt x="175" y="-208" on="0"/>
        <pt x="165" y="-193" on="0"/>
        <pt x="165" y="-184" on="1"/>
        <pt x="165" y="-170" on="0"/>
        <pt x="177" y="-162" on="0"/>
        <pt x="185" y="-162" on="1"/>
        <pt x="206" y="-162" on="0"/>
        <pt x="245" y="-161" on="0"/>
        <pt x="277" y="-154" on="0"/>
        <pt x="296" y="-140" on="0"/>
        <pt x="296" y="-126" on="1"/>
        <pt x="296" y="-110" on="0"/>
        <pt x="265" y="-98" on="0"/>
        <pt x="239" y="-96" on="1"/>
        <pt x="234" y="-95" on="0"/>
        <pt x="223" y="-89" on="0"/>
        <pt x="223" y="-73" on="1"/>
        <pt x="223" y="-9" on="1"/>
        <pt x="193" y="-6" on="0"/>
        <pt x="167" y="5" on="1"/>
        <pt x="127" y="22" on="0"/>
        <pt x="71" y="85" on="0"/>
        <pt x="41" y="173" on="0"/>
        <pt x="41" y="227" on="1"/>
        <pt x="43" y="279" on="0"/>
        <pt x="80" y="365" on="0"/>
        <pt x="143" y="428" on="0"/>
        <pt x="228" y="463" on="0"/>
        <pt x="276" y="465" on="1"/>
        <pt x="289" y="465" on="0"/>
        <pt x="336" y="461" on="0"/>
        <pt x="383" y="445" on="0"/>
        <pt x="423" y="412" on="0"/>
        <pt x="431" y="382" on="1"/>
        <pt x="435" y="365" on="0"/>
        <pt x="430" y="330" on="0"/>
        <pt x="413" y="301" on="0"/>
        <pt x="384" y="283" on="0"/>
        <pt x="365" y="283" on="1"/>
        <pt x="343" y="283" on="0"/>
        <pt x="319" y="305" on="0"/>
        <pt x="319" y="310" on="1"/>
        <pt x="319" y="311" on="0"/>
        <pt x="329" y="319" on="0"/>
        <pt x="342" y="333" on="0"/>
        <pt x="352" y="352" on="0"/>
        <pt x="352" y="365" on="1"/>
        <pt x="352" y="397" on="0"/>
        <pt x="306" y="427" on="0"/>
        <pt x="277" y="428" on="1"/>
        <pt x="233" y="428" on="0"/>
        <pt x="180" y="391" on="0"/>
        <pt x="152" y="333" on="0"/>
        <pt x="143" y="263" on="0"/>
        <pt x="143" y="230" on="1"/>
        <pt x="143" y="189" on="0"/>
        <pt x="162" y="118" on="0"/>
        <pt x="198" y="67" on="0"/>
        <pt x="250" y="38" on="0"/>
        <pt x="282" y="38" on="1"/>
        <pt x="326" y="38" on="0"/>
        <pt x="386" y="75" on="0"/>
      </contour>
    </TTGlyph>
    <TTGlyph name="cedilla" xMin="32" yMin="-208" xMax="236" yMax="0">
      <contour>
        <pt x="90" y="0" on="1"/>
        <pt x="139" y="0" on="1"/>
        <pt x="139" y="-41" on="1"/>
        <pt x="156" y="-41" on="0"/>
        <pt x="191" y="-48" on="0"/>
        <pt x="219" y="-65" on="0"/>
        <pt x="236" y="-91" on="0"/>
        <pt x="236" y="-111" on="1"/>
        <pt x="236" y="-137" on="0"/>
        <pt x="209" y="-174" on="0"/>
        <pt x="161" y="-197" on="0"/>
        <pt x="93" y="-208" on="0"/>
        <pt x="52" y="-208" on="1"/>
        <pt x="42" y="-208" on="0"/>
        <pt x="32" y="-193" on="0"/>
        <pt x="32" y="-184" on="1"/>
        <pt x="32" y="-170" on="0"/>
        <pt x="44" y="-162" on="0"/>
        <pt x="52" y="-162" on="1"/>
        <pt x="73" y="-162" on="0"/>
        <pt x="112" y="-161" on="0"/>
        <pt x="144" y="-154" on="0"/>
        <pt x="163" y="-140" on="0"/>
        <pt x="163" y="-126" on="1"/>
        <pt x="163" y="-110" on="0"/>
        <pt x="132" y="-98" on="0"/>
        <pt x="106" y="-96" on="1"/>
        <pt x="101" y="-95" on="0"/>
        <pt x="90" y="-89" on="0"/>
        <pt x="90" y="-73" on="1"/>
      </contour>
    </TTGlyph>
    <TTGlyph name="cent" xMin="44" yMin="-77" xMax="446" yMax="510">
      <contour>
        <pt x="272" y="-52" on="1"/>
        <pt x="272" y="-77" on="0"/>
        <pt x="250" y="-77" on="1"/>
        <pt x="238" y="-77" on="0"/>
        <pt x="229" y="-64" on="0"/>
        <pt x="229" y="-52" on="1"/>
        <pt x="229" y="-10" on="1"/>
        <pt x="141" y="1" on="0"/>
        <pt x="44" y="127" on="0"/>
        <pt x="44" y="227" on="1"/>
        <pt x="45" y="272" on="0"/>
        <pt x="74" y="348" on="0"/>
        <pt x="123" y="408" on="0"/>
        <pt x="190" y="449" on="0"/>
        <pt x="229" y="458" on="1"/>
        <pt x="229" y="485" on="1"/>
        <pt x="229" y="496" on="0"/>
        <pt x="238" y="510" on="0"/>
        <pt x="250" y="510" on="1"/>
        <pt x="272" y="510" on="0"/>
        <pt x="272" y="485" on="1"/>
        <pt x="272" y="464" on="1"/>
        <pt x="287" y="464" on="1"/>
        <pt x="306" y="464" on="0"/>
        <pt x="357" y="457" on="0"/>
        <pt x="403" y="435" on="0"/>
        <pt x="436" y="394" on="0"/>
        <pt x="436" y="360" on="1"/>
        <pt x="436" y="331" on="0"/>
        <pt x="401" y="283" on="0"/>
        <pt x="368" y="283" on="1"/>
        <pt x="346" y="283" on="0"/>
        <pt x="322" y="305" on="0"/>
        <pt x="322" y="310" on="1"/>
        <pt x="322" y="311" on="0"/>
        <pt x="332" y="319" on="0"/>
        <pt x="345" y="333" on="0"/>
        <pt x="355" y="352" on="0"/>
        <pt x="355" y="365" on="1"/>
        <pt x="355" y="397" on="0"/>
        <pt x="309" y="427" on="0"/>
        <pt x="280" y="428" on="1"/>
        <pt x="272" y="428" on="1"/>
        <pt x="272" y="38" on="1"/>
        <pt x="285" y="38" on="1"/>
        <pt x="330" y="38" on="0"/>
        <pt x="389" y="75" on="0"/>
        <pt x="414" y="113" on="1"/>
        <pt x="418" y="118" on="0"/>
        <pt x="424" y="118" on="1"/>
        <pt x="431" y="118" on="0"/>
        <pt x="446" y="106" on="0"/>
        <pt x="446" y="98" on="1"/>
        <pt x="446" y="94" on="0"/>
        <pt x="443" y="90" on="1"/>
        <pt x="411" y="45" on="0"/>
        <pt x="320" y="-9" on="0"/>
        <pt x="272" y="-11" on="1"/>
      </contour>
      <contour>
        <pt x="146" y="230" on="1"/>
        <pt x="146" y="167" on="0"/>
        <pt x="189" y="72" on="0"/>
        <pt x="229" y="51" on="1"/>
        <pt x="229" y="419" on="1"/>
        <pt x="202" y="409" on="0"/>
        <pt x="170" y="368" on="0"/>
        <pt x="152" y="316" on="0"/>
        <pt x="146" y="257" on="0"/>
      </contour>
    </TTGlyph>
    <TTGlyph name="circumflex" xMin="61" yMin="516" xMax="323" yMax="710">
      <contour>
        <pt x="319" y="549" on="1"/>
        <pt x="323" y="542" on="0"/>
        <pt x="323" y="536" on="1"/>
        <pt x="323" y="526" on="0"/>
        <pt x="310" y="516" on="0"/>
        <pt x="302" y="516" on="1"/>
        <pt x="287" y="516" on="0"/>
        <pt x="239" y="563" on="0"/>
        <pt x="192" y="624" on="1"/>
        <pt x="145" y="563" on="0"/>
        <pt x="97" y="516" on="0"/>
        <pt x="82" y="516" on="1"/>
        <pt x="74" y="516" on="0"/>
        <pt x="61" y="526" on="0"/>
        <pt x="61" y="536" on="1"/>
        <pt x="61" y="542" on="0"/>
        <pt x="65" y="549" on="1"/>
        <pt x="167" y="697" on="1"/>
        <pt x="176" y="710" on="0"/>
        <pt x="191" y="710" on="1"/>
        <pt x="198" y="710" on="0"/>
        <pt x="211" y="705" on="0"/>
        <pt x="217" y="697" on="1"/>
      </contour>
    </TTGlyph>
    <TTGlyph name="circumflex.case" xMin="33" yMin="695" xMax="352" yMax="832">
      <contour>
        <pt x="169" y="823" on="1"/>
        <pt x="182" y="832" on="0"/>
        <pt x="193" y="832" on="1"/>
        <pt x="205" y="832" on="0"/>
        <pt x="217" y="823" on="1"/>
        <pt x="344" y="730" on="1"/>
        <pt x="352" y="723" on="0"/>
        <pt x="352" y="712" on="1"/>
        <pt x="352" y="705" on="0"/>
        <pt x="344" y="695" on="0"/>
        <pt x="336" y="695" on="1"/>
        <pt x="333" y="695" on="1"/>
        <pt x="301" y="703" on="0"/>
        <pt x="228" y="742" on="0"/>
        <pt x="193" y="760" on="1"/>
        <pt x="158" y="742" on="0"/>
        <pt x="85" y="703" on="0"/>
        <pt x="53" y="695" on="1"/>
        <pt x="50" y="695" on="1"/>
        <pt x="42" y="695" on="0"/>
        <pt x="33" y="705" on="0"/>
        <pt x="33" y="712" on="1"/>
        <pt x="33" y="722" on="0"/>
        <pt x="42" y="730" on="1"/>
      </contour>
    </TTGlyph>
    <TTGlyph name="colon" xMin="60" yMin="-12" xMax="188" yMax="429">
      <contour>
        <pt x="124" y="429" on="1"/>
        <pt x="152" y="429" on="0"/>
        <pt x="187" y="394" on="0"/>
        <pt x="187" y="366" on="1"/>
        <pt x="187" y="338" on="0"/>
        <pt x="152" y="304" on="0"/>
        <pt x="123" y="304" on="1"/>
        <pt x="95" y="304" on="0"/>
        <pt x="60" y="338" on="0"/>
        <pt x="60" y="366" on="1"/>
        <pt x="60" y="394" on="0"/>
        <pt x="95" y="429" on="0"/>
      </contour>
      <contour>
        <pt x="123" y="-12" on="1"/>
        <pt x="96" y="-12" on="0"/>
        <pt x="60" y="23" on="0"/>
        <pt x="60" y="52" on="1"/>
        <pt x="60" y="78" on="0"/>
        <pt x="96" y="113" on="0"/>
        <pt x="124" y="113" on="1"/>
        <pt x="153" y="113" on="0"/>
        <pt x="188" y="78" on="0"/>
        <pt x="188" y="52" on="1"/>
        <pt x="188" y="23" on="0"/>
        <pt x="152" y="-12" on="0"/>
      </contour>
    </TTGlyph>
    <TTGlyph name="comma" xMin="24" yMin="-123" xMax="196" yMax="147">
      <contour>
        <pt x="45" y="97" on="1"/>
        <pt x="45" y="116" on="0"/>
        <pt x="74" y="147" on="0"/>
        <pt x="95" y="147" on="1"/>
        <pt x="117" y="147" on="0"/>
        <pt x="154" y="126" on="0"/>
        <pt x="181" y="91" on="0"/>
        <pt x="196" y="49" on="0"/>
        <pt x="196" y="28" on="1"/>
        <pt x="196" y="-3" on="0"/>
        <pt x="169" y="-52" on="0"/>
        <pt x="127" y="-88" on="0"/>
        <pt x="74" y="-113" on="0"/>
        <pt x="48" y="-120" on="1"/>
        <pt x="40" y="-123" on="0"/>
        <pt x="29" y="-116" on="0"/>
        <pt x="24" y="-104" on="0"/>
        <pt x="27" y="-92" on="0"/>
        <pt x="35" y="-89" on="1"/>
        <pt x="77" y="-73" on="0"/>
        <pt x="120" y="-30" on="0"/>
        <pt x="120" y="0" on="1"/>
        <pt x="120" y="18" on="0"/>
        <pt x="97" y="40" on="0"/>
        <pt x="68" y="59" on="0"/>
        <pt x="45" y="80" on="0"/>
      </contour>
    </TTGlyph>
    <TTGlyph name="copyright" xMin="47" yMin="-50" xMax="781" yMax="684">
      <contour>
        <pt x="582" y="208" on="1"/>
        <pt x="556" y="154" on="0"/>
        <pt x="476" y="111" on="0"/>
        <pt x="416" y="111" on="1"/>
        <pt x="378" y="111" on="0"/>
        <pt x="311" y="139" on="0"/>
        <pt x="260" y="190" on="0"/>
        <pt x="230" y="264" on="0"/>
        <pt x="230" y="311" on="1"/>
        <pt x="230" y="357" on="0"/>
        <pt x="259" y="432" on="0"/>
        <pt x="311" y="486" on="0"/>
        <pt x="383" y="515" on="0"/>
        <pt x="426" y="515" on="1"/>
        <pt x="436" y="515" on="0"/>
        <pt x="479" y="510" on="0"/>
        <pt x="524" y="492" on="0"/>
        <pt x="559" y="458" on="0"/>
        <pt x="562" y="429" on="1"/>
        <pt x="562" y="402" on="0"/>
        <pt x="530" y="360" on="0"/>
        <pt x="501" y="360" on="1"/>
        <pt x="478" y="360" on="0"/>
        <pt x="460" y="381" on="0"/>
        <pt x="460" y="386" on="1"/>
        <pt x="460" y="389" on="0"/>
        <pt x="470" y="397" on="0"/>
        <pt x="482" y="408" on="0"/>
        <pt x="492" y="424" on="0"/>
        <pt x="492" y="436" on="1"/>
        <pt x="492" y="459" on="0"/>
        <pt x="454" y="483" on="0"/>
        <pt x="425" y="484" on="1"/>
        <pt x="371" y="482" on="0"/>
        <pt x="307" y="396" on="0"/>
        <pt x="307" y="314" on="1"/>
        <pt x="307" y="279" on="0"/>
        <pt x="326" y="219" on="0"/>
        <pt x="360" y="174" on="0"/>
        <pt x="408" y="148" on="0"/>
        <pt x="438" y="148" on="1"/>
        <pt x="480" y="148" on="0"/>
        <pt x="531" y="192" on="0"/>
        <pt x="545" y="221" on="1"/>
        <pt x="553" y="235" on="0"/>
        <pt x="562" y="235" on="1"/>
        <pt x="570" y="235" on="0"/>
        <pt x="584" y="224" on="0"/>
        <pt x="584" y="217" on="1"/>
        <pt x="584" y="214" on="0"/>
      </contour>
      <contour>
        <pt x="751" y="174" on="1"/>
        <pt x="722" y="108" on="0"/>
        <pt x="621" y="8" on="0"/>
        <pt x="488" y="-50" on="0"/>
        <pt x="414" y="-50" on="1"/>
        <pt x="340" y="-50" on="0"/>
        <pt x="206" y="8" on="0"/>
        <pt x="106" y="108" on="0"/>
        <pt x="47" y="241" on="0"/>
        <pt x="47" y="317" on="1"/>
        <pt x="47" y="393" on="0"/>
        <pt x="106" y="526" on="0"/>
        <pt x="206" y="626" on="0"/>
        <pt x="340" y="684" on="0"/>
        <pt x="414" y="684" on="1"/>
        <pt x="488" y="684" on="0"/>
        <pt x="621" y="626" on="0"/>
        <pt x="722" y="526" on="0"/>
        <pt x="781" y="393" on="0"/>
        <pt x="781" y="317" on="1"/>
        <pt x="781" y="241" on="0"/>
      </contour>
      <contour>
        <pt x="541" y="17" on="1"/>
        <pt x="600" y="43" on="0"/>
        <pt x="688" y="132" on="0"/>
        <pt x="738" y="250" on="0"/>
        <pt x="738" y="317" on="1"/>
        <pt x="738" y="384" on="0"/>
        <pt x="688" y="502" on="0"/>
        <pt x="600" y="590" on="0"/>
        <pt x="482" y="642" on="0"/>
        <pt x="414" y="642" on="1"/>
        <pt x="346" y="642" on="0"/>
        <pt x="228" y="590" on="0"/>
        <pt x="140" y="502" on="0"/>
        <pt x="90" y="384" on="0"/>
        <pt x="90" y="317" on="1"/>
        <pt x="90" y="250" on="0"/>
        <pt x="140" y="132" on="0"/>
        <pt x="228" y="43" on="0"/>
        <pt x="346" y="-8" on="0"/>
        <pt x="414" y="-8" on="1"/>
        <pt x="482" y="-8" on="0"/>
      </contour>
    </TTGlyph>
    <TTGlyph name="currency" xMin="65" yMin="20" xMax="543" yMax="500">
      <contour>
        <pt x="105" y="27" on="1"/>
        <pt x="97" y="20" on="0"/>
        <pt x="80" y="24" on="0"/>
        <pt x="73" y="32" on="1"/>
        <pt x="67" y="39" on="0"/>
        <pt x="66" y="57" on="0"/>
        <pt x="72" y="63" on="1"/>
        <pt x="137" y="127" on="1"/>
        <pt x="132" y="133" on="0"/>
        <pt x="117" y="157" on="0"/>
        <pt x="103" y="191" on="0"/>
        <pt x="92" y="234" on="0"/>
        <pt x="92" y="260" on="1"/>
        <pt x="92" y="288" on="0"/>
        <pt x="111" y="359" on="0"/>
        <pt x="137" y="392" on="1"/>
        <pt x="120" y="407" on="0"/>
        <pt x="88" y="440" on="0"/>
        <pt x="71" y="457" on="1"/>
        <pt x="65" y="463" on="0"/>
        <pt x="67" y="481" on="0"/>
        <pt x="73" y="488" on="1"/>
        <pt x="80" y="496" on="0"/>
        <pt x="97" y="500" on="0"/>
        <pt x="105" y="493" on="1"/>
        <pt x="173" y="424" on="1"/>
        <pt x="180" y="430" on="0"/>
        <pt x="203" y="446" on="0"/>
        <pt x="235" y="461" on="0"/>
        <pt x="277" y="472" on="0"/>
        <pt x="303" y="472" on="1"/>
        <pt x="331" y="472" on="0"/>
        <pt x="374" y="461" on="0"/>
        <pt x="407" y="446" on="0"/>
        <pt x="429" y="429" on="0"/>
        <pt x="435" y="424" on="1"/>
        <pt x="503" y="493" on="1"/>
        <pt x="511" y="500" on="0"/>
        <pt x="528" y="496" on="0"/>
        <pt x="535" y="488" on="1"/>
        <pt x="541" y="481" on="0"/>
        <pt x="543" y="463" on="0"/>
        <pt x="537" y="457" on="1"/>
        <pt x="471" y="392" on="1"/>
        <pt x="497" y="357" on="0"/>
        <pt x="516" y="288" on="0"/>
        <pt x="516" y="260" on="1"/>
        <pt x="516" y="231" on="0"/>
        <pt x="496" y="160" on="0"/>
        <pt x="470" y="127" on="1"/>
        <pt x="536" y="63" on="1"/>
        <pt x="542" y="57" on="0"/>
        <pt x="541" y="39" on="0"/>
        <pt x="535" y="32" on="1"/>
        <pt x="528" y="24" on="0"/>
        <pt x="511" y="20" on="0"/>
        <pt x="503" y="27" on="1"/>
        <pt x="435" y="95" on="1"/>
        <pt x="417" y="81" on="0"/>
        <pt x="379" y="62" on="0"/>
        <pt x="343" y="51" on="0"/>
        <pt x="313" y="47" on="0"/>
        <pt x="303" y="47" on="1"/>
        <pt x="277" y="47" on="0"/>
        <pt x="235" y="58" on="0"/>
        <pt x="202" y="73" on="0"/>
        <pt x="179" y="90" on="0"/>
        <pt x="173" y="95" on="1"/>
      </contour>
      <contour>
        <pt x="139" y="260" on="1"/>
        <pt x="139" y="224" on="0"/>
        <pt x="164" y="162" on="0"/>
        <pt x="209" y="115" on="0"/>
        <pt x="268" y="88" on="0"/>
        <pt x="303" y="88" on="1"/>
        <pt x="337" y="88" on="0"/>
        <pt x="398" y="115" on="0"/>
        <pt x="444" y="162" on="0"/>
        <pt x="470" y="224" on="0"/>
        <pt x="470" y="260" on="1"/>
        <pt x="470" y="295" on="0"/>
        <pt x="444" y="357" on="0"/>
        <pt x="398" y="403" on="0"/>
        <pt x="337" y="430" on="0"/>
        <pt x="303" y="430" on="1"/>
        <pt x="268" y="430" on="0"/>
        <pt x="209" y="404" on="0"/>
        <pt x="164" y="358" on="0"/>
        <pt x="139" y="296" on="0"/>
      </contour>
    </TTGlyph>
    <TTGlyph name="d" xMin="41" yMin="-12" xMax="577" yMax="729">
      <contour>
        <pt x="391" y="352" on="1"/>
        <pt x="387" y="364" on="0"/>
        <pt x="370" y="392" on="0"/>
        <pt x="343" y="414" on="0"/>
        <pt x="306" y="429" on="0"/>
        <pt x="282" y="429" on="1"/>
        <pt x="253" y="429" on="0"/>
        <pt x="203" y="401" on="0"/>
        <pt x="165" y="348" on="0"/>
        <pt x="144" y="271" on="0"/>
        <pt x="144" y="222" on="1"/>
        <pt x="144" y="186" on="0"/>
        <pt x="161" y="120" on="0"/>
        <pt x="196" y="69" on="0"/>
        <pt x="249" y="38" on="0"/>
        <pt x="285" y="38" on="1"/>
        <pt x="323" y="38" on="0"/>
        <pt x="373" y="69" on="0"/>
        <pt x="391" y="88" on="1"/>
      </contour>
      <contour>
        <pt x="482" y="92" on="1"/>
        <pt x="482" y="63" on="0"/>
        <pt x="519" y="33" on="0"/>
        <pt x="560" y="33" on="1"/>
        <pt x="571" y="33" on="0"/>
        <pt x="577" y="22" on="0"/>
        <pt x="577" y="17" on="1"/>
        <pt x="577" y="3" on="0"/>
        <pt x="560" y="0" on="1"/>
        <pt x="401" y="-11" on="1"/>
        <pt x="393" y="-11" on="0"/>
        <pt x="392" y="1" on="0"/>
        <pt x="392" y="9" on="1"/>
        <pt x="392" y="49" on="1"/>
        <pt x="389" y="49" on="1"/>
        <pt x="363" y="23" on="0"/>
        <pt x="289" y="-12" on="0"/>
        <pt x="251" y="-12" on="1"/>
        <pt x="209" y="-12" on="0"/>
        <pt x="133" y="23" on="0"/>
        <pt x="75" y="86" on="0"/>
        <pt x="41" y="174" on="0"/>
        <pt x="41" y="227" on="1"/>
        <pt x="41" y="273" on="0"/>
        <pt x="75" y="359" on="0"/>
        <pt x="137" y="425" on="0"/>
        <pt x="221" y="465" on="0"/>
        <pt x="272" y="465" on="1"/>
        <pt x="304" y="465" on="0"/>
        <pt x="365" y="450" on="0"/>
        <pt x="388" y="437" on="1"/>
        <pt x="391" y="437" on="1"/>
        <pt x="391" y="590" on="1"/>
        <pt x="391" y="603" on="0"/>
        <pt x="391" y="628" on="0"/>
        <pt x="382" y="647" on="0"/>
        <pt x="361" y="658" on="0"/>
        <pt x="340" y="658" on="1"/>
        <pt x="331" y="658" on="0"/>
        <pt x="316" y="663" on="0"/>
        <pt x="316" y="678" on="1"/>
        <pt x="316" y="684" on="0"/>
        <pt x="324" y="694" on="0"/>
        <pt x="332" y="696" on="1"/>
        <pt x="366" y="701" on="0"/>
        <pt x="410" y="712" on="0"/>
        <pt x="438" y="721" on="0"/>
        <pt x="455" y="727" on="0"/>
        <pt x="463" y="728" on="1"/>
        <pt x="471" y="729" on="0"/>
        <pt x="482" y="721" on="0"/>
        <pt x="482" y="709" on="1"/>
      </contour>
    </TTGlyph>
    <TTGlyph name="degree" xMin="37" yMin="328" xMax="369" yMax="633">
      <contour>
        <pt x="203" y="633" on="1"/>
        <pt x="240" y="633" on="0"/>
        <pt x="301" y="608" on="0"/>
        <pt x="345" y="567" on="0"/>
        <pt x="369" y="514" on="0"/>
        <pt x="369" y="485" on="1"/>
        <pt x="369" y="447" on="0"/>
        <pt x="338" y="389" on="0"/>
        <pt x="289" y="349" on="0"/>
        <pt x="230" y="328" on="0"/>
        <pt x="203" y="328" on="1"/>
        <pt x="165" y="328" on="0"/>
        <pt x="104" y="353" on="0"/>
        <pt x="61" y="394" on="0"/>
        <pt x="37" y="447" on="0"/>
        <pt x="37" y="476" on="1"/>
        <pt x="37" y="514" on="0"/>
        <pt x="67" y="572" on="0"/>
        <pt x="115" y="612" on="0"/>
        <pt x="174" y="633" on="0"/>
      </contour>
      <contour>
        <pt x="203" y="359" on="1"/>
        <pt x="228" y="359" on="0"/>
        <pt x="261" y="379" on="0"/>
        <pt x="281" y="414" on="0"/>
        <pt x="290" y="459" on="0"/>
        <pt x="290" y="485" on="1"/>
        <pt x="290" y="509" on="0"/>
        <pt x="281" y="552" on="0"/>
        <pt x="260" y="583" on="0"/>
        <pt x="227" y="602" on="0"/>
        <pt x="203" y="602" on="1"/>
        <pt x="178" y="602" on="0"/>
        <pt x="144" y="583" on="0"/>
        <pt x="124" y="549" on="0"/>
        <pt x="115" y="504" on="0"/>
        <pt x="115" y="478" on="1"/>
        <pt x="115" y="454" on="0"/>
        <pt x="124" y="411" on="0"/>
        <pt x="145" y="378" on="0"/>
        <pt x="178" y="359" on="0"/>
      </contour>
    </TTGlyph>
    <TTGlyph name="dieresis" xMin="51" yMin="547" xMax="347" yMax="667">
      <contour>
        <pt x="114" y="667" on="1"/>
        <pt x="140" y="667" on="0"/>
        <pt x="174" y="633" on="0"/>
        <pt x="174" y="607" on="1"/>
        <pt x="174" y="583" on="0"/>
        <pt x="139" y="547" on="0"/>
        <pt x="113" y="547" on="1"/>
        <pt x="87" y="547" on="0"/>
        <pt x="51" y="583" on="0"/>
        <pt x="51" y="607" on="1"/>
        <pt x="51" y="633" on="0"/>
        <pt x="88" y="667" on="0"/>
      </contour>
      <contour>
        <pt x="287" y="667" on="1"/>
        <pt x="313" y="667" on="0"/>
        <pt x="347" y="633" on="0"/>
        <pt x="347" y="607" on="1"/>
        <pt x="347" y="583" on="0"/>
        <pt x="312" y="547" on="0"/>
        <pt x="286" y="547" on="1"/>
        <pt x="260" y="547" on="0"/>
        <pt x="224" y="583" on="0"/>
        <pt x="224" y="607" on="1"/>
        <pt x="224" y="633" on="0"/>
        <pt x="261" y="667" on="0"/>
      </contour>
    </TTGlyph>
    <TTGlyph name="dieresis.case" xMin="36" yMin="711" xMax="351" yMax="831">
      <contour>
        <pt x="99" y="831" on="1"/>
        <pt x="125" y="831" on="0"/>
        <pt x="159" y="797" on="0"/>
        <pt x="159" y="771" on="1"/>
        <pt x="159" y="747" on="0"/>
        <pt x="124" y="711" on="0"/>
        <pt x="98" y="711" on="1"/>
        <pt x="72" y="711" on="0"/>
        <pt x="36" y="747" on="0"/>
        <pt x="36" y="771" on="1"/>
        <pt x="36" y="797" on="0"/>
        <pt x="73" y="831" on="0"/>
      </contour>
      <contour>
        <pt x="291" y="831" on="1"/>
        <pt x="317" y="831" on="0"/>
        <pt x="351" y="797" on="0"/>
        <pt x="351" y="771" on="1"/>
        <pt x="351" y="747" on="0"/>
        <pt x="316" y="711" on="0"/>
        <pt x="290" y="711" on="1"/>
        <pt x="264" y="711" on="0"/>
        <pt x="228" y="747" on="0"/>
        <pt x="228" y="771" on="1"/>
        <pt x="228" y="797" on="0"/>
        <pt x="265" y="831" on="0"/>
      </contour>
    </TTGlyph>
    <TTGlyph name="divide" xMin="52" yMin="9" xMax="546" yMax="506">
      <contour>
        <pt x="74" y="237" on="1"/>
        <pt x="64" y="237" on="0"/>
        <pt x="52" y="254" on="0"/>
        <pt x="52" y="264" on="1"/>
        <pt x="52" y="274" on="0"/>
        <pt x="64" y="291" on="0"/>
        <pt x="74" y="291" on="1"/>
        <pt x="524" y="291" on="1"/>
        <pt x="534" y="291" on="0"/>
        <pt x="546" y="274" on="0"/>
        <pt x="546" y="264" on="1"/>
        <pt x="546" y="254" on="0"/>
        <pt x="534" y="237" on="0"/>
        <pt x="524" y="237" on="1"/>
      </contour>
      <contour>
        <pt x="298" y="381" on="1"/>
        <pt x="271" y="381" on="0"/>
        <pt x="235" y="415" on="0"/>
        <pt x="235" y="444" on="1"/>
        <pt x="235" y="470" on="0"/>
        <pt x="271" y="506" on="0"/>
        <pt x="299" y="506" on="1"/>
        <pt x="326" y="506" on="0"/>
        <pt x="363" y="470" on="0"/>
        <pt x="363" y="444" on="1"/>
        <pt x="363" y="415" on="0"/>
        <pt x="326" y="381" on="0"/>
      </contour>
      <contour>
        <pt x="298" y="9" on="1"/>
        <pt x="271" y="9" on="0"/>
        <pt x="235" y="43" on="0"/>
        <pt x="235" y="72" on="1"/>
        <pt x="235" y="98" on="0"/>
        <pt x="271" y="134" on="0"/>
        <pt x="299" y="134" on="1"/>
        <pt x="326" y="134" on="0"/>
        <pt x="363" y="98" on="0"/>
        <pt x="363" y="72" on="1"/>
        <pt x="363" y="43" on="0"/>
        <pt x="326" y="9" on="0"/>
      </contour>
    </TTGlyph>
    <TTGlyph name="dollar" xMin="58" yMin="-89" xMax="450" yMax="640">
      <contour>
        <pt x="261" y="-66" on="1"/>
        <pt x="261" y="-89" on="0"/>
        <pt x="241" y="-89" on="1"/>
        <pt x="222" y="-89" on="0"/>
        <pt x="222" y="-66" on="1"/>
        <pt x="222" y="-13" on="1"/>
        <pt x="209" y="-13" on="1"/>
        <pt x="196" y="-13" on="0"/>
        <pt x="152" y="-8" on="0"/>
        <pt x="107" y="10" on="0"/>
        <pt x="68" y="43" on="0"/>
        <pt x="61" y="71" on="1"/>
        <pt x="58" y="86" on="0"/>
        <pt x="63" y="119" on="0"/>
        <pt x="78" y="145" on="0"/>
        <pt x="104" y="162" on="0"/>
        <pt x="121" y="162" on="1"/>
        <pt x="142" y="162" on="0"/>
        <pt x="163" y="142" on="0"/>
        <pt x="163" y="137" on="1"/>
        <pt x="163" y="135" on="0"/>
        <pt x="154" y="128" on="0"/>
        <pt x="143" y="116" on="0"/>
        <pt x="134" y="98" on="0"/>
        <pt x="134" y="86" on="1"/>
        <pt x="135" y="69" on="0"/>
        <pt x="150" y="46" on="0"/>
        <pt x="174" y="31" on="0"/>
        <pt x="205" y="22" on="0"/>
        <pt x="222" y="21" on="1"/>
        <pt x="222" y="257" on="1"/>
        <pt x="193" y="269" on="0"/>
        <pt x="136" y="296" on="0"/>
        <pt x="91" y="331" on="0"/>
        <pt x="63" y="379" on="0"/>
        <pt x="62" y="413" on="1"/>
        <pt x="61" y="445" on="0"/>
        <pt x="84" y="496" on="0"/>
        <pt x="128" y="534" on="0"/>
        <pt x="187" y="558" on="0"/>
        <pt x="222" y="563" on="1"/>
        <pt x="222" y="617" on="1"/>
        <pt x="222" y="640" on="0"/>
        <pt x="241" y="640" on="1"/>
        <pt x="261" y="640" on="0"/>
        <pt x="261" y="617" on="1"/>
        <pt x="261" y="566" on="1"/>
        <pt x="265" y="566" on="1"/>
        <pt x="277" y="566" on="0"/>
        <pt x="321" y="561" on="0"/>
        <pt x="366" y="543" on="0"/>
        <pt x="404" y="510" on="0"/>
        <pt x="411" y="482" on="1"/>
        <pt x="415" y="467" on="0"/>
        <pt x="410" y="434" on="0"/>
        <pt x="394" y="408" on="0"/>
        <pt x="368" y="391" on="0"/>
        <pt x="351" y="391" on="1"/>
        <pt x="331" y="391" on="0"/>
        <pt x="308" y="411" on="0"/>
        <pt x="308" y="416" on="1"/>
        <pt x="308" y="417" on="0"/>
        <pt x="318" y="425" on="0"/>
        <pt x="329" y="437" on="0"/>
        <pt x="339" y="455" on="0"/>
        <pt x="339" y="467" on="1"/>
        <pt x="339" y="483" on="0"/>
        <pt x="324" y="506" on="0"/>
        <pt x="302" y="521" on="0"/>
        <pt x="274" y="529" on="0"/>
        <pt x="261" y="530" on="1"/>
        <pt x="261" y="330" on="1"/>
        <pt x="292" y="318" on="0"/>
        <pt x="358" y="285" on="0"/>
        <pt x="412" y="242" on="0"/>
        <pt x="448" y="186" on="0"/>
        <pt x="449" y="151" on="1"/>
        <pt x="450" y="67" on="0"/>
        <pt x="354" y="-9" on="0"/>
        <pt x="261" y="-13" on="1"/>
      </contour>
      <contour>
        <pt x="370" y="113" on="1"/>
        <pt x="370" y="138" on="0"/>
        <pt x="353" y="176" on="0"/>
        <pt x="323" y="206" on="0"/>
        <pt x="283" y="229" on="0"/>
        <pt x="261" y="239" on="1"/>
        <pt x="261" y="21" on="1"/>
        <pt x="305" y="26" on="0"/>
        <pt x="369" y="72" on="0"/>
      </contour>
      <contour>
        <pt x="136" y="446" on="1"/>
        <pt x="136" y="421" on="0"/>
        <pt x="150" y="388" on="0"/>
        <pt x="174" y="365" on="0"/>
        <pt x="205" y="351" on="0"/>
        <pt x="222" y="345" on="1"/>
        <pt x="222" y="529" on="1"/>
        <pt x="177" y="522" on="0"/>
        <pt x="136" y="475" on="0"/>
      </contour>
    </TTGlyph>
    <TTGlyph name="dotlessi" xMin="33" yMin="-3" xMax="274" yMax="471">
      <contour>
        <pt x="199" y="103" on="1"/>
        <pt x="199" y="90" on="0"/>
        <pt x="199" y="65" on="0"/>
        <pt x="208" y="46" on="0"/>
        <pt x="230" y="35" on="0"/>
        <pt x="251" y="35" on="1"/>
        <pt x="260" y="35" on="0"/>
        <pt x="273" y="32" on="0"/>
        <pt x="274" y="17" on="1"/>
        <pt x="274" y="9" on="0"/>
        <pt x="266" y="-3" on="0"/>
        <pt x="258" y="-3" on="1"/>
        <pt x="229" y="-1" on="0"/>
        <pt x="180" y="0" on="0"/>
        <pt x="153" y="0" on="1"/>
        <pt x="126" y="0" on="0"/>
        <pt x="78" y="-1" on="0"/>
        <pt x="49" y="-3" on="1"/>
        <pt x="41" y="-3" on="0"/>
        <pt x="33" y="9" on="0"/>
        <pt x="33" y="17" on="1"/>
        <pt x="35" y="32" on="0"/>
        <pt x="47" y="35" on="0"/>
        <pt x="57" y="35" on="1"/>
        <pt x="78" y="35" on="0"/>
        <pt x="99" y="46" on="0"/>
        <pt x="108" y="65" on="0"/>
        <pt x="108" y="90" on="0"/>
        <pt x="108" y="103" on="1"/>
        <pt x="108" y="332" on="1"/>
        <pt x="108" y="345" on="0"/>
        <pt x="108" y="370" on="0"/>
        <pt x="99" y="389" on="0"/>
        <pt x="78" y="400" on="0"/>
        <pt x="57" y="400" on="1"/>
        <pt x="48" y="400" on="0"/>
        <pt x="33" y="405" on="0"/>
        <pt x="33" y="420" on="1"/>
        <pt x="33" y="426" on="0"/>
        <pt x="41" y="436" on="0"/>
        <pt x="49" y="438" on="1"/>
        <pt x="83" y="443" on="0"/>
        <pt x="127" y="454" on="0"/>
        <pt x="155" y="463" on="0"/>
        <pt x="172" y="469" on="0"/>
        <pt x="180" y="470" on="1"/>
        <pt x="188" y="471" on="0"/>
        <pt x="199" y="463" on="0"/>
        <pt x="199" y="451" on="1"/>
      </contour>
    </TTGlyph>
    <TTGlyph name="e" xMin="41" yMin="-12" xMax="465" yMax="465">
      <contour>
        <pt x="306" y="278" on="1"/>
        <pt x="330" y="278" on="0"/>
        <pt x="358" y="297" on="0"/>
        <pt x="360" y="320" on="1"/>
        <pt x="360" y="341" on="0"/>
        <pt x="348" y="381" on="0"/>
        <pt x="324" y="412" on="0"/>
        <pt x="288" y="430" on="0"/>
        <pt x="264" y="430" on="1"/>
        <pt x="213" y="430" on="0"/>
        <pt x="147" y="350" on="0"/>
        <pt x="143" y="278" on="1"/>
      </contour>
      <contour>
        <pt x="461" y="93" on="1"/>
        <pt x="430" y="44" on="0"/>
        <pt x="336" y="-12" on="0"/>
        <pt x="275" y="-12" on="1"/>
        <pt x="217" y="-12" on="0"/>
        <pt x="129" y="26" on="0"/>
        <pt x="71" y="92" on="0"/>
        <pt x="41" y="180" on="0"/>
        <pt x="41" y="229" on="1"/>
        <pt x="41" y="272" on="0"/>
        <pt x="72" y="357" on="0"/>
        <pt x="130" y="424" on="0"/>
        <pt x="212" y="465" on="0"/>
        <pt x="264" y="465" on="1"/>
        <pt x="310" y="465" on="0"/>
        <pt x="379" y="440" on="0"/>
        <pt x="426" y="395" on="0"/>
        <pt x="453" y="333" on="0"/>
        <pt x="456" y="297" on="1"/>
        <pt x="456" y="262" on="0"/>
        <pt x="417" y="240" on="0"/>
        <pt x="386" y="240" on="1"/>
        <pt x="143" y="240" on="1"/>
        <pt x="143" y="196" on="0"/>
        <pt x="161" y="122" on="0"/>
        <pt x="199" y="68" on="0"/>
        <pt x="259" y="38" on="0"/>
        <pt x="301" y="38" on="1"/>
        <pt x="343" y="38" on="0"/>
        <pt x="403" y="74" on="0"/>
        <pt x="431" y="119" on="1"/>
        <pt x="439" y="129" on="0"/>
        <pt x="453" y="120" on="1"/>
        <pt x="461" y="115" on="0"/>
        <pt x="465" y="99" on="0"/>
      </contour>
    </TTGlyph>
    <TTGlyph name="eacute" xMin="41" yMin="-12" xMax="465" yMax="702">
      <component glyphName="e" x="0" y="0" flags="0x204"/>
      <component glyphName="acute" x="192" y="0" flags="0x4"/>
    </TTGlyph>
    <TTGlyph name="ecircumflex" xMin="41" yMin="-12" xMax="465" yMax="710">
      <component glyphName="e" x="0" y="0" flags="0x204"/>
      <component glyphName="circumflex" x="71" y="0" flags="0x4"/>
    </TTGlyph>
    <TTGlyph name="edieresis" xMin="41" yMin="-12" xMax="465" yMax="667">
      <component glyphName="e" x="0" y="0" flags="0x204"/>
      <component glyphName="dieresis" x="72" y="0" flags="0x4"/>
    </TTGlyph>
    <TTGlyph name="egrave" xMin="41" yMin="-12" xMax="465" yMax="702">
      <component glyphName="e" x="0" y="0" flags="0x204"/>
      <component glyphName="grave" x="108" y="0" flags="0x4"/>
    </TTGlyph>
    <TTGlyph name="eight" xMin="54" yMin="-20" xMax="458" yMax="530">
      <contour>
        <pt x="161" y="404" on="1"/>
        <pt x="161" y="384" on="0"/>
        <pt x="184" y="351" on="0"/>
        <pt x="223" y="323" on="0"/>
        <pt x="275" y="299" on="0"/>
        <pt x="303" y="287" on="1"/>
        <pt x="330" y="307" on="0"/>
        <pt x="359" y="364" on="0"/>
        <pt x="359" y="394" on="1"/>
        <pt x="359" y="414" on="0"/>
        <pt x="347" y="451" on="0"/>
        <pt x="322" y="479" on="0"/>
        <pt x="285" y="496" on="0"/>
        <pt x="260" y="496" on="1"/>
        <pt x="213" y="496" on="0"/>
        <pt x="161" y="443" on="0"/>
      </contour>
      <contour>
        <pt x="458" y="131" on="1"/>
        <pt x="458" y="101" on="0"/>
        <pt x="428" y="46" on="0"/>
        <pt x="373" y="4" on="0"/>
        <pt x="296" y="-20" on="0"/>
        <pt x="249" y="-20" on="1"/>
        <pt x="204" y="-20" on="0"/>
        <pt x="132" y="2" on="0"/>
        <pt x="81" y="41" on="0"/>
        <pt x="54" y="94" on="0"/>
        <pt x="54" y="126" on="1"/>
        <pt x="54" y="172" on="0"/>
        <pt x="115" y="236" on="0"/>
        <pt x="171" y="260" on="1"/>
        <pt x="123" y="289" on="0"/>
        <pt x="78" y="349" on="0"/>
        <pt x="78" y="387" on="1"/>
        <pt x="78" y="417" on="0"/>
        <pt x="109" y="470" on="0"/>
        <pt x="161" y="508" on="0"/>
        <pt x="228" y="530" on="0"/>
        <pt x="265" y="530" on="1"/>
        <pt x="303" y="530" on="0"/>
        <pt x="366" y="509" on="0"/>
        <pt x="412" y="472" on="0"/>
        <pt x="437" y="422" on="0"/>
        <pt x="437" y="393" on="1"/>
        <pt x="437" y="320" on="0"/>
        <pt x="337" y="269" on="1"/>
        <pt x="403" y="241" on="0"/>
        <pt x="458" y="179" on="0"/>
      </contour>
      <contour>
        <pt x="368" y="113" on="1"/>
        <pt x="368" y="136" on="0"/>
        <pt x="345" y="171" on="0"/>
        <pt x="304" y="200" on="0"/>
        <pt x="245" y="228" on="0"/>
        <pt x="209" y="244" on="1"/>
        <pt x="179" y="224" on="0"/>
        <pt x="144" y="165" on="0"/>
        <pt x="144" y="130" on="1"/>
        <pt x="144" y="78" on="0"/>
        <pt x="206" y="13" on="0"/>
        <pt x="258" y="13" on="1"/>
        <pt x="309" y="13" on="0"/>
        <pt x="368" y="70" on="0"/>
      </contour>
    </TTGlyph>
    <TTGlyph name="emdash" xMin="61" yMin="237" xMax="803" yMax="291">
      <contour>
        <pt x="84" y="237" on="1"/>
        <pt x="73" y="237" on="0"/>
        <pt x="61" y="254" on="0"/>
        <pt x="61" y="264" on="1"/>
        <pt x="61" y="275" on="0"/>
        <pt x="73" y="291" on="0"/>
        <pt x="84" y="291" on="1"/>
        <pt x="780" y="291" on="1"/>
        <pt x="791" y="291" on="0"/>
        <pt x="803" y="275" on="0"/>
        <pt x="803" y="264" on="1"/>
        <pt x="803" y="254" on="0"/>
        <pt x="791" y="237" on="0"/>
        <pt x="780" y="237" on="1"/>
      </contour>
    </TTGlyph>
    <TTGlyph name="endash" xMin="61" yMin="237" xMax="493" yMax="291">
      <contour>
        <pt x="84" y="237" on="1"/>
        <pt x="73" y="237" on="0"/>
        <pt x="61" y="254" on="0"/>
        <pt x="61" y="264" on="1"/>
        <pt x="61" y="275" on="0"/>
        <pt x="73" y="291" on="0"/>
        <pt x="84" y="291" on="1"/>
        <pt x="470" y="291" on="1"/>
        <pt x="481" y="291" on="0"/>
        <pt x="493" y="275" on="0"/>
        <pt x="493" y="264" on="1"/>
        <pt x="493" y="254" on="0"/>
        <pt x="481" y="237" on="0"/>
        <pt x="470" y="237" on="1"/>
      </contour>
    </TTGlyph>
    <TTGlyph name="equal" xMin="68" yMin="147" xMax="562" yMax="369">
      <contour>
        <pt x="91" y="147" on="1"/>
        <pt x="80" y="147" on="0"/>
        <pt x="68" y="164" on="0"/>
        <pt x="68" y="174" on="1"/>
        <pt x="68" y="185" on="0"/>
        <pt x="80" y="201" on="0"/>
        <pt x="91" y="201" on="1"/>
        <pt x="539" y="201" on="1"/>
        <pt x="550" y="201" on="0"/>
        <pt x="562" y="185" on="0"/>
        <pt x="562" y="174" on="1"/>
        <pt x="562" y="164" on="0"/>
        <pt x="550" y="147" on="0"/>
        <pt x="539" y="147" on="1"/>
      </contour>
      <contour>
        <pt x="91" y="315" on="1"/>
        <pt x="80" y="315" on="0"/>
        <pt x="68" y="332" on="0"/>
        <pt x="68" y="342" on="1"/>
        <pt x="68" y="353" on="0"/>
        <pt x="80" y="369" on="0"/>
        <pt x="91" y="369" on="1"/>
        <pt x="539" y="369" on="1"/>
        <pt x="550" y="369" on="0"/>
        <pt x="562" y="353" on="0"/>
        <pt x="562" y="342" on="1"/>
        <pt x="562" y="332" on="0"/>
        <pt x="550" y="315" on="0"/>
        <pt x="539" y="315" on="1"/>
      </contour>
    </TTGlyph>
    <TTGlyph name="eth" xMin="42" yMin="-12" xMax="504" yMax="731">
      <contour>
        <pt x="271" y="25" on="1"/>
        <pt x="307" y="25" on="0"/>
        <pt x="357" y="57" on="0"/>
        <pt x="388" y="113" on="0"/>
        <pt x="402" y="186" on="0"/>
        <pt x="402" y="228" on="1"/>
        <pt x="402" y="267" on="0"/>
        <pt x="387" y="337" on="0"/>
        <pt x="356" y="388" on="0"/>
        <pt x="306" y="418" on="0"/>
        <pt x="271" y="418" on="1"/>
        <pt x="234" y="418" on="0"/>
        <pt x="184" y="386" on="0"/>
        <pt x="153" y="332" on="0"/>
        <pt x="140" y="259" on="0"/>
        <pt x="140" y="217" on="1"/>
        <pt x="140" y="178" on="0"/>
        <pt x="154" y="108" on="0"/>
        <pt x="185" y="56" on="0"/>
        <pt x="235" y="25" on="0"/>
      </contour>
      <contour>
        <pt x="231" y="691" on="1"/>
        <pt x="222" y="698" on="0"/>
        <pt x="218" y="709" on="0"/>
        <pt x="220" y="716" on="1"/>
        <pt x="222" y="722" on="0"/>
        <pt x="233" y="731" on="0"/>
        <pt x="242" y="726" on="1"/>
        <pt x="252" y="721" on="0"/>
        <pt x="279" y="704" on="0"/>
        <pt x="307" y="685" on="0"/>
        <pt x="332" y="665" on="0"/>
        <pt x="340" y="657" on="1"/>
        <pt x="426" y="709" on="1"/>
        <pt x="431" y="712" on="0"/>
        <pt x="442" y="703" on="0"/>
        <pt x="450" y="689" on="0"/>
        <pt x="450" y="674" on="0"/>
        <pt x="445" y="671" on="1"/>
        <pt x="369" y="627" on="1"/>
        <pt x="401" y="593" on="0"/>
        <pt x="452" y="504" on="0"/>
        <pt x="487" y="400" on="0"/>
        <pt x="504" y="286" on="0"/>
        <pt x="501" y="228" on="1"/>
        <pt x="499" y="168" on="0"/>
        <pt x="456" y="78" on="0"/>
        <pt x="390" y="18" on="0"/>
        <pt x="310" y="-12" on="0"/>
        <pt x="271" y="-12" on="1"/>
        <pt x="218" y="-12" on="0"/>
        <pt x="134" y="25" on="0"/>
        <pt x="74" y="88" on="0"/>
        <pt x="42" y="170" on="0"/>
        <pt x="42" y="215" on="1"/>
        <pt x="42" y="274" on="0"/>
        <pt x="84" y="365" on="0"/>
        <pt x="150" y="425" on="0"/>
        <pt x="231" y="456" on="0"/>
        <pt x="271" y="455" on="1"/>
        <pt x="318" y="454" on="0"/>
        <pt x="372" y="424" on="0"/>
        <pt x="396" y="405" on="1"/>
        <pt x="400" y="406" on="1"/>
        <pt x="393" y="466" on="0"/>
        <pt x="347" y="559" on="0"/>
        <pt x="319" y="599" on="1"/>
        <pt x="222" y="542" on="1"/>
        <pt x="216" y="540" on="0"/>
        <pt x="205" y="550" on="0"/>
        <pt x="199" y="564" on="0"/>
        <pt x="199" y="578" on="0"/>
        <pt x="205" y="581" on="1"/>
        <pt x="295" y="632" on="1"/>
        <pt x="283" y="648" on="0"/>
        <pt x="249" y="678" on="0"/>
      </contour>
    </TTGlyph>
    <TTGlyph name="exclam" xMin="67" yMin="-12" xMax="195" yMax="687">
      <contour>
        <pt x="130" y="-12" on="1"/>
        <pt x="103" y="-12" on="0"/>
        <pt x="67" y="23" on="0"/>
        <pt x="67" y="52" on="1"/>
        <pt x="67" y="78" on="0"/>
        <pt x="103" y="115" on="0"/>
        <pt x="131" y="115" on="1"/>
        <pt x="159" y="115" on="0"/>
        <pt x="195" y="78" on="0"/>
        <pt x="195" y="52" on="1"/>
        <pt x="195" y="23" on="0"/>
        <pt x="159" y="-12" on="0"/>
      </contour>
      <contour>
        <pt x="155" y="221" on="1"/>
        <pt x="155" y="213" on="0"/>
        <pt x="140" y="207" on="0"/>
        <pt x="131" y="207" on="1"/>
        <pt x="123" y="207" on="0"/>
        <pt x="107" y="214" on="0"/>
        <pt x="107" y="221" on="1"/>
        <pt x="107" y="252" on="0"/>
        <pt x="98" y="338" on="0"/>
        <pt x="86" y="433" on="0"/>
        <pt x="77" y="529" on="0"/>
        <pt x="77" y="570" on="1"/>
        <pt x="77" y="621" on="0"/>
        <pt x="100" y="687" on="0"/>
        <pt x="131" y="687" on="1"/>
        <pt x="162" y="687" on="0"/>
        <pt x="185" y="621" on="0"/>
        <pt x="185" y="570" on="1"/>
        <pt x="185" y="529" on="0"/>
        <pt x="176" y="433" on="0"/>
        <pt x="164" y="338" on="0"/>
        <pt x="155" y="252" on="0"/>
      </contour>
    </TTGlyph>
    <TTGlyph name="exclamdown" xMin="57" yMin="-234" xMax="185" yMax="465">
      <contour>
        <pt x="122" y="465" on="1"/>
        <pt x="149" y="465" on="0"/>
        <pt x="185" y="430" on="0"/>
        <pt x="185" y="401" on="1"/>
        <pt x="185" y="375" on="0"/>
        <pt x="149" y="338" on="0"/>
        <pt x="121" y="338" on="1"/>
        <pt x="93" y="338" on="0"/>
        <pt x="57" y="375" on="0"/>
        <pt x="57" y="401" on="1"/>
        <pt x="57" y="430" on="0"/>
        <pt x="93" y="465" on="0"/>
      </contour>
      <contour>
        <pt x="97" y="232" on="1"/>
        <pt x="97" y="240" on="0"/>
        <pt x="112" y="246" on="0"/>
        <pt x="121" y="246" on="1"/>
        <pt x="129" y="246" on="0"/>
        <pt x="145" y="239" on="0"/>
        <pt x="145" y="232" on="1"/>
        <pt x="145" y="201" on="0"/>
        <pt x="154" y="115" on="0"/>
        <pt x="166" y="20" on="0"/>
        <pt x="175" y="-76" on="0"/>
        <pt x="175" y="-117" on="1"/>
        <pt x="175" y="-168" on="0"/>
        <pt x="152" y="-234" on="0"/>
        <pt x="121" y="-234" on="1"/>
        <pt x="90" y="-234" on="0"/>
        <pt x="67" y="-168" on="0"/>
        <pt x="67" y="-117" on="1"/>
        <pt x="67" y="-76" on="0"/>
        <pt x="76" y="20" on="0"/>
        <pt x="88" y="115" on="0"/>
        <pt x="97" y="201" on="0"/>
      </contour>
    </TTGlyph>
    <TTGlyph name="f" xMin="32" yMin="-3" xMax="428" yMax="724">
      <contour>
        <pt x="116" y="490" on="1"/>
        <pt x="116" y="540" on="0"/>
        <pt x="140" y="625" on="0"/>
        <pt x="186" y="687" on="0"/>
        <pt x="256" y="723" on="0"/>
        <pt x="301" y="724" on="1"/>
        <pt x="324" y="724" on="0"/>
        <pt x="369" y="711" on="0"/>
        <pt x="405" y="685" on="0"/>
        <pt x="428" y="649" on="0"/>
        <pt x="428" y="626" on="1"/>
        <pt x="428" y="598" on="0"/>
        <pt x="394" y="551" on="0"/>
        <pt x="362" y="551" on="1"/>
        <pt x="341" y="551" on="0"/>
        <pt x="318" y="572" on="0"/>
        <pt x="318" y="577" on="1"/>
        <pt x="318" y="579" on="0"/>
        <pt x="329" y="587" on="0"/>
        <pt x="341" y="602" on="0"/>
        <pt x="352" y="623" on="0"/>
        <pt x="352" y="638" on="1"/>
        <pt x="352" y="660" on="0"/>
        <pt x="319" y="691" on="0"/>
        <pt x="294" y="691" on="1"/>
        <pt x="261" y="691" on="0"/>
        <pt x="226" y="650" on="0"/>
        <pt x="210" y="592" on="0"/>
        <pt x="208" y="529" on="0"/>
        <pt x="208" y="508" on="1"/>
        <pt x="208" y="453" on="1"/>
        <pt x="306" y="453" on="1"/>
        <pt x="316" y="453" on="0"/>
        <pt x="330" y="450" on="0"/>
        <pt x="331" y="434" on="1"/>
        <pt x="331" y="426" on="0"/>
        <pt x="322" y="414" on="0"/>
        <pt x="314" y="414" on="1"/>
        <pt x="208" y="414" on="1"/>
        <pt x="208" y="103" on="1"/>
        <pt x="208" y="90" on="0"/>
        <pt x="208" y="65" on="0"/>
        <pt x="217" y="46" on="0"/>
        <pt x="238" y="35" on="0"/>
        <pt x="279" y="35" on="1"/>
        <pt x="289" y="35" on="0"/>
        <pt x="301" y="32" on="0"/>
        <pt x="302" y="17" on="1"/>
        <pt x="302" y="9" on="0"/>
        <pt x="295" y="-3" on="0"/>
        <pt x="287" y="-3" on="1"/>
        <pt x="238" y="-1" on="0"/>
        <pt x="188" y="0" on="0"/>
        <pt x="162" y="0" on="1"/>
        <pt x="135" y="0" on="0"/>
        <pt x="87" y="-1" on="0"/>
        <pt x="58" y="-3" on="1"/>
        <pt x="50" y="-3" on="0"/>
        <pt x="42" y="9" on="0"/>
        <pt x="42" y="17" on="1"/>
        <pt x="43" y="32" on="0"/>
        <pt x="55" y="35" on="0"/>
        <pt x="65" y="35" on="1"/>
        <pt x="86" y="35" on="0"/>
        <pt x="107" y="46" on="0"/>
        <pt x="116" y="65" on="0"/>
        <pt x="116" y="90" on="0"/>
        <pt x="116" y="103" on="1"/>
        <pt x="116" y="414" on="1"/>
        <pt x="49" y="414" on="1"/>
        <pt x="41" y="414" on="0"/>
        <pt x="32" y="426" on="0"/>
        <pt x="32" y="434" on="1"/>
        <pt x="33" y="450" on="0"/>
        <pt x="46" y="453" on="0"/>
        <pt x="56" y="453" on="1"/>
        <pt x="116" y="453" on="1"/>
      </contour>
    </TTGlyph>
    <TTGlyph name="f_j" xMin="25" yMin="-207" xMax="518" yMax="724">
      <contour>
        <pt x="518" y="99" on="1"/>
        <pt x="518" y="42" on="0"/>
        <pt x="500" y="-57" on="0"/>
        <pt x="458" y="-137" on="0"/>
        <pt x="387" y="-192" on="0"/>
        <pt x="334" y="-205" on="1"/>
        <pt x="325" y="-207" on="0"/>
        <pt x="317" y="-200" on="0"/>
        <pt x="314" y="-191" on="1"/>
        <pt x="312" y="-183" on="0"/>
        <pt x="313" y="-170" on="0"/>
        <pt x="321" y="-167" on="1"/>
        <pt x="358" y="-152" on="0"/>
        <pt x="400" y="-101" on="0"/>
        <pt x="421" y="-27" on="0"/>
        <pt x="427" y="70" on="0"/>
        <pt x="427" y="131" on="1"/>
        <pt x="427" y="331" on="1"/>
        <pt x="427" y="344" on="0"/>
        <pt x="427" y="369" on="0"/>
        <pt x="418" y="388" on="0"/>
        <pt x="397" y="399" on="0"/>
        <pt x="376" y="399" on="1"/>
        <pt x="211" y="399" on="1"/>
        <pt x="211" y="103" on="1"/>
        <pt x="211" y="90" on="0"/>
        <pt x="211" y="65" on="0"/>
        <pt x="220" y="46" on="0"/>
        <pt x="241" y="35" on="0"/>
        <pt x="262" y="35" on="1"/>
        <pt x="272" y="35" on="0"/>
        <pt x="284" y="32" on="0"/>
        <pt x="285" y="17" on="1"/>
        <pt x="285" y="9" on="0"/>
        <pt x="278" y="-3" on="0"/>
        <pt x="270" y="-3" on="1"/>
        <pt x="241" y="-1" on="0"/>
        <pt x="191" y="0" on="0"/>
        <pt x="165" y="0" on="1"/>
        <pt x="138" y="0" on="0"/>
        <pt x="90" y="-1" on="0"/>
        <pt x="61" y="-3" on="1"/>
        <pt x="53" y="-3" on="0"/>
        <pt x="45" y="9" on="0"/>
        <pt x="45" y="17" on="1"/>
        <pt x="46" y="32" on="0"/>
        <pt x="58" y="35" on="0"/>
        <pt x="68" y="35" on="1"/>
        <pt x="89" y="35" on="0"/>
        <pt x="110" y="46" on="0"/>
        <pt x="119" y="65" on="0"/>
        <pt x="119" y="90" on="0"/>
        <pt x="119" y="103" on="1"/>
        <pt x="119" y="399" on="1"/>
        <pt x="42" y="399" on="1"/>
        <pt x="34" y="399" on="0"/>
        <pt x="25" y="411" on="0"/>
        <pt x="25" y="419" on="1"/>
        <pt x="26" y="435" on="0"/>
        <pt x="39" y="438" on="0"/>
        <pt x="49" y="438" on="1"/>
        <pt x="119" y="438" on="1"/>
        <pt x="120" y="509" on="0"/>
        <pt x="161" y="616" on="0"/>
        <pt x="231" y="688" on="0"/>
        <pt x="326" y="724" on="0"/>
        <pt x="382" y="724" on="1"/>
        <pt x="405" y="724" on="0"/>
        <pt x="449" y="711" on="0"/>
        <pt x="484" y="686" on="0"/>
        <pt x="506" y="650" on="0"/>
        <pt x="506" y="626" on="1"/>
        <pt x="506" y="597" on="0"/>
        <pt x="471" y="548" on="0"/>
        <pt x="438" y="548" on="1"/>
        <pt x="415" y="548" on="0"/>
        <pt x="391" y="570" on="0"/>
        <pt x="391" y="575" on="1"/>
        <pt x="391" y="577" on="0"/>
        <pt x="402" y="585" on="0"/>
        <pt x="415" y="600" on="0"/>
        <pt x="426" y="623" on="0"/>
        <pt x="426" y="638" on="1"/>
        <pt x="426" y="666" on="0"/>
        <pt x="389" y="693" on="0"/>
        <pt x="356" y="693" on="1"/>
        <pt x="326" y="693" on="0"/>
        <pt x="272" y="663" on="0"/>
        <pt x="232" y="601" on="0"/>
        <pt x="210" y="504" on="0"/>
        <pt x="211" y="438" on="1"/>
        <pt x="295" y="436" on="0"/>
        <pt x="443" y="451" on="0"/>
        <pt x="509" y="470" on="1"/>
        <pt x="518" y="472" on="0"/>
        <pt x="518" y="463" on="1"/>
      </contour>
    </TTGlyph>
</ttFont>
